<?xml version="1.0" encoding="UTF-8"?><svg id="uuid-1b208d85-2b2f-4fc4-aece-b3bafd086d2c" xmlns="http://www.w3.org/2000/svg" viewBox="0 0 851.06 646.82"><defs><style>.uuid-f4df75d8-81e3-41c8-b662-104066b3fe48{fill:#ff7f0e;}.uuid-f461aee8-2625-4dac-a07f-71dad0b452cc{fill:#f78d1e;stroke:#f7931e;}.uuid-f461aee8-2625-4dac-a07f-71dad0b452cc,.uuid-b477acea-d21a-4dae-8a39-c87ae395fe53,.uuid-e6860b1c-07a5-450b-9a8a-ddef9141bfd5,.uuid-c2a1aadf-e929-4a42-8df8-71bd7363e14d,.uuid-094861a5-c9f1-46cf-8d2a-4caba490626c,.uuid-d999fc89-a86f-4e1f-938a-7415c08d4128,.uuid-3b9838d9-89b8-4a28-8afd-858f47590aac,.uuid-565035e0-b9b5-4ddd-8080-0b928d6ace82{opacity:.2;}.uuid-7ba44a93-20d4-4025-b2d7-84b6dec84f2d,.uuid-c2a1aadf-e929-4a42-8df8-71bd7363e14d{fill:#ffcd34;}.uuid-91b9f0ab-6dcc-405c-9e0a-bdaaaf849708,.uuid-b477acea-d21a-4dae-8a39-c87ae395fe53{fill:#e53598;}.uuid-c5c7ea25-c8c1-46cc-acde-e67778e63ac8,.uuid-d999fc89-a86f-4e1f-938a-7415c08d4128{fill:#00718b;stroke:#00718b;}.uuid-d9df91aa-134e-43d9-b82e-efc9a1ab5231{font-family:KumbhSans-Medium, 'Kumbh Sans';font-size:18px;font-variation-settings:'YOPQ' 300, 'wght' 500;font-weight:500;isolation:isolate;}.uuid-e6860b1c-07a5-450b-9a8a-ddef9141bfd5,.uuid-9ce8848e-71a1-4de4-a867-662c14ac79b9{fill:#06499a;}.uuid-2ae63a09-00b6-44f3-9113-fc6b8599f96f{fill:#f3745e;}.uuid-c2a1aadf-e929-4a42-8df8-71bd7363e14d{stroke:#ffc831;}.uuid-4ea722e3-14c1-4eba-8f60-8b2ff8766bbb,.uuid-094861a5-c9f1-46cf-8d2a-4caba490626c{fill:#324a36;}.uuid-094861a5-c9f1-46cf-8d2a-4caba490626c{stroke:#324a36;stroke-width:3px;}.uuid-342040be-40b3-41e3-a0cc-799bf4db0e4d,.uuid-3b9838d9-89b8-4a28-8afd-858f47590aac{fill:#2ca02c;}.uuid-d999fc89-a86f-4e1f-938a-7415c08d4128{stroke-miterlimit:10;stroke-width:4px;}.uuid-3b9838d9-89b8-4a28-8afd-858f47590aac{stroke:#2ca02c;}.uuid-565035e0-b9b5-4ddd-8080-0b928d6ace82{stroke:#9962d8;}.uuid-565035e0-b9b5-4ddd-8080-0b928d6ace82,.uuid-3244cbb8-2061-4043-9c25-9d803a3490d4{fill:#9962d8;}.uuid-19ba9dea-7382-4950-9d32-5c1c8227e5c1{letter-spacing:-.01em;}.uuid-ce0a66b3-2670-4e38-b253-8e3c0dc098b5{letter-spacing:-.03em;}.uuid-87eae9ca-6f89-4a97-a419-f63829ed4834{letter-spacing:0em;}.uuid-5274d40a-bf79-4006-8aa7-cfa938842c0d{letter-spacing:0em;}</style></defs><g id="uuid-0ddec532-e4bc-4d0c-a054-66b302c92daf"><path id="uuid-bcc07127-150e-4f44-b944-13c256d9426d" class="uuid-d999fc89-a86f-4e1f-938a-7415c08d4128" d="M110.23,418.67c-37.06,0-67.1-30.03-67.11-67.09,0-37.06,30.03-67.1,67.09-67.11h.02c37.06,0,67.1,30.03,67.11,67.09,0,37.06-30.03,67.1-67.09,67.11h-.02Z"/><text class="uuid-d9df91aa-134e-43d9-b82e-efc9a1ab5231" transform="translate(17.76 293.88)"><tspan x="0" y="0">anger</tspan></text><path id="uuid-934965bb-819f-4a87-9fc5-cbf57e46d2df" class="uuid-c5c7ea25-c8c1-46cc-acde-e67778e63ac8" d="M66.87,348.61c-5.02,0-9.09-4.07-9.09-9.09s4.07-9.09,9.09-9.09,9.09,4.07,9.09,9.09-4.07,9.09-9.09,9.09Z"/><path id="uuid-5404894e-0ae2-466f-a7f6-28099a493240" class="uuid-c5c7ea25-c8c1-46cc-acde-e67778e63ac8" d="M99.69,325.12c-5.02,0-9.09-4.07-9.09-9.09s4.07-9.09,9.09-9.09,9.09,4.07,9.09,9.09-4.07,9.09-9.09,9.09Z"/><path id="uuid-19918e27-0d01-4761-872b-18665dff8359" class="uuid-c5c7ea25-c8c1-46cc-acde-e67778e63ac8" d="M75.96,391.74c-5.02,0-9.09-4.07-9.09-9.09s4.07-9.09,9.09-9.09,9.09,4.07,9.09,9.09-4.07,9.09-9.09,9.09Z"/><path id="uuid-d02df95b-201a-477a-a0a8-2f1c0fd1c10d" class="uuid-c5c7ea25-c8c1-46cc-acde-e67778e63ac8" d="M143.71,332.58c-5.02,0-9.09-4.07-9.09-9.09s4.07-9.09,9.09-9.09,9.09,4.07,9.09,9.09-4.07,9.09-9.09,9.09Z"/><path id="uuid-cd30f760-da1b-4b19-af5d-1e7620435930" class="uuid-c5c7ea25-c8c1-46cc-acde-e67778e63ac8" d="M103.07,358.94c-5.02,0-9.09-4.07-9.09-9.09s4.07-9.09,9.09-9.09,9.09,4.07,9.09,9.09-4.07,9.09-9.09,9.09Z"/><path id="uuid-fe59834a-dc71-499c-aae4-6575bb110dd5" class="uuid-c5c7ea25-c8c1-46cc-acde-e67778e63ac8" d="M151.04,367.92c-5.02,0-9.09-4.07-9.09-9.09s4.07-9.09,9.09-9.09,9.09,4.07,9.09,9.09-4.07,9.09-9.09,9.09Z"/><path id="uuid-7a4f353c-8ed9-4ca0-b875-43871724ddfd" class="uuid-c5c7ea25-c8c1-46cc-acde-e67778e63ac8" d="M122.31,401.46c-8.61,0-15.6-6.98-15.6-15.6s6.98-15.6,15.6-15.6,15.6,6.98,15.6,15.6-6.98,15.6-15.6,15.6Z"/><path id="uuid-3014cf9f-a774-4c38-8e04-eff7b6c03bc1" class="uuid-f461aee8-2625-4dac-a07f-71dad0b452cc" d="M316.29,399.12c-90.32,0-163.54-73.22-163.54-163.54s73.22-163.54,163.54-163.54,163.54,73.22,163.54,163.54-73.22,163.54-163.54,163.54Z"/><path id="uuid-d2f8da5a-5414-4da9-90b2-473022a1c6ad" class="uuid-f4df75d8-81e3-41c8-b662-104066b3fe48" d="M205.85,163.66c-4.92,0-8.91-3.99-8.91-8.9s3.99-8.91,8.9-8.91h0c4.92,0,8.91,3.99,8.91,8.9s-3.99,8.91-8.9,8.91h0Z"/><path id="uuid-64794f40-a97c-4f2b-9d18-36b72552ae58" class="uuid-f4df75d8-81e3-41c8-b662-104066b3fe48" d="M373.57,231.76c-8.61,0-15.6-6.98-15.6-15.6s6.98-15.6,15.6-15.6,15.6,6.98,15.6,15.6-6.98,15.6-15.6,15.6Z"/><path id="uuid-d98abf5f-a2e5-4717-91df-802cfb92b010" class="uuid-f4df75d8-81e3-41c8-b662-104066b3fe48" d="M226.1,312.36c-16.1,0-29.16-13.05-29.16-29.16s13.05-29.16,29.16-29.16,29.16,13.05,29.16,29.16-13.05,29.16-29.16,29.16Z"/><path id="uuid-2b1cf335-2b4b-47f5-9de4-7122334aa0d0" class="uuid-f4df75d8-81e3-41c8-b662-104066b3fe48" d="M297.62,376.87c-18.79,0-34.03-15.24-34.03-34.03s15.24-34.03,34.03-34.03,34.03,15.24,34.03,34.03-15.24,34.03-34.03,34.03Z"/><path id="uuid-767d720c-f744-4a88-bcdf-a28853f34d49" class="uuid-f4df75d8-81e3-41c8-b662-104066b3fe48" d="M378.1,327.41c-21.52,0-38.97-17.45-38.97-38.97s17.45-38.97,38.97-38.97,38.97,17.45,38.97,38.97-17.45,38.97-38.97,38.97Z"/><path id="uuid-e78c99ce-2299-47b4-8b9a-45ac249e49cc" class="uuid-f4df75d8-81e3-41c8-b662-104066b3fe48" d="M270.76,249.46c-11.69,0-21.17-9.48-21.17-21.17s9.48-21.17,21.17-21.17,21.17,9.48,21.17,21.17-9.48,21.17-21.17,21.17Z"/><path id="uuid-206626c2-2e4c-473f-8f45-3765164cd444" class="uuid-f4df75d8-81e3-41c8-b662-104066b3fe48" d="M324.19,246.42c-11.69,0-21.17-9.48-21.17-21.17s9.48-21.17,21.17-21.17,21.17,9.48,21.17,21.17-9.48,21.17-21.17,21.17Z"/><path id="uuid-10d70e35-608c-461d-9763-630693d3992e" class="uuid-f4df75d8-81e3-41c8-b662-104066b3fe48" d="M345.35,197.72c-8.61,0-15.6-6.98-15.6-15.6s6.98-15.6,15.6-15.6,15.6,6.98,15.6,15.6-6.98,15.6-15.6,15.6Z"/><path id="uuid-6791de84-0f02-481f-b8d0-83e969a50efb" class="uuid-f4df75d8-81e3-41c8-b662-104066b3fe48" d="M393.69,193.44c-8.61,0-15.6-6.98-15.6-15.6s6.98-15.6,15.6-15.6,15.6,6.98,15.6,15.6-6.98,15.6-15.6,15.6Z"/><path id="uuid-581abc3d-0f17-4dc9-9d70-a3654ae35ee7" class="uuid-f4df75d8-81e3-41c8-b662-104066b3fe48" d="M246.35,150.23c-4.92,0-8.91-3.99-8.91-8.9s3.99-8.91,8.9-8.91h0c4.92,0,8.91,3.99,8.91,8.9s-3.99,8.91-8.9,8.91h0Z"/><path id="uuid-2bc35571-d61e-41ea-ae72-58d3e7ed7e88" class="uuid-f4df75d8-81e3-41c8-b662-104066b3fe48" d="M188.94,240.66c-4.92,0-8.91-3.99-8.91-8.9s3.99-8.91,8.9-8.91h0c4.92,0,8.91,3.99,8.91,8.9s-3.99,8.91-8.9,8.91h0Z"/><path id="uuid-991c290d-5de0-47fa-9cb7-e3655cd97d1d" class="uuid-f4df75d8-81e3-41c8-b662-104066b3fe48" d="M288.71,122.95c-4.92,0-8.91-3.99-8.91-8.9s3.99-8.91,8.9-8.91h0c4.92,0,8.91,3.99,8.91,8.9s-3.99,8.91-8.9,8.91h0Z"/><path id="uuid-27f43be5-4b1c-408e-92d4-24bf43b93f64" class="uuid-f4df75d8-81e3-41c8-b662-104066b3fe48" d="M218.83,351.75c-4.92,0-8.91-3.99-8.91-8.9s3.99-8.91,8.9-8.91h0c4.92,0,8.91,3.99,8.91,8.9s-3.99,8.91-8.9,8.91h0Z"/><path id="uuid-37e765ee-941c-4e29-896c-d9220979a6a7" class="uuid-f4df75d8-81e3-41c8-b662-104066b3fe48" d="M283.02,302.65c-4.92,0-8.91-3.99-8.91-8.9s3.99-8.91,8.9-8.91h0c4.92,0,8.91,3.99,8.91,8.9s-3.99,8.91-8.9,8.91h0Z"/><path id="uuid-1e881160-ea57-4628-b185-976d0a82bcca" class="uuid-f4df75d8-81e3-41c8-b662-104066b3fe48" d="M354.26,376.87c-4.92,0-8.91-3.99-8.91-8.9s3.99-8.91,8.9-8.91h0c4.92,0,8.91,3.99,8.91,8.9s-3.99,8.91-8.9,8.91h0Z"/><path id="uuid-60fc129c-5763-4f04-b7db-3b93954ac122" class="uuid-f4df75d8-81e3-41c8-b662-104066b3fe48" d="M345.35,114.79c-4.92,0-8.91-3.99-8.91-8.9s3.99-8.91,8.9-8.91h0c4.92,0,8.91,3.99,8.91,8.9,0,4.92-3.99,8.91-8.9,8.91h0Z"/><path id="uuid-0c20987b-789a-420f-8a4a-38fb2d3bbbf7" class="uuid-f4df75d8-81e3-41c8-b662-104066b3fe48" d="M237.44,195.99c-4.92,0-8.91-3.99-8.91-8.9s3.99-8.91,8.9-8.91h0c4.92,0,8.91,3.99,8.91,8.9s-3.99,8.91-8.9,8.91h0Z"/><path id="uuid-30afc1f8-c176-4ed6-812b-8ca8468cf04c" class="uuid-f4df75d8-81e3-41c8-b662-104066b3fe48" d="M438.44,240.66c-4.92,0-8.91-3.99-8.91-8.9,0-4.92,3.99-8.91,8.9-8.91h0c4.92,0,8.91,3.99,8.91,8.9s-3.99,8.91-8.9,8.91h0Z"/><path id="uuid-1a4cf840-10c1-475e-97b4-6e09f8c58eab" class="uuid-f4df75d8-81e3-41c8-b662-104066b3fe48" d="M418.2,351.75c-4.92,0-8.91-3.99-8.91-8.9s3.99-8.91,8.9-8.91h0c4.92,0,8.91,3.99,8.91,8.9s-3.99,8.91-8.9,8.91h0Z"/><path id="uuid-975fa278-2985-496d-a149-7347d8405077" class="uuid-f4df75d8-81e3-41c8-b662-104066b3fe48" d="M291.93,191.03c-4.92,0-8.91-3.99-8.91-8.9,0-4.92,3.99-8.91,8.9-8.91h0c4.92,0,8.91,3.99,8.91,8.9s-3.99,8.91-8.9,8.91h0Z"/><path id="uuid-fc4ac558-ec12-4395-8ba0-6fbcb76144f9" class="uuid-f4df75d8-81e3-41c8-b662-104066b3fe48" d="M331.65,154.57c-4.92,0-8.91-3.99-8.91-8.9,0-4.92,3.99-8.91,8.9-8.91h0c4.92,0,8.91,3.99,8.91,8.9s-3.99,8.91-8.9,8.91h0Z"/><path id="uuid-ab2e81a4-0421-4b5a-a4e0-ba3b14d8a804" class="uuid-f4df75d8-81e3-41c8-b662-104066b3fe48" d="M402.6,132.05c-4.92,0-8.91-3.99-8.91-8.9s3.99-8.91,8.9-8.91h0c4.92,0,8.91,3.99,8.91,8.9s-3.99,8.91-8.9,8.91h0Z"/><text class="uuid-d9df91aa-134e-43d9-b82e-efc9a1ab5231" transform="translate(265.96 66.66)"><tspan x="0" y="0">a</tspan><tspan class="uuid-5274d40a-bf79-4006-8aa7-cfa938842c0d" x="9.69" y="0">n</tspan><tspan class="uuid-19ba9dea-7382-4950-9d32-5c1c8227e5c1" x="20.29" y="0">t</tspan><tspan x="27.25" y="0">icip</tspan><tspan class="uuid-19ba9dea-7382-4950-9d32-5c1c8227e5c1" x="56.62" y="0">at</tspan><tspan x="73.01" y="0">ion</tspan></text><path id="uuid-3d8dc032-aeb9-4347-9cd0-92a9942b0f86" class="uuid-3b9838d9-89b8-4a28-8afd-858f47590aac" d="M462.46,120.08c-25.71,0-46.55-20.84-46.55-46.55s20.84-46.55,46.55-46.55,46.55,20.84,46.55,46.55-20.84,46.55-46.55,46.55Z"/><path id="uuid-148c177c-ed0e-439c-bc86-4e6d6ceb43e1" class="uuid-342040be-40b3-41e3-a0cc-799bf4db0e4d" d="M439.52,73.53c-5.02,0-9.09-4.07-9.09-9.09s4.07-9.09,9.09-9.09,9.09,4.07,9.09,9.09-4.07,9.09-9.09,9.09Z"/><path id="uuid-d1606f4e-217a-4fdc-9468-940fe4b76941" class="uuid-342040be-40b3-41e3-a0cc-799bf4db0e4d" d="M448.22,102.89c-5.02,0-9.09-4.07-9.09-9.09s4.07-9.09,9.09-9.09,9.09,4.07,9.09,9.09-4.07,9.09-9.09,9.09Z"/><path id="uuid-7872a7d4-dca1-47f7-bb3c-9a8c6a77552e" class="uuid-342040be-40b3-41e3-a0cc-799bf4db0e4d" d="M464.95,59.5c-5.02,0-9.09-4.07-9.09-9.09s4.07-9.09,9.09-9.09,9.09,4.07,9.09,9.09-4.07,9.09-9.09,9.09Z"/><path id="uuid-e2c402ae-f31c-47fb-aa99-dafbf86d0d75" class="uuid-342040be-40b3-41e3-a0cc-799bf4db0e4d" d="M474.04,99.56c-5.02,0-9.09-4.07-9.09-9.09s4.07-9.09,9.09-9.09,9.09,4.07,9.09,9.09-4.07,9.09-9.09,9.09Z"/><path id="uuid-842cb240-f916-4383-99c1-b81b3c5a61af" class="uuid-342040be-40b3-41e3-a0cc-799bf4db0e4d" d="M492.87,82.44c-5.02,0-9.09-4.07-9.09-9.09s4.07-9.09,9.09-9.09,9.09,4.07,9.09,9.09-4.07,9.09-9.09,9.09Z"/><text class="uuid-d9df91aa-134e-43d9-b82e-efc9a1ab5231" transform="translate(439.51 19.49)"><tspan x="0" y="0">disgu</tspan><tspan class="uuid-87eae9ca-6f89-4a97-a419-f63829ed4834" x="45.19" y="0">s</tspan><tspan x="52.82" y="0">t</tspan></text><path id="uuid-a0b637a7-de48-40f7-a702-77221fa9add4" class="uuid-e6860b1c-07a5-450b-9a8a-ddef9141bfd5" d="M226.1,578.08c-52.8,0-95.61-42.81-95.61-95.61s42.81-95.61,95.61-95.61,95.61,42.81,95.61,95.61-42.81,95.61-95.61,95.61Z"/><path id="uuid-e3fb5f49-e1b6-4812-8877-2e3df67b8571" class="uuid-9ce8848e-71a1-4de4-a867-662c14ac79b9" d="M229.29,521.48c-11.69,0-21.17-9.48-21.17-21.17s9.48-21.17,21.17-21.17,21.17,9.48,21.17,21.17-9.48,21.17-21.17,21.17Z"/><path id="uuid-3908d2e6-44e5-44d6-8960-2c0885d01d17" class="uuid-9ce8848e-71a1-4de4-a867-662c14ac79b9" d="M250.46,471.01c-8.61,0-15.6-6.98-15.6-15.6s6.98-15.6,15.6-15.6,15.6,6.98,15.6,15.6-6.98,15.6-15.6,15.6Z"/><path id="uuid-1904f18e-89e7-4aa4-81e8-7e370aeb8e3f" class="uuid-9ce8848e-71a1-4de4-a867-662c14ac79b9" d="M197.4,528.83c-4.92,0-8.91-3.99-8.91-8.9s3.99-8.91,8.9-8.91h0c4.92,0,8.91,3.99,8.91,8.9s-3.99,8.91-8.9,8.91h0Z"/><path id="uuid-0344005a-d216-4106-910f-69465d3b43d8" class="uuid-9ce8848e-71a1-4de4-a867-662c14ac79b9" d="M268.35,553.31c-4.92,0-8.91-3.99-8.91-8.9s3.99-8.91,8.9-8.91h0c4.92,0,8.91,3.99,8.91,8.9s-3.99,8.91-8.9,8.91h0Z"/><path id="uuid-2902621c-af84-4a0e-8c89-935d63fc04ad" class="uuid-9ce8848e-71a1-4de4-a867-662c14ac79b9" d="M157.68,518.12c-4.92,0-8.91-3.99-8.91-8.9s3.99-8.91,8.9-8.91h0c4.92,0,8.91,3.99,8.91,8.9s-3.99,8.91-8.9,8.91h0Z"/><path id="uuid-b1a195a8-cfe9-4afd-b6ea-734f4a391315" class="uuid-9ce8848e-71a1-4de4-a867-662c14ac79b9" d="M206.31,455.41c-4.92,0-8.91-3.99-8.91-8.9s3.99-8.91,8.9-8.91h0c4.92,0,8.91,3.99,8.91,8.9s-3.99,8.91-8.9,8.91h0Z"/><path id="uuid-0bc0872c-9545-4688-89ff-5eca99846355" class="uuid-9ce8848e-71a1-4de4-a867-662c14ac79b9" d="M283.95,473.56c-4.92,0-8.91-3.99-8.91-8.9s3.99-8.91,8.9-8.91h0c4.92,0,8.91,3.99,8.91,8.9,0,4.92-3.99,8.91-8.9,8.91h0Z"/><path id="uuid-dca5dde4-0f22-4ce0-88a6-1ad6acc6f90e" class="uuid-9ce8848e-71a1-4de4-a867-662c14ac79b9" d="M283.95,512.16c-4.92,0-8.91-3.99-8.91-8.9s3.99-8.91,8.9-8.91h0c4.92,0,8.91,3.99,8.91,8.9s-3.99,8.91-8.9,8.91h0Z"/><path id="uuid-105496e1-b608-4e6c-8b55-f91297535b25" class="uuid-9ce8848e-71a1-4de4-a867-662c14ac79b9" d="M168.77,464.32c-4.92,0-8.91-3.99-8.91-8.9s3.99-8.91,8.9-8.91h0c4.92,0,8.91,3.99,8.91,8.9s-3.99,8.91-8.9,8.91h0Z"/><path id="uuid-803b6a25-72dc-423f-8bee-ab785ee69542" class="uuid-9ce8848e-71a1-4de4-a867-662c14ac79b9" d="M241.42,418.69c-4.92,0-8.91-3.99-8.91-8.9s3.99-8.91,8.9-8.91h0c4.92,0,8.91,3.99,8.91,8.9s-3.99,8.91-8.9,8.91h0Z"/><path id="uuid-8f1f3f89-2aaf-40e5-8b10-0d56956566ae" class="uuid-9ce8848e-71a1-4de4-a867-662c14ac79b9" d="M234.86,563.02c-4.92,0-8.91-3.99-8.91-8.9s3.99-8.91,8.9-8.91h0c4.92,0,8.91,3.99,8.91,8.9,0,4.92-3.99,8.91-8.9,8.91h0Z"/><path id="uuid-b433b7f7-c435-41da-bb95-ec8974d334e5" class="uuid-9ce8848e-71a1-4de4-a867-662c14ac79b9" d="M195.51,422.22c-4.92,0-8.91-3.99-8.91-8.9s3.99-8.91,8.9-8.91h0c4.92,0,8.91,3.99,8.91,8.9s-3.99,8.91-8.9,8.91h0Z"/><text class="uuid-d9df91aa-134e-43d9-b82e-efc9a1ab5231" transform="translate(182.19 382.22)"><tspan class="uuid-ce0a66b3-2670-4e38-b253-8e3c0dc098b5" x="0" y="0">f</tspan><tspan x="7" y="0">ear</tspan></text><path id="uuid-017af059-7688-4558-a1df-9753dececaa9" class="uuid-b477acea-d21a-4dae-8a39-c87ae395fe53" d="M679.94,646.82c-68.89.01-124.75-55.82-124.76-124.71-.01-68.89,55.82-124.75,124.71-124.76h.04c68.89-.01,124.75,55.82,124.76,124.71.01,68.89-55.82,124.75-124.71,124.76h-.04Z"/><path id="uuid-c458f956-ae67-46a1-a450-760f53fdd3d1" class="uuid-91b9f0ab-6dcc-405c-9e0a-bdaaaf849708" d="M669.58,517.55c-18.79,0-34.03-15.24-34.03-34.03s15.24-34.03,34.03-34.03,34.03,15.24,34.03,34.03-15.24,34.03-34.03,34.03Z"/><path id="uuid-2d7e1eb8-6807-4394-aedb-e9aefd239292" class="uuid-91b9f0ab-6dcc-405c-9e0a-bdaaaf849708" d="M604.03,565.83c-16.18,0-29.29-13.12-29.29-29.29s13.12-29.29,29.29-29.29,29.29,13.12,29.29,29.29-13.12,29.29-29.29,29.29Z"/><path id="uuid-3783640e-7434-4427-80ab-45e11169b348" class="uuid-91b9f0ab-6dcc-405c-9e0a-bdaaaf849708" d="M747.54,578.09c-11.69,0-21.17-9.48-21.17-21.17s9.48-21.17,21.17-21.17,21.17,9.48,21.17,21.17-9.48,21.17-21.17,21.17Z"/><path id="uuid-a110e100-9f5f-46fb-9440-b97e953d660f" class="uuid-91b9f0ab-6dcc-405c-9e0a-bdaaaf849708" d="M735.73,467.75c-8.61,0-15.6-6.98-15.6-15.6s6.98-15.6,15.6-15.6,15.6,6.98,15.6,15.6-6.98,15.6-15.6,15.6Z"/><path id="uuid-458b164a-fa07-4535-a5c8-c7d5c9a88008" class="uuid-91b9f0ab-6dcc-405c-9e0a-bdaaaf849708" d="M768.92,488.1c-8.61,0-15.6-6.98-15.6-15.6s6.98-15.6,15.6-15.6,15.6,6.98,15.6,15.6-6.98,15.6-15.6,15.6Z"/><path id="uuid-fd2bd6e3-adbd-4a86-828a-a141fe1f3ef3" class="uuid-91b9f0ab-6dcc-405c-9e0a-bdaaaf849708" d="M739.76,505.91c-4.92,0-8.91-3.99-8.91-8.9s3.99-8.91,8.9-8.91h0c4.92,0,8.91,3.99,8.91,8.9s-3.99,8.91-8.9,8.91h0Z"/><path id="uuid-6d387f29-853e-430b-bde3-bab7b51c16b1" class="uuid-91b9f0ab-6dcc-405c-9e0a-bdaaaf849708" d="M633.32,614.32c-4.92,0-8.91-3.99-8.91-8.9s3.99-8.91,8.9-8.91h0c4.92,0,8.91,3.99,8.91,8.9s-3.99,8.91-8.9,8.91h0Z"/><path id="uuid-11dfc386-5e6c-4709-9e99-843277657bfc" class="uuid-91b9f0ab-6dcc-405c-9e0a-bdaaaf849708" d="M673.69,605.42c-4.92,0-8.91-3.99-8.91-8.9s3.99-8.91,8.9-8.91h0c4.92,0,8.91,3.99,8.91,8.9s-3.99,8.91-8.9,8.91h0Z"/><path id="uuid-2570469c-ff6c-4f08-a9fa-a4ae106c52e7" class="uuid-91b9f0ab-6dcc-405c-9e0a-bdaaaf849708" d="M612.94,481.41c-4.92,0-8.91-3.99-8.91-8.9s3.99-8.91,8.9-8.91h0c4.92,0,8.91,3.99,8.91,8.9s-3.99,8.91-8.9,8.91h0Z"/><path id="uuid-cb989ce3-73fc-4ac0-b31a-d98a48a93330" class="uuid-91b9f0ab-6dcc-405c-9e0a-bdaaaf849708" d="M653.99,441.82c-4.92,0-8.91-3.99-8.91-8.9s3.99-8.91,8.9-8.91h0c4.92,0,8.91,3.99,8.91,8.9s-3.99,8.91-8.9,8.91h0Z"/><path id="uuid-d3cde0c6-7b1f-4403-bde9-67aa70a3f75e" class="uuid-91b9f0ab-6dcc-405c-9e0a-bdaaaf849708" d="M612.94,601.14c-4.92,0-8.91-3.99-8.91-8.9s3.99-8.91,8.9-8.91h0c4.92,0,8.91,3.99,8.91,8.9s-3.99,8.91-8.9,8.91h0Z"/><path id="uuid-ba906cad-22ce-48f8-b96d-8c8e0e523eec" class="uuid-91b9f0ab-6dcc-405c-9e0a-bdaaaf849708" d="M671.03,556.92c-4.92,0-8.91-3.99-8.91-8.9s3.99-8.91,8.9-8.91h0c4.92,0,8.91,3.99,8.91,8.9s-3.99,8.91-8.9,8.91h0Z"/><path id="uuid-61d45d92-2e0d-45bb-a152-62ae65ed1da8" class="uuid-91b9f0ab-6dcc-405c-9e0a-bdaaaf849708" d="M697.8,432.91c-4.92,0-8.91-3.99-8.91-8.9s3.99-8.91,8.9-8.91h0c4.92,0,8.91,3.99,8.91,8.9s-3.99,8.91-8.9,8.91h0Z"/><path id="uuid-03e797f2-dec0-477c-a267-83832cc06a93" class="uuid-91b9f0ab-6dcc-405c-9e0a-bdaaaf849708" d="M717.92,522.08c-4.92,0-8.91-3.99-8.91-8.9s3.99-8.91,8.9-8.91h0c4.92,0,8.91,3.99,8.91,8.9s-3.99,8.91-8.9,8.91h0Z"/><path id="uuid-28489e6c-338d-4e86-80f9-543bd62d0f26" class="uuid-91b9f0ab-6dcc-405c-9e0a-bdaaaf849708" d="M775.37,526.46c-4.92,0-8.91-3.99-8.91-8.9s3.99-8.91,8.9-8.91h0c4.92,0,8.91,3.99,8.91,8.9s-3.99,8.91-8.9,8.91h0Z"/><path id="uuid-2321f7a5-5aff-4538-80e1-324016353cd5" class="uuid-91b9f0ab-6dcc-405c-9e0a-bdaaaf849708" d="M715.62,610.67c-4.92,0-8.91-3.99-8.91-8.9s3.99-8.91,8.9-8.91h0c4.92,0,8.91,3.99,8.91,8.9s-3.99,8.91-8.9,8.91h0Z"/><path id="uuid-ee6e7869-3e0b-4c1f-8f0b-c89b529b779d" class="uuid-91b9f0ab-6dcc-405c-9e0a-bdaaaf849708" d="M702.32,565.83c-4.92,0-8.91-3.99-8.91-8.9s3.99-8.91,8.9-8.91h0c4.92,0,8.91,3.99,8.91,8.9s-3.99,8.91-8.9,8.91h0Z"/><path id="uuid-12fd5dc0-96b3-4fa6-89d1-9375d38a264d" class="uuid-91b9f0ab-6dcc-405c-9e0a-bdaaaf849708" d="M648.41,577.41c-4.92,0-8.91-3.99-8.91-8.9s3.99-8.91,8.9-8.91h0c4.92,0,8.91,3.99,8.91,8.9s-3.99,8.91-8.9,8.91h0Z"/><text class="uuid-d9df91aa-134e-43d9-b82e-efc9a1ab5231" transform="translate(748.39 409.66)"><tspan x="0" y="0">j</tspan><tspan class="uuid-19ba9dea-7382-4950-9d32-5c1c8227e5c1" x="4.46" y="0">o</tspan><tspan x="14.7" y="0">y</tspan></text><path id="uuid-a2d3f1e0-e169-40c0-bf75-2768ddd63c2b" class="uuid-094861a5-c9f1-46cf-8d2a-4caba490626c" d="M438.44,621.11c-59.81,0-108.3-48.49-108.3-108.3s48.49-108.3,108.3-108.3,108.3,48.49,108.3,108.3-48.49,108.3-108.3,108.3Z"/><path id="uuid-3177c7b7-f517-43b7-a9f4-6cc56e1f01d3" class="uuid-2ae63a09-00b6-44f3-9113-fc6b8599f96f" d="M466.54,525.11c-21.52,0-38.97-17.45-38.97-38.97s17.45-38.97,38.97-38.97,38.97,17.45,38.97,38.97-17.45,38.97-38.97,38.97Z"/><path id="uuid-980da149-5b2c-4154-8c07-6eef7b7666d6" class="uuid-4ea722e3-14c1-4eba-8f60-8b2ff8766bbb" d="M382.07,537.94c-18.79,0-34.03-15.24-34.03-34.03s15.24-34.03,34.03-34.03,34.03,15.24,34.03,34.03-15.24,34.03-34.03,34.03Z"/><path id="uuid-b1b6e73d-3c5e-4f76-81a1-15b0977ec271" class="uuid-4ea722e3-14c1-4eba-8f60-8b2ff8766bbb" d="M403.24,587.94c-11.69,0-21.17-9.48-21.17-21.17s9.48-21.17,21.17-21.17,21.17,9.48,21.17,21.17-9.48,21.17-21.17,21.17Z"/><path id="uuid-d36232ad-f729-43ba-b77d-00e8588885f4" class="uuid-4ea722e3-14c1-4eba-8f60-8b2ff8766bbb" d="M462.27,573.46c-8.61,0-15.6-6.98-15.6-15.6s6.98-15.6,15.6-15.6,15.6,6.98,15.6,15.6-6.98,15.6-15.6,15.6Z"/><path id="uuid-31d52f0c-9988-496b-9a69-fdf2c591f396" class="uuid-4ea722e3-14c1-4eba-8f60-8b2ff8766bbb" d="M370.89,462.22c-4.92,0-8.91-3.99-8.91-8.9s3.99-8.91,8.9-8.91h0c4.92,0,8.91,3.99,8.91,8.9s-3.99,8.91-8.9,8.91h0Z"/><path id="uuid-2d890d25-df5e-417e-8722-3d7ad9e5e73e" class="uuid-4ea722e3-14c1-4eba-8f60-8b2ff8766bbb" d="M416.1,459.05c-4.92,0-8.91-3.99-8.91-8.9s3.99-8.91,8.9-8.91h0c4.92,0,8.91,3.99,8.91,8.9s-3.99,8.91-8.9,8.91h0Z"/><path id="uuid-23711b93-3389-4275-8315-f2ff715a84ed" class="uuid-4ea722e3-14c1-4eba-8f60-8b2ff8766bbb" d="M444.45,437.18c-4.92,0-8.91-3.99-8.91-8.9s3.99-8.91,8.9-8.91h0c4.92,0,8.91,3.99,8.91,8.9s-3.99,8.91-8.9,8.91h0Z"/><path id="uuid-252b1dda-b487-45f1-861a-fa1407b5b8ad" class="uuid-4ea722e3-14c1-4eba-8f60-8b2ff8766bbb" d="M435.54,548.85c-4.92,0-8.91-3.99-8.91-8.9s3.99-8.91,8.9-8.91h0c4.92,0,8.91,3.99,8.91,8.9s-3.99,8.91-8.9,8.91h0Z"/><path id="uuid-4f837cfb-f756-46f9-a3ce-ab2fa98c0d3f" class="uuid-4ea722e3-14c1-4eba-8f60-8b2ff8766bbb" d="M444.45,593.88c-4.92,0-8.91-3.99-8.91-8.9s3.99-8.91,8.9-8.91h0c4.92,0,8.91,3.99,8.91,8.9s-3.99,8.91-8.9,8.91h0Z"/><path id="uuid-f6220dcd-8bc9-4fe9-8df2-472a89866a25" class="uuid-4ea722e3-14c1-4eba-8f60-8b2ff8766bbb" d="M501.16,547.55c-4.92,0-8.91-3.99-8.91-8.9s3.99-8.91,8.9-8.91h0c4.92,0,8.91,3.99,8.91,8.9s-3.99,8.91-8.9,8.91h0Z"/><path id="uuid-ffbe8fff-d948-4d5b-9a00-f0b6912418af" class="uuid-4ea722e3-14c1-4eba-8f60-8b2ff8766bbb" d="M523.67,512.82c-4.92,0-8.91-3.99-8.91-8.9s3.99-8.91,8.9-8.91h0c4.92,0,8.91,3.99,8.91,8.9s-3.99,8.91-8.9,8.91h0Z"/><path id="uuid-a62395c5-f3f9-4a73-bac1-dd8b438c4df7" class="uuid-4ea722e3-14c1-4eba-8f60-8b2ff8766bbb" d="M492.25,593.88c-4.92,0-8.91-3.99-8.91-8.9s3.99-8.91,8.9-8.91h0c4.92,0,8.91,3.99,8.91,8.9s-3.99,8.91-8.9,8.91h0Z"/><text class="uuid-d9df91aa-134e-43d9-b82e-efc9a1ab5231" transform="translate(387.71 395.1)"><tspan x="0" y="0">sadness</tspan></text><path id="uuid-e8a88b95-2079-49b8-bf00-b2d9a42d9e66" class="uuid-565035e0-b9b5-4ddd-8080-0b928d6ace82" d="M73.84,275.11C33.34,275.11.5,242.28.5,201.77s32.84-73.34,73.34-73.34,73.34,32.84,73.34,73.34-32.84,73.34-73.34,73.34Z"/><path id="uuid-26f445d3-57b8-49cb-90ac-264eb3c692a2" class="uuid-2ae63a09-00b6-44f3-9113-fc6b8599f96f" d="M77.66,261.51c-21.52,0-38.97-17.45-38.97-38.97s17.45-38.97,38.97-38.97,38.97,17.45,38.97,38.97-17.45,38.97-38.97,38.97Z"/><path id="uuid-8d202b45-2398-4854-9253-e72433cb6763" class="uuid-3244cbb8-2061-4043-9c25-9d803a3490d4" d="M27.7,199.56c-8.61,0-15.6-6.98-15.6-15.6s6.98-15.6,15.6-15.6,15.6,6.98,15.6,15.6-6.98,15.6-15.6,15.6Z"/><path id="uuid-c2a2f7f7-6595-414b-b78c-6a5a14efdb09" class="uuid-3244cbb8-2061-4043-9c25-9d803a3490d4" d="M125.54,207.52c-4.92,0-8.91-3.99-8.91-8.9,0-4.92,3.99-8.91,8.9-8.91h0c4.92,0,8.91,3.99,8.91,8.9s-3.99,8.91-8.9,8.91h0Z"/><path id="uuid-83ead490-bba2-4b22-8ca3-fedfd05a3ea7" class="uuid-3244cbb8-2061-4043-9c25-9d803a3490d4" d="M52.2,157.22c-4.92,0-8.91-3.99-8.91-8.9,0-4.92,3.99-8.91,8.9-8.91h0c4.92,0,8.91,3.99,8.91,8.9s-3.99,8.91-8.9,8.91h0Z"/><path id="uuid-8cfb1cae-bbb2-4bd0-b7cf-8f3b393430db" class="uuid-3244cbb8-2061-4043-9c25-9d803a3490d4" d="M95.48,177.27c-4.92,0-8.91-3.99-8.91-8.9,0-4.92,3.99-8.91,8.9-8.91h0c4.92,0,8.91,3.99,8.91,8.9s-3.99,8.91-8.9,8.91h0Z"/><path id="uuid-6c6af874-0b1b-44c4-a7af-233085104f33" class="uuid-3244cbb8-2061-4043-9c25-9d803a3490d4" d="M64.93,177.27c-4.92,0-8.91-3.99-8.91-8.9,0-4.92,3.99-8.91,8.9-8.91h0c4.92,0,8.91,3.99,8.91,8.9s-3.99,8.91-8.9,8.91h0Z"/><text class="uuid-d9df91aa-134e-43d9-b82e-efc9a1ab5231" transform="translate(15.83 122.54)"><tspan x="0" y="0">surprise</tspan></text><path id="uuid-b00f5644-6b6d-4ae9-87e0-93b4c178ce9d" class="uuid-c2a1aadf-e929-4a42-8df8-71bd7363e14d" d="M667.98,391.88c-100.84,0-182.58-81.74-182.58-182.58S567.14,26.72,667.98,26.72s182.58,81.74,182.58,182.58-81.74,182.58-182.58,182.58Z"/><path id="uuid-b3b900b4-d0ac-42db-abcb-3b459cf89bb5" class="uuid-7ba44a93-20d4-4025-b2d7-84b6dec84f2d" d="M588.44,287.97c-21.52,0-38.97-17.45-38.97-38.97s17.45-38.97,38.97-38.97,38.97,17.45,38.97,38.97-17.45,38.97-38.97,38.97Z"/><path id="uuid-5cf7c798-92d1-4b7f-8424-984ad4688293" class="uuid-7ba44a93-20d4-4025-b2d7-84b6dec84f2d" d="M678.21,303.04c-21.52,0-38.97-17.45-38.97-38.97s17.45-38.97,38.97-38.97,38.97,17.45,38.97,38.97-17.45,38.97-38.97,38.97Z"/><path id="uuid-eff4ebcc-5369-46ed-8dea-5a6b0d1e523c" class="uuid-7ba44a93-20d4-4025-b2d7-84b6dec84f2d" d="M762.59,283.03c-18.79,0-34.03-15.24-34.03-34.03s15.24-34.03,34.03-34.03,34.03,15.24,34.03,34.03-15.24,34.03-34.03,34.03Z"/><path id="uuid-6093b698-aa6a-422e-909a-21389c12ecae" class="uuid-7ba44a93-20d4-4025-b2d7-84b6dec84f2d" d="M728.56,209.67c-16.1,0-29.16-13.05-29.16-29.16s13.05-29.16,29.16-29.16,29.16,13.05,29.16,29.16-13.05,29.16-29.16,29.16Z"/><path id="uuid-396bdd77-f467-476d-90dc-145f560494ad" class="uuid-7ba44a93-20d4-4025-b2d7-84b6dec84f2d" d="M665.41,177.29c-14.38,0-26.04-11.66-26.04-26.04s11.66-26.04,26.04-26.04,26.04,11.66,26.04,26.04-11.66,26.04-26.04,26.04Z"/><path id="uuid-558c1109-a270-43bc-ab60-69b4b0b59466" class="uuid-7ba44a93-20d4-4025-b2d7-84b6dec84f2d" d="M614.49,150.59c-14.38,0-26.04-11.66-26.04-26.04s11.66-26.04,26.04-26.04,26.04,11.66,26.04,26.04-11.66,26.04-26.04,26.04Z"/><path id="uuid-5e217b41-ed1e-496e-9372-4531157145c6" class="uuid-7ba44a93-20d4-4025-b2d7-84b6dec84f2d" d="M707.39,142.95c-11.69,0-21.17-9.48-21.17-21.17s9.48-21.17,21.17-21.17,21.17,9.48,21.17,21.17-9.48,21.17-21.17,21.17Z"/><path id="uuid-48fe74ac-574e-4fb6-ac0b-9554615db9fb" class="uuid-7ba44a93-20d4-4025-b2d7-84b6dec84f2d" d="M693.81,98.74c-8.61,0-15.6-6.98-15.6-15.6s6.98-15.6,15.6-15.6,15.6,6.98,15.6,15.6-6.98,15.6-15.6,15.6Z"/><path id="uuid-e9206878-324e-4e7c-807c-4122a7d5bc55" class="uuid-7ba44a93-20d4-4025-b2d7-84b6dec84f2d" d="M618.05,192.89c-8.61,0-15.6-6.98-15.6-15.6s6.98-15.6,15.6-15.6,15.6,6.98,15.6,15.6-6.98,15.6-15.6,15.6Z"/><path id="uuid-4c39baf0-7604-4484-bcd9-8231718e5e07" class="uuid-7ba44a93-20d4-4025-b2d7-84b6dec84f2d" d="M652.38,221.22c-8.61,0-15.6-6.98-15.6-15.6s6.98-15.6,15.6-15.6,15.6,6.98,15.6,15.6-6.98,15.6-15.6,15.6Z"/><path id="uuid-3a105756-01c8-4b95-9d78-1963dd395d7e" class="uuid-7ba44a93-20d4-4025-b2d7-84b6dec84f2d" d="M652.38,109.89c-8.61,0-15.6-6.98-15.6-15.6s6.98-15.6,15.6-15.6,15.6,6.98,15.6,15.6-6.98,15.6-15.6,15.6Z"/><path id="uuid-7c8dc8d3-b519-4136-b8f6-18eae497b057" class="uuid-7ba44a93-20d4-4025-b2d7-84b6dec84f2d" d="M753.25,125.61c-8.61,0-15.6-6.98-15.6-15.6s6.98-15.6,15.6-15.6,15.6,6.98,15.6,15.6-6.98,15.6-15.6,15.6Z"/><path id="uuid-730acee8-1df6-42df-98a4-b5c9b408c176" class="uuid-7ba44a93-20d4-4025-b2d7-84b6dec84f2d" d="M568.47,185.39c-14.38,0-26.04-11.66-26.04-26.04s11.66-26.04,26.04-26.04,26.04,11.66,26.04,26.04-11.66,26.04-26.04,26.04Z"/><path id="uuid-d2e6cbc8-3843-47ed-bebc-6fef81a7fe60" class="uuid-7ba44a93-20d4-4025-b2d7-84b6dec84f2d" d="M578.48,333.73c-4.92,0-8.91-3.99-8.91-8.9,0-4.92,3.99-8.91,8.9-8.91h0c4.92,0,8.91,3.99,8.91,8.9s-3.99,8.91-8.9,8.91h0Z"/><path id="uuid-f217ba29-6cca-4434-8b72-b1827c7ce781" class="uuid-7ba44a93-20d4-4025-b2d7-84b6dec84f2d" d="M618.51,344.29c-4.92,0-8.91-3.99-8.91-8.9,0-4.92,3.99-8.91,8.9-8.91h0c4.92,0,8.91,3.99,8.91,8.9s-3.99,8.91-8.9,8.91h0Z"/><path id="uuid-b8856f83-c0f9-48f6-9e1e-783ef121d594" class="uuid-7ba44a93-20d4-4025-b2d7-84b6dec84f2d" d="M542.43,305.33c-4.92,0-8.91-3.99-8.91-8.9,0-4.92,3.99-8.91,8.9-8.91h0c4.92,0,8.91,3.99,8.91,8.9s-3.99,8.91-8.9,8.91h0Z"/><path id="uuid-0fb15dbf-1369-40d2-9888-8f389eec085d" class="uuid-7ba44a93-20d4-4025-b2d7-84b6dec84f2d" d="M728.56,74.24c-4.92,0-8.91-3.99-8.91-8.9,0-4.92,3.99-8.91,8.9-8.91h0c4.92,0,8.91,3.99,8.91,8.9s-3.99,8.91-8.9,8.91h0Z"/><path id="uuid-26d720ff-75e2-4912-8e26-6a2e0ffaa201" class="uuid-7ba44a93-20d4-4025-b2d7-84b6dec84f2d" d="M614.49,311.95c-4.92,0-8.91-3.99-8.91-8.9,0-4.92,3.99-8.91,8.9-8.91h0c4.92,0,8.91,3.99,8.91,8.9s-3.99,8.91-8.9,8.91h0Z"/><path id="uuid-540a7e19-ab78-4631-b203-a7000e6085a0" class="uuid-7ba44a93-20d4-4025-b2d7-84b6dec84f2d" d="M656.5,332.13c-4.92,0-8.91-3.99-8.91-8.9,0-4.92,3.99-8.91,8.9-8.91h0c4.92,0,8.91,3.99,8.91,8.9s-3.99,8.91-8.9,8.91h0Z"/><path id="uuid-7b604c10-08ac-447e-a82b-fad85836da3b" class="uuid-7ba44a93-20d4-4025-b2d7-84b6dec84f2d" d="M691.45,353.2c-4.92,0-8.91-3.99-8.91-8.9,0-4.92,3.99-8.91,8.9-8.91h0c4.92,0,8.91,3.99,8.91,8.9s-3.99,8.91-8.9,8.91h0Z"/><path id="uuid-2010f79c-92d2-4c01-844b-b114c40f5b3d" class="uuid-7ba44a93-20d4-4025-b2d7-84b6dec84f2d" d="M722.93,326.48c-4.92,0-8.91-3.99-8.91-8.9,0-4.92,3.99-8.91,8.9-8.91h0c4.92,0,8.91,3.99,8.91,8.9s-3.99,8.91-8.9,8.91h0Z"/><path id="uuid-05ecb9e6-d528-4713-9bb7-7590b55aa658" class="uuid-7ba44a93-20d4-4025-b2d7-84b6dec84f2d" d="M785.55,192.46c-4.92,0-8.91-3.99-8.91-8.9,0-4.92,3.99-8.91,8.9-8.91h0c4.92,0,8.91,3.99,8.91,8.9s-3.99,8.91-8.9,8.91h0Z"/><path id="uuid-55bcfa12-a188-4377-a807-ba265c9b5d6a" class="uuid-7ba44a93-20d4-4025-b2d7-84b6dec84f2d" d="M588.44,92.05c-4.92,0-8.91-3.99-8.91-8.9,0-4.92,3.99-8.91,8.9-8.91h0c4.92,0,8.91,3.99,8.91,8.9s-3.99,8.91-8.9,8.91h0Z"/><path id="uuid-a82a043f-8280-49a4-9023-5969608484d3" class="uuid-7ba44a93-20d4-4025-b2d7-84b6dec84f2d" d="M771.49,155.19c-4.92,0-8.91-3.99-8.91-8.9,0-4.92,3.99-8.91,8.9-8.91h0c4.92,0,8.91,3.99,8.91,8.9s-3.99,8.91-8.9,8.91h0Z"/><path id="uuid-b819fdc3-d07f-47c5-9b7e-555a8e99c1fc" class="uuid-7ba44a93-20d4-4025-b2d7-84b6dec84f2d" d="M753.25,315.66c-4.92,0-8.91-3.99-8.91-8.9,0-4.92,3.99-8.91,8.9-8.91h0c4.92,0,8.91,3.99,8.91,8.9s-3.99,8.91-8.9,8.91h0Z"/><path id="uuid-90f22e18-d4c7-4930-91fa-ec9708a837d7" class="uuid-7ba44a93-20d4-4025-b2d7-84b6dec84f2d" d="M548.12,218.93c-4.92,0-8.91-3.99-8.91-8.9,0-4.92,3.99-8.91,8.9-8.91h0c4.92,0,8.91,3.99,8.91,8.9s-3.99,8.91-8.9,8.91h0Z"/><path id="uuid-fd30f5d3-5f22-4e0e-9638-9defcc33d5c6" class="uuid-7ba44a93-20d4-4025-b2d7-84b6dec84f2d" d="M785.55,307.49c-4.92,0-8.91-3.99-8.91-8.9,0-4.92,3.99-8.91,8.9-8.91h0c4.92,0,8.91,3.99,8.91,8.9s-3.99,8.91-8.9,8.91h0Z"/><path id="uuid-5af65246-26e5-4e67-9663-d483afb1fc02" class="uuid-7ba44a93-20d4-4025-b2d7-84b6dec84f2d" d="M825.53,249c-4.92,0-8.91-3.99-8.91-8.9,0-4.92,3.99-8.91,8.9-8.91h0c4.92,0,8.91,3.99,8.91,8.9s-3.99,8.91-8.9,8.91h0Z"/><text class="uuid-d9df91aa-134e-43d9-b82e-efc9a1ab5231" transform="translate(646.97 15.59)"><tspan class="uuid-19ba9dea-7382-4950-9d32-5c1c8227e5c1" x="0" y="0">t</tspan><tspan x="6.96" y="0">ru</tspan><tspan class="uuid-87eae9ca-6f89-4a97-a419-f63829ed4834" x="24.9" y="0">s</tspan><tspan x="32.53" y="0">t</tspan></text></g></svg>