<?xml version="1.0" encoding="UTF-8"?><svg id="uuid-c22aca42-8073-4613-9bd4-9bc6d7242d63" xmlns="http://www.w3.org/2000/svg" viewBox="0 0 851.06 646.82"><defs><style>.uuid-cc2fb528-c3ef-40db-89c9-fe7f74372af9{fill:#ff7f0e;}.uuid-0becd201-a126-4d56-b633-d2f156eb1576{fill:#f78d1e;stroke:#f7931e;}.uuid-0becd201-a126-4d56-b633-d2f156eb1576,.uuid-defe8726-c690-4e33-a56d-4434ce3b09a0,.uuid-e6acbb3f-8730-442c-add9-bbf9f65f0261,.uuid-2bbb9283-8d61-49f6-a840-77268d9ef70a,.uuid-15fb2f42-31ec-4de8-b8dc-223beb7cf1f8,.uuid-d1ddc962-7487-49cb-8bff-6e0615eb1107,.uuid-b98789ef-623f-4a32-aa12-4606caf01a46,.uuid-c7ce324d-e824-447c-8ec1-dc6d582e6dea{opacity:.2;}.uuid-de2957f0-b660-483b-9b4e-beb1b09a80ec{fill:#fff;font-family:KumbhSans-Bold, 'Kumbh Sans';font-size:14px;font-variation-settings:'YOPQ' 300, 'wght' 700;font-weight:700;}.uuid-de2957f0-b660-483b-9b4e-beb1b09a80ec,.uuid-130fed97-5866-470c-a388-43467ae18247{isolation:isolate;}.uuid-e1cafbd2-898e-4e3c-9f42-44b238ee012d,.uuid-2bbb9283-8d61-49f6-a840-77268d9ef70a{fill:#ffcd34;}.uuid-2935d5ad-fadd-4293-a049-56e5efd59c76,.uuid-defe8726-c690-4e33-a56d-4434ce3b09a0{fill:#e53598;}.uuid-0a98c034-6462-4b11-9f24-19510b7a1b5d,.uuid-d1ddc962-7487-49cb-8bff-6e0615eb1107{fill:#00718b;stroke:#00718b;}.uuid-130fed97-5866-470c-a388-43467ae18247{font-family:KumbhSans-Medium, 'Kumbh Sans';font-size:18px;font-variation-settings:'YOPQ' 300, 'wght' 500;font-weight:500;}.uuid-e6acbb3f-8730-442c-add9-bbf9f65f0261,.uuid-9ec552ed-63c8-48e9-871c-3ff724b7964d{fill:#06499a;}.uuid-2bbb9283-8d61-49f6-a840-77268d9ef70a{stroke:#ffc831;}.uuid-076d1970-8e80-455b-9f31-fba181c23e06,.uuid-15fb2f42-31ec-4de8-b8dc-223beb7cf1f8{fill:#324a36;}.uuid-15fb2f42-31ec-4de8-b8dc-223beb7cf1f8{stroke:#324a36;stroke-width:3px;}.uuid-40876ae6-651e-442b-9149-eb9383b5961e,.uuid-b98789ef-623f-4a32-aa12-4606caf01a46{fill:#2ca02c;}.uuid-d1ddc962-7487-49cb-8bff-6e0615eb1107{stroke-miterlimit:10;stroke-width:4px;}.uuid-b98789ef-623f-4a32-aa12-4606caf01a46{stroke:#2ca02c;}.uuid-c7ce324d-e824-447c-8ec1-dc6d582e6dea{stroke:#9962d8;}.uuid-c7ce324d-e824-447c-8ec1-dc6d582e6dea,.uuid-658ee83d-2dcd-4a82-973e-aaac4a53d638{fill:#9962d8;}.uuid-04144c7a-cc03-46d8-b519-f637d829bd78{letter-spacing:-.01em;}.uuid-15e3b382-1fdf-4263-b214-ef837a556333{letter-spacing:-.03em;}.uuid-3b070dbd-78c2-4c19-ab64-7622a5740980{letter-spacing:0em;}.uuid-15a3d89f-946f-4aa4-a812-6e071ebba396{letter-spacing:0em;}</style></defs><g id="uuid-43039f4f-f907-4632-8c79-8ba6ac22d7a5"><path id="uuid-041bebda-8688-4f7c-bf43-3156cdd567ba" class="uuid-d1ddc962-7487-49cb-8bff-6e0615eb1107" d="M110.23,418.67c-37.06,0-67.1-30.03-67.11-67.09,0-37.06,30.03-67.1,67.09-67.11h.02c37.06,0,67.1,30.03,67.11,67.09,0,37.06-30.03,67.1-67.09,67.11h-.02Z"/><text class="uuid-130fed97-5866-470c-a388-43467ae18247" transform="translate(17.76 293.88)"><tspan x="0" y="0">anger</tspan></text><path id="uuid-194d4a5b-8200-49c0-b8a6-20a4f1173770" class="uuid-0a98c034-6462-4b11-9f24-19510b7a1b5d" d="M66.87,348.61c-5.02,0-9.09-4.07-9.09-9.09s4.07-9.09,9.09-9.09,9.09,4.07,9.09,9.09-4.07,9.09-9.09,9.09Z"/><path id="uuid-164298bc-a3cd-4a9e-a93a-6d22960e4b3b" class="uuid-0a98c034-6462-4b11-9f24-19510b7a1b5d" d="M99.69,325.12c-5.02,0-9.09-4.07-9.09-9.09s4.07-9.09,9.09-9.09,9.09,4.07,9.09,9.09-4.07,9.09-9.09,9.09Z"/><path id="uuid-f730b74d-0661-4f2c-9d58-31c686604477" class="uuid-0a98c034-6462-4b11-9f24-19510b7a1b5d" d="M75.96,391.74c-5.02,0-9.09-4.07-9.09-9.09s4.07-9.09,9.09-9.09,9.09,4.07,9.09,9.09-4.07,9.09-9.09,9.09Z"/><path id="uuid-568708f7-0eda-46b7-818e-69e0efd3986d" class="uuid-0a98c034-6462-4b11-9f24-19510b7a1b5d" d="M143.71,332.58c-5.02,0-9.09-4.07-9.09-9.09s4.07-9.09,9.09-9.09,9.09,4.07,9.09,9.09-4.07,9.09-9.09,9.09Z"/><path id="uuid-dc24eeda-477d-49c0-8658-b8cb6761f1e9" class="uuid-0a98c034-6462-4b11-9f24-19510b7a1b5d" d="M103.07,358.94c-5.02,0-9.09-4.07-9.09-9.09s4.07-9.09,9.09-9.09,9.09,4.07,9.09,9.09-4.07,9.09-9.09,9.09Z"/><path id="uuid-c00db8cc-174b-4421-a910-97a4fb2f5e77" class="uuid-0a98c034-6462-4b11-9f24-19510b7a1b5d" d="M151.04,367.92c-5.02,0-9.09-4.07-9.09-9.09s4.07-9.09,9.09-9.09,9.09,4.07,9.09,9.09-4.07,9.09-9.09,9.09Z"/><path id="uuid-447e5b95-16f6-4f51-ba6e-c115b3db71b7" class="uuid-0a98c034-6462-4b11-9f24-19510b7a1b5d" d="M122.31,401.46c-8.61,0-15.6-6.98-15.6-15.6s6.98-15.6,15.6-15.6,15.6,6.98,15.6,15.6-6.98,15.6-15.6,15.6Z"/><path id="uuid-8fb4aaf3-8f4f-4291-8f01-e1f677c9c07d" class="uuid-0becd201-a126-4d56-b633-d2f156eb1576" d="M316.29,399.12c-90.32,0-163.54-73.22-163.54-163.54s73.22-163.54,163.54-163.54,163.54,73.22,163.54,163.54-73.22,163.54-163.54,163.54Z"/><path id="uuid-8dcba6a3-8f85-4407-8bbe-8ca6fba42bf3" class="uuid-cc2fb528-c3ef-40db-89c9-fe7f74372af9" d="M205.85,163.66c-4.92,0-8.91-3.99-8.91-8.9s3.99-8.91,8.9-8.91h0c4.92,0,8.91,3.99,8.91,8.9s-3.99,8.91-8.9,8.91h0Z"/><path id="uuid-132635c1-b1c9-42b7-9403-e55061110d37" class="uuid-cc2fb528-c3ef-40db-89c9-fe7f74372af9" d="M373.57,231.76c-8.61,0-15.6-6.98-15.6-15.6s6.98-15.6,15.6-15.6,15.6,6.98,15.6,15.6-6.98,15.6-15.6,15.6Z"/><path id="uuid-8e9c85f9-fdfa-4a53-9359-e958a19ddccb" class="uuid-cc2fb528-c3ef-40db-89c9-fe7f74372af9" d="M226.1,312.36c-16.1,0-29.16-13.05-29.16-29.16s13.05-29.16,29.16-29.16,29.16,13.05,29.16,29.16-13.05,29.16-29.16,29.16Z"/><path id="uuid-f046ce42-7160-4990-b720-af441bb2b2f0" class="uuid-cc2fb528-c3ef-40db-89c9-fe7f74372af9" d="M297.62,376.87c-18.79,0-34.03-15.24-34.03-34.03s15.24-34.03,34.03-34.03,34.03,15.24,34.03,34.03-15.24,34.03-34.03,34.03Z"/><path id="uuid-66ff65a6-4b97-4417-b207-1180d96208e0" class="uuid-cc2fb528-c3ef-40db-89c9-fe7f74372af9" d="M378.1,327.41c-21.52,0-38.97-17.45-38.97-38.97s17.45-38.97,38.97-38.97,38.97,17.45,38.97,38.97-17.45,38.97-38.97,38.97Z"/><path id="uuid-eb60fc94-39ad-4ea0-8f37-fa82ff6a3c36" class="uuid-cc2fb528-c3ef-40db-89c9-fe7f74372af9" d="M270.76,249.46c-11.69,0-21.17-9.48-21.17-21.17s9.48-21.17,21.17-21.17,21.17,9.48,21.17,21.17-9.48,21.17-21.17,21.17Z"/><path id="uuid-e91f36ee-c617-4b03-83ad-200453de9a6b" class="uuid-cc2fb528-c3ef-40db-89c9-fe7f74372af9" d="M324.19,246.42c-11.69,0-21.17-9.48-21.17-21.17s9.48-21.17,21.17-21.17,21.17,9.48,21.17,21.17-9.48,21.17-21.17,21.17Z"/><path id="uuid-3489daca-1bd1-4eba-9921-4a9262c141d2" class="uuid-cc2fb528-c3ef-40db-89c9-fe7f74372af9" d="M345.35,197.72c-8.61,0-15.6-6.98-15.6-15.6s6.98-15.6,15.6-15.6,15.6,6.98,15.6,15.6-6.98,15.6-15.6,15.6Z"/><path id="uuid-068c8938-380e-44a7-b047-80f7f15316d6" class="uuid-cc2fb528-c3ef-40db-89c9-fe7f74372af9" d="M393.69,193.44c-8.61,0-15.6-6.98-15.6-15.6s6.98-15.6,15.6-15.6,15.6,6.98,15.6,15.6-6.98,15.6-15.6,15.6Z"/><path id="uuid-b818e0e8-6f63-4c4d-a54d-456c6360dce7" class="uuid-cc2fb528-c3ef-40db-89c9-fe7f74372af9" d="M246.35,150.23c-4.92,0-8.91-3.99-8.91-8.9s3.99-8.91,8.9-8.91h0c4.92,0,8.91,3.99,8.91,8.9s-3.99,8.91-8.9,8.91h0Z"/><path id="uuid-fe1b612b-e876-4a21-baac-7de216b7c4c2" class="uuid-cc2fb528-c3ef-40db-89c9-fe7f74372af9" d="M188.94,240.66c-4.92,0-8.91-3.99-8.91-8.9s3.99-8.91,8.9-8.91h0c4.92,0,8.91,3.99,8.91,8.9s-3.99,8.91-8.9,8.91h0Z"/><path id="uuid-1d28b596-082d-42a0-91d6-6bc599096f8d" class="uuid-cc2fb528-c3ef-40db-89c9-fe7f74372af9" d="M288.71,122.95c-4.92,0-8.91-3.99-8.91-8.9s3.99-8.91,8.9-8.91h0c4.92,0,8.91,3.99,8.91,8.9s-3.99,8.91-8.9,8.91h0Z"/><path id="uuid-2ac9d512-5903-4dfb-ab9b-7783032b5102" class="uuid-cc2fb528-c3ef-40db-89c9-fe7f74372af9" d="M218.83,351.75c-4.92,0-8.91-3.99-8.91-8.9s3.99-8.91,8.9-8.91h0c4.92,0,8.91,3.99,8.91,8.9s-3.99,8.91-8.9,8.91h0Z"/><path id="uuid-2a53d176-4d1c-4370-9337-6565e234c71a" class="uuid-cc2fb528-c3ef-40db-89c9-fe7f74372af9" d="M283.02,302.65c-4.92,0-8.91-3.99-8.91-8.9s3.99-8.91,8.9-8.91h0c4.92,0,8.91,3.99,8.91,8.9s-3.99,8.91-8.9,8.91h0Z"/><path id="uuid-4360139b-23cf-4776-824f-00dbbadf255d" class="uuid-cc2fb528-c3ef-40db-89c9-fe7f74372af9" d="M354.26,376.87c-4.92,0-8.91-3.99-8.91-8.9s3.99-8.91,8.9-8.91h0c4.92,0,8.91,3.99,8.91,8.9s-3.99,8.91-8.9,8.91h0Z"/><path id="uuid-61e9e5ee-03a3-41eb-83a0-b65b776c5f21" class="uuid-cc2fb528-c3ef-40db-89c9-fe7f74372af9" d="M345.35,114.79c-4.92,0-8.91-3.99-8.91-8.9s3.99-8.91,8.9-8.91h0c4.92,0,8.91,3.99,8.91,8.9,0,4.92-3.99,8.91-8.9,8.91h0Z"/><path id="uuid-92a7d0fe-9f54-456d-a9e8-15b8bbe815d6" class="uuid-cc2fb528-c3ef-40db-89c9-fe7f74372af9" d="M237.44,195.99c-4.92,0-8.91-3.99-8.91-8.9s3.99-8.91,8.9-8.91h0c4.92,0,8.91,3.99,8.91,8.9s-3.99,8.91-8.9,8.91h0Z"/><path id="uuid-c615b871-79ac-41f5-8a03-8323eddcae06" class="uuid-cc2fb528-c3ef-40db-89c9-fe7f74372af9" d="M438.44,240.66c-4.92,0-8.91-3.99-8.91-8.9,0-4.92,3.99-8.91,8.9-8.91h0c4.92,0,8.91,3.99,8.91,8.9s-3.99,8.91-8.9,8.91h0Z"/><path id="uuid-4522f773-b87e-494d-b08f-dbb394bb1bf7" class="uuid-cc2fb528-c3ef-40db-89c9-fe7f74372af9" d="M418.2,351.75c-4.92,0-8.91-3.99-8.91-8.9s3.99-8.91,8.9-8.91h0c4.92,0,8.91,3.99,8.91,8.9s-3.99,8.91-8.9,8.91h0Z"/><path id="uuid-9a99bfac-9019-4e49-b41c-6c52aba1bf81" class="uuid-cc2fb528-c3ef-40db-89c9-fe7f74372af9" d="M291.93,191.03c-4.92,0-8.91-3.99-8.91-8.9,0-4.92,3.99-8.91,8.9-8.91h0c4.92,0,8.91,3.99,8.91,8.9s-3.99,8.91-8.9,8.91h0Z"/><path id="uuid-47b68b54-d65a-46aa-9efe-acf7cc343910" class="uuid-cc2fb528-c3ef-40db-89c9-fe7f74372af9" d="M331.65,154.57c-4.92,0-8.91-3.99-8.91-8.9,0-4.92,3.99-8.91,8.9-8.91h0c4.92,0,8.91,3.99,8.91,8.9s-3.99,8.91-8.9,8.91h0Z"/><path id="uuid-3ec559c8-ef99-4617-882c-81715664e6b7" class="uuid-cc2fb528-c3ef-40db-89c9-fe7f74372af9" d="M402.6,132.05c-4.92,0-8.91-3.99-8.91-8.9s3.99-8.91,8.9-8.91h0c4.92,0,8.91,3.99,8.91,8.9,0,4.92-3.99,8.91-8.9,8.91h0Z"/><text class="uuid-130fed97-5866-470c-a388-43467ae18247" transform="translate(265.96 66.66)"><tspan x="0" y="0">a</tspan><tspan class="uuid-15a3d89f-946f-4aa4-a812-6e071ebba396" x="9.69" y="0">n</tspan><tspan class="uuid-04144c7a-cc03-46d8-b519-f637d829bd78" x="20.29" y="0">t</tspan><tspan x="27.25" y="0">icip</tspan><tspan class="uuid-04144c7a-cc03-46d8-b519-f637d829bd78" x="56.62" y="0">at</tspan><tspan x="73.01" y="0">ion</tspan></text><path id="uuid-689d933e-481d-4b45-9cd6-ca528c4895b5" class="uuid-b98789ef-623f-4a32-aa12-4606caf01a46" d="M462.46,120.08c-25.71,0-46.55-20.84-46.55-46.55s20.84-46.55,46.55-46.55,46.55,20.84,46.55,46.55-20.84,46.55-46.55,46.55Z"/><path id="uuid-28be541a-d516-4e73-aec1-6523a5d8b05b" class="uuid-40876ae6-651e-442b-9149-eb9383b5961e" d="M439.52,73.53c-5.02,0-9.09-4.07-9.09-9.09s4.07-9.09,9.09-9.09,9.09,4.07,9.09,9.09-4.07,9.09-9.09,9.09Z"/><path id="uuid-ee7e44ad-9a89-4e04-8c11-ebe8f1d5e0c5" class="uuid-40876ae6-651e-442b-9149-eb9383b5961e" d="M448.22,102.89c-5.02,0-9.09-4.07-9.09-9.09s4.07-9.09,9.09-9.09,9.09,4.07,9.09,9.09-4.07,9.09-9.09,9.09Z"/><path id="uuid-7ed70eb2-ad58-4b45-aa47-3909ccc26707" class="uuid-40876ae6-651e-442b-9149-eb9383b5961e" d="M464.95,59.5c-5.02,0-9.09-4.07-9.09-9.09s4.07-9.09,9.09-9.09,9.09,4.07,9.09,9.09-4.07,9.09-9.09,9.09Z"/><path id="uuid-198f78c6-c9f8-419e-8e48-7ef8d0904b01" class="uuid-40876ae6-651e-442b-9149-eb9383b5961e" d="M474.04,99.56c-5.02,0-9.09-4.07-9.09-9.09s4.07-9.09,9.09-9.09,9.09,4.07,9.09,9.09-4.07,9.09-9.09,9.09Z"/><path id="uuid-c2db2b7f-e7d8-475f-8b2d-2422396bc7c8" class="uuid-40876ae6-651e-442b-9149-eb9383b5961e" d="M492.87,82.44c-5.02,0-9.09-4.07-9.09-9.09s4.07-9.09,9.09-9.09,9.09,4.07,9.09,9.09-4.07,9.09-9.09,9.09Z"/><text class="uuid-130fed97-5866-470c-a388-43467ae18247" transform="translate(439.51 19.49)"><tspan x="0" y="0">disgu</tspan><tspan class="uuid-3b070dbd-78c2-4c19-ab64-7622a5740980" x="45.19" y="0">s</tspan><tspan x="52.82" y="0">t</tspan></text><path id="uuid-33454c41-e795-45f5-b5ee-b72c12818cc8" class="uuid-e6acbb3f-8730-442c-add9-bbf9f65f0261" d="M226.1,578.08c-52.8,0-95.61-42.81-95.61-95.61s42.81-95.61,95.61-95.61,95.61,42.81,95.61,95.61-42.81,95.61-95.61,95.61Z"/><path id="uuid-e3e6b07b-0acb-4409-b65c-36f796f4ed7e" class="uuid-9ec552ed-63c8-48e9-871c-3ff724b7964d" d="M229.29,521.48c-11.69,0-21.17-9.48-21.17-21.17s9.48-21.17,21.17-21.17,21.17,9.48,21.17,21.17-9.48,21.17-21.17,21.17Z"/><path id="uuid-e6372c5b-ca65-4fa0-9184-60c0e161ba7c" class="uuid-9ec552ed-63c8-48e9-871c-3ff724b7964d" d="M250.46,471.01c-8.61,0-15.6-6.98-15.6-15.6s6.98-15.6,15.6-15.6,15.6,6.98,15.6,15.6-6.98,15.6-15.6,15.6Z"/><path id="uuid-e9c45cb4-68fd-4cb7-a876-e7f3b4bd44c4" class="uuid-9ec552ed-63c8-48e9-871c-3ff724b7964d" d="M197.4,528.83c-4.92,0-8.91-3.99-8.91-8.9,0-4.92,3.99-8.91,8.9-8.91h0c4.92,0,8.91,3.99,8.91,8.9s-3.99,8.91-8.9,8.91h0Z"/><path id="uuid-638ae482-2706-497c-a3a8-0a52f279b2b6" class="uuid-9ec552ed-63c8-48e9-871c-3ff724b7964d" d="M268.35,553.31c-4.92,0-8.91-3.99-8.91-8.9s3.99-8.91,8.9-8.91h0c4.92,0,8.91,3.99,8.91,8.9s-3.99,8.91-8.9,8.91h0Z"/><path id="uuid-24abfe2c-844f-46ef-b772-0638c470863a" class="uuid-9ec552ed-63c8-48e9-871c-3ff724b7964d" d="M157.68,518.12c-4.92,0-8.91-3.99-8.91-8.9s3.99-8.91,8.9-8.91h0c4.92,0,8.91,3.99,8.91,8.9,0,4.92-3.99,8.91-8.9,8.91h0Z"/><path id="uuid-328d6084-9309-4727-8829-dfd1a7b52e10" class="uuid-9ec552ed-63c8-48e9-871c-3ff724b7964d" d="M206.31,455.41c-4.92,0-8.91-3.99-8.91-8.9s3.99-8.91,8.9-8.91h0c4.92,0,8.91,3.99,8.91,8.9,0,4.92-3.99,8.91-8.9,8.91h0Z"/><path id="uuid-adfa0707-3a73-48c9-803d-09d781a499aa" class="uuid-9ec552ed-63c8-48e9-871c-3ff724b7964d" d="M283.95,473.56c-4.92,0-8.91-3.99-8.91-8.9s3.99-8.91,8.9-8.91h0c4.92,0,8.91,3.99,8.91,8.9,0,4.92-3.99,8.91-8.9,8.91h0Z"/><path id="uuid-411f54c2-aaaf-4222-9065-812b64b97b51" class="uuid-9ec552ed-63c8-48e9-871c-3ff724b7964d" d="M283.95,512.16c-4.92,0-8.91-3.99-8.91-8.9s3.99-8.91,8.9-8.91h0c4.92,0,8.91,3.99,8.91,8.9s-3.99,8.91-8.9,8.91h0Z"/><path id="uuid-de529ff0-1858-4d22-ae32-b70ed8fded07" class="uuid-9ec552ed-63c8-48e9-871c-3ff724b7964d" d="M168.77,464.32c-4.92,0-8.91-3.99-8.91-8.9s3.99-8.91,8.9-8.91h0c4.92,0,8.91,3.99,8.91,8.9s-3.99,8.91-8.9,8.91h0Z"/><path id="uuid-2f300b35-35a6-4b4b-b689-19937f06bfda" class="uuid-9ec552ed-63c8-48e9-871c-3ff724b7964d" d="M241.42,418.69c-4.92,0-8.91-3.99-8.91-8.9,0-4.92,3.99-8.91,8.9-8.91h0c4.92,0,8.91,3.99,8.91,8.9,0,4.92-3.99,8.91-8.9,8.91h0Z"/><path id="uuid-62179930-7073-4def-ab50-f0f455235587" class="uuid-9ec552ed-63c8-48e9-871c-3ff724b7964d" d="M234.86,563.02c-4.92,0-8.91-3.99-8.91-8.9s3.99-8.91,8.9-8.91h0c4.92,0,8.91,3.99,8.91,8.9,0,4.92-3.99,8.91-8.9,8.91h0Z"/><path id="uuid-7739c558-94b6-4eba-bb1b-b5e3d697ffcc" class="uuid-9ec552ed-63c8-48e9-871c-3ff724b7964d" d="M195.51,422.22c-4.92,0-8.91-3.99-8.91-8.9s3.99-8.91,8.9-8.91h0c4.92,0,8.91,3.99,8.91,8.9s-3.99,8.91-8.9,8.91h0Z"/><text class="uuid-130fed97-5866-470c-a388-43467ae18247" transform="translate(182.19 382.22)"><tspan class="uuid-15e3b382-1fdf-4263-b214-ef837a556333" x="0" y="0">f</tspan><tspan x="7" y="0">ear</tspan></text><path id="uuid-fd93bf0f-ae9f-498e-b85e-293d357d0ffb" class="uuid-defe8726-c690-4e33-a56d-4434ce3b09a0" d="M679.94,646.82c-68.89.01-124.75-55.82-124.76-124.71-.01-68.89,55.82-124.75,124.71-124.76h.04c68.89-.01,124.75,55.82,124.76,124.71.01,68.89-55.82,124.75-124.71,124.76h-.04Z"/><path id="uuid-0bcb6af3-8207-481e-8bcb-737fc7b3524c" class="uuid-2935d5ad-fadd-4293-a049-56e5efd59c76" d="M669.58,517.55c-18.79,0-34.03-15.24-34.03-34.03s15.24-34.03,34.03-34.03,34.03,15.24,34.03,34.03-15.24,34.03-34.03,34.03Z"/><path id="uuid-9437d134-e960-4aa4-87c9-dd034a7730d7" class="uuid-2935d5ad-fadd-4293-a049-56e5efd59c76" d="M604.03,565.83c-16.18,0-29.29-13.12-29.29-29.29s13.12-29.29,29.29-29.29,29.29,13.12,29.29,29.29-13.12,29.29-29.29,29.29Z"/><path id="uuid-dc118c10-9227-4f1f-9e94-089cf5c3d1db" class="uuid-2935d5ad-fadd-4293-a049-56e5efd59c76" d="M747.54,578.09c-11.69,0-21.17-9.48-21.17-21.17s9.48-21.17,21.17-21.17,21.17,9.48,21.17,21.17-9.48,21.17-21.17,21.17Z"/><path id="uuid-ac9ad63f-c2d9-452e-924e-dceabfcd03d0" class="uuid-2935d5ad-fadd-4293-a049-56e5efd59c76" d="M735.73,467.75c-8.61,0-15.6-6.98-15.6-15.6s6.98-15.6,15.6-15.6,15.6,6.98,15.6,15.6-6.98,15.6-15.6,15.6Z"/><path id="uuid-bc5c9bde-a481-4e0b-b695-54e0a8ab57f6" class="uuid-2935d5ad-fadd-4293-a049-56e5efd59c76" d="M768.92,488.1c-8.61,0-15.6-6.98-15.6-15.6s6.98-15.6,15.6-15.6,15.6,6.98,15.6,15.6-6.98,15.6-15.6,15.6Z"/><path id="uuid-a836ac92-15cb-4860-875c-117182cce41d" class="uuid-2935d5ad-fadd-4293-a049-56e5efd59c76" d="M739.76,505.91c-4.92,0-8.91-3.99-8.91-8.9s3.99-8.91,8.9-8.91h0c4.92,0,8.91,3.99,8.91,8.9s-3.99,8.91-8.9,8.91h0Z"/><path id="uuid-976f5655-4ed7-4283-9f6d-b38b4fbb6749" class="uuid-2935d5ad-fadd-4293-a049-56e5efd59c76" d="M633.32,614.32c-4.92,0-8.91-3.99-8.91-8.9s3.99-8.91,8.9-8.91h0c4.92,0,8.91,3.99,8.91,8.9s-3.99,8.91-8.9,8.91h0Z"/><path id="uuid-51e1445f-c329-4a36-b158-b72ef0958d5f" class="uuid-2935d5ad-fadd-4293-a049-56e5efd59c76" d="M673.69,605.42c-4.92,0-8.91-3.99-8.91-8.9s3.99-8.91,8.9-8.91h0c4.92,0,8.91,3.99,8.91,8.9s-3.99,8.91-8.9,8.91h0Z"/><path id="uuid-7f4f8ad4-8947-4be6-85ac-4c6c2f3c3e83" class="uuid-2935d5ad-fadd-4293-a049-56e5efd59c76" d="M612.94,481.41c-4.92,0-8.91-3.99-8.91-8.9s3.99-8.91,8.9-8.91h0c4.92,0,8.91,3.99,8.91,8.9s-3.99,8.91-8.9,8.91h0Z"/><path id="uuid-8461be48-b7d7-48d8-a548-bf1425f45a37" class="uuid-2935d5ad-fadd-4293-a049-56e5efd59c76" d="M653.99,441.82c-4.92,0-8.91-3.99-8.91-8.9s3.99-8.91,8.9-8.91h0c4.92,0,8.91,3.99,8.91,8.9s-3.99,8.91-8.9,8.91h0Z"/><path id="uuid-f8b144f6-00e2-4f21-a87b-823b0e1dc93d" class="uuid-2935d5ad-fadd-4293-a049-56e5efd59c76" d="M612.94,601.14c-4.92,0-8.91-3.99-8.91-8.9s3.99-8.91,8.9-8.91h0c4.92,0,8.91,3.99,8.91,8.9s-3.99,8.91-8.9,8.91h0Z"/><path id="uuid-824ec99a-5216-4712-aaa5-4f3eddc964f7" class="uuid-2935d5ad-fadd-4293-a049-56e5efd59c76" d="M671.03,556.92c-4.92,0-8.91-3.99-8.91-8.9s3.99-8.91,8.9-8.91h0c4.92,0,8.91,3.99,8.91,8.9s-3.99,8.91-8.9,8.91h0Z"/><path id="uuid-5c4fd552-f403-4a31-b4b9-ee12c061e7de" class="uuid-2935d5ad-fadd-4293-a049-56e5efd59c76" d="M697.8,432.91c-4.92,0-8.91-3.99-8.91-8.9s3.99-8.91,8.9-8.91h0c4.92,0,8.91,3.99,8.91,8.9s-3.99,8.91-8.9,8.91h0Z"/><path id="uuid-5a004743-4912-46ee-a091-4371c1ab06e9" class="uuid-2935d5ad-fadd-4293-a049-56e5efd59c76" d="M717.92,522.08c-4.92,0-8.91-3.99-8.91-8.9s3.99-8.91,8.9-8.91h0c4.92,0,8.91,3.99,8.91,8.9s-3.99,8.91-8.9,8.91h0Z"/><path id="uuid-3d4e052a-27fa-41eb-a1df-2d327766c0f1" class="uuid-2935d5ad-fadd-4293-a049-56e5efd59c76" d="M775.37,526.46c-4.92,0-8.91-3.99-8.91-8.9s3.99-8.91,8.9-8.91h0c4.92,0,8.91,3.99,8.91,8.9s-3.99,8.91-8.9,8.91h0Z"/><path id="uuid-d58a957f-613d-42e7-96b1-4f3a88b478f5" class="uuid-2935d5ad-fadd-4293-a049-56e5efd59c76" d="M715.62,610.67c-4.92,0-8.91-3.99-8.91-8.9s3.99-8.91,8.9-8.91h0c4.92,0,8.91,3.99,8.91,8.9s-3.99,8.91-8.9,8.91h0Z"/><path id="uuid-fc750947-c063-4333-be30-d2d85706dabb" class="uuid-2935d5ad-fadd-4293-a049-56e5efd59c76" d="M702.32,565.83c-4.92,0-8.91-3.99-8.91-8.9s3.99-8.91,8.9-8.91h0c4.92,0,8.91,3.99,8.91,8.9s-3.99,8.91-8.9,8.91h0Z"/><path id="uuid-22888b9c-26d4-41dc-9788-a55403963082" class="uuid-2935d5ad-fadd-4293-a049-56e5efd59c76" d="M648.41,577.41c-4.92,0-8.91-3.99-8.91-8.9s3.99-8.91,8.9-8.91h0c4.92,0,8.91,3.99,8.91,8.9s-3.99,8.91-8.9,8.91h0Z"/><text class="uuid-130fed97-5866-470c-a388-43467ae18247" transform="translate(748.39 409.66)"><tspan x="0" y="0">j</tspan><tspan class="uuid-04144c7a-cc03-46d8-b519-f637d829bd78" x="4.46" y="0">o</tspan><tspan x="14.7" y="0">y</tspan></text><path id="uuid-1ee88d02-d9d4-4c43-9bf8-68493dd93235" class="uuid-15fb2f42-31ec-4de8-b8dc-223beb7cf1f8" d="M438.44,621.11c-59.81,0-108.3-48.49-108.3-108.3s48.49-108.3,108.3-108.3,108.3,48.49,108.3,108.3-48.49,108.3-108.3,108.3Z"/><path id="uuid-c228389b-c51d-48aa-be3e-5c047fc32855" class="uuid-076d1970-8e80-455b-9f31-fba181c23e06" d="M466.54,525.11c-21.52,0-38.97-17.45-38.97-38.97s17.45-38.97,38.97-38.97,38.97,17.45,38.97,38.97-17.45,38.97-38.97,38.97Z"/><path id="uuid-7de204d5-8460-4563-8165-a09c2b7255fa" class="uuid-076d1970-8e80-455b-9f31-fba181c23e06" d="M382.07,537.94c-18.79,0-34.03-15.24-34.03-34.03s15.24-34.03,34.03-34.03,34.03,15.24,34.03,34.03-15.24,34.03-34.03,34.03Z"/><path id="uuid-18ad054c-acb3-49c2-9fb9-2bb162e2dccf" class="uuid-076d1970-8e80-455b-9f31-fba181c23e06" d="M403.24,587.94c-11.69,0-21.17-9.48-21.17-21.17s9.48-21.17,21.17-21.17,21.17,9.48,21.17,21.17-9.48,21.17-21.17,21.17Z"/><path id="uuid-c7364c50-58b7-4eb9-b80e-d7964c84deeb" class="uuid-076d1970-8e80-455b-9f31-fba181c23e06" d="M462.27,573.46c-8.61,0-15.6-6.98-15.6-15.6s6.98-15.6,15.6-15.6,15.6,6.98,15.6,15.6-6.98,15.6-15.6,15.6Z"/><path id="uuid-ce76accf-9621-48e6-bace-2af49614d256" class="uuid-076d1970-8e80-455b-9f31-fba181c23e06" d="M370.89,462.22c-4.92,0-8.91-3.99-8.91-8.9s3.99-8.91,8.9-8.91h0c4.92,0,8.91,3.99,8.91,8.9s-3.99,8.91-8.9,8.91h0Z"/><path id="uuid-7af07d96-9655-4a89-bfd4-a8d2ef94c3d0" class="uuid-076d1970-8e80-455b-9f31-fba181c23e06" d="M416.1,459.05c-4.92,0-8.91-3.99-8.91-8.9s3.99-8.91,8.9-8.91h0c4.92,0,8.91,3.99,8.91,8.9s-3.99,8.91-8.9,8.91h0Z"/><path id="uuid-553c0949-e482-4558-a169-9ce13839eed8" class="uuid-076d1970-8e80-455b-9f31-fba181c23e06" d="M444.45,437.18c-4.92,0-8.91-3.99-8.91-8.9s3.99-8.91,8.9-8.91h0c4.92,0,8.91,3.99,8.91,8.9,0,4.92-3.99,8.91-8.9,8.91h0Z"/><path id="uuid-aeefffc2-c0a7-40cc-b980-4308c3ce239c" class="uuid-076d1970-8e80-455b-9f31-fba181c23e06" d="M435.54,548.85c-4.92,0-8.91-3.99-8.91-8.9s3.99-8.91,8.9-8.91h0c4.92,0,8.91,3.99,8.91,8.9s-3.99,8.91-8.9,8.91h0Z"/><path id="uuid-e2dcd7e8-0c28-4d5f-801f-a194a6bed4ef" class="uuid-076d1970-8e80-455b-9f31-fba181c23e06" d="M444.45,593.88c-4.92,0-8.91-3.99-8.91-8.9s3.99-8.91,8.9-8.91h0c4.92,0,8.91,3.99,8.91,8.9s-3.99,8.91-8.9,8.91h0Z"/><path id="uuid-eb469c9e-19d5-4a30-8aa0-a2e56d32e5cf" class="uuid-076d1970-8e80-455b-9f31-fba181c23e06" d="M501.16,547.55c-4.92,0-8.91-3.99-8.91-8.9s3.99-8.91,8.9-8.91h0c4.92,0,8.91,3.99,8.91,8.9s-3.99,8.91-8.9,8.91h0Z"/><path id="uuid-3c1da279-5eb9-4327-ba97-4e9bdab17fdc" class="uuid-076d1970-8e80-455b-9f31-fba181c23e06" d="M523.67,512.82c-4.92,0-8.91-3.99-8.91-8.9s3.99-8.91,8.9-8.91h0c4.92,0,8.91,3.99,8.91,8.9s-3.99,8.91-8.9,8.91h0Z"/><path id="uuid-bc432855-ac21-4511-a763-42dced2a37ad" class="uuid-076d1970-8e80-455b-9f31-fba181c23e06" d="M492.25,593.88c-4.92,0-8.91-3.99-8.91-8.9s3.99-8.91,8.9-8.91h0c4.92,0,8.91,3.99,8.91,8.9s-3.99,8.91-8.9,8.91h0Z"/><text class="uuid-130fed97-5866-470c-a388-43467ae18247" transform="translate(387.71 395.1)"><tspan x="0" y="0">sadness</tspan></text><path id="uuid-016fd965-a2e4-4876-99ec-404a170f6ffd" class="uuid-c7ce324d-e824-447c-8ec1-dc6d582e6dea" d="M73.84,275.11C33.34,275.11.5,242.28.5,201.77s32.84-73.34,73.34-73.34,73.34,32.84,73.34,73.34-32.84,73.34-73.34,73.34Z"/><path id="uuid-ac477bfd-e16c-4d50-9302-ea8b1c4c3c77" class="uuid-658ee83d-2dcd-4a82-973e-aaac4a53d638" d="M77.66,261.51c-21.52,0-38.97-17.45-38.97-38.97s17.45-38.97,38.97-38.97,38.97,17.45,38.97,38.97-17.45,38.97-38.97,38.97Z"/><path id="uuid-46da63d8-00d2-41cb-a7c6-32832297f7ea" class="uuid-658ee83d-2dcd-4a82-973e-aaac4a53d638" d="M27.7,199.56c-8.61,0-15.6-6.98-15.6-15.6s6.98-15.6,15.6-15.6,15.6,6.98,15.6,15.6-6.98,15.6-15.6,15.6Z"/><path id="uuid-64a612d9-380b-41aa-ac7b-87ad270614bc" class="uuid-658ee83d-2dcd-4a82-973e-aaac4a53d638" d="M125.54,207.52c-4.92,0-8.91-3.99-8.91-8.9,0-4.92,3.99-8.91,8.9-8.91h0c4.92,0,8.91,3.99,8.91,8.9s-3.99,8.91-8.9,8.91h0Z"/><path id="uuid-82b70281-06b4-4100-b71a-a765b096a69c" class="uuid-658ee83d-2dcd-4a82-973e-aaac4a53d638" d="M52.2,157.22c-4.92,0-8.91-3.99-8.91-8.9,0-4.92,3.99-8.91,8.9-8.91h0c4.92,0,8.91,3.99,8.91,8.9s-3.99,8.91-8.9,8.91h0Z"/><path id="uuid-67a9cc46-160e-4a67-875b-34828ab1e720" class="uuid-658ee83d-2dcd-4a82-973e-aaac4a53d638" d="M95.48,177.27c-4.92,0-8.91-3.99-8.91-8.9,0-4.92,3.99-8.91,8.9-8.91h0c4.92,0,8.91,3.99,8.91,8.9s-3.99,8.91-8.9,8.91h0Z"/><path id="uuid-86d1a770-8a7f-4259-8467-b4fcee983473" class="uuid-658ee83d-2dcd-4a82-973e-aaac4a53d638" d="M64.93,177.27c-4.92,0-8.91-3.99-8.91-8.9,0-4.92,3.99-8.91,8.9-8.91h0c4.92,0,8.91,3.99,8.91,8.9s-3.99,8.91-8.9,8.91h0Z"/><text class="uuid-130fed97-5866-470c-a388-43467ae18247" transform="translate(15.83 122.54)"><tspan x="0" y="0">surprise</tspan></text><path id="uuid-a112a2e8-6d36-4304-a00a-701e39cb248b" class="uuid-2bbb9283-8d61-49f6-a840-77268d9ef70a" d="M667.98,391.88c-100.84,0-182.58-81.74-182.58-182.58S567.14,26.72,667.98,26.72s182.58,81.74,182.58,182.58-81.74,182.58-182.58,182.58Z"/><path id="uuid-99af7761-7660-4729-a357-761aa3dfdeac" class="uuid-e1cafbd2-898e-4e3c-9f42-44b238ee012d" d="M588.44,287.97c-21.52,0-38.97-17.45-38.97-38.97s17.45-38.97,38.97-38.97,38.97,17.45,38.97,38.97-17.45,38.97-38.97,38.97Z"/><path id="uuid-8a4b2414-9eaf-4089-858b-8a40c838a09d" class="uuid-e1cafbd2-898e-4e3c-9f42-44b238ee012d" d="M678.21,303.04c-21.52,0-38.97-17.45-38.97-38.97s17.45-38.97,38.97-38.97,38.97,17.45,38.97,38.97-17.45,38.97-38.97,38.97Z"/><path id="uuid-45b61539-a9b5-4dca-86b9-b48a50240e8b" class="uuid-e1cafbd2-898e-4e3c-9f42-44b238ee012d" d="M762.59,283.03c-18.79,0-34.03-15.24-34.03-34.03s15.24-34.03,34.03-34.03,34.03,15.24,34.03,34.03-15.24,34.03-34.03,34.03Z"/><path id="uuid-8a4504df-68dd-40e0-bfb1-006dde49125e" class="uuid-e1cafbd2-898e-4e3c-9f42-44b238ee012d" d="M728.56,209.67c-16.1,0-29.16-13.05-29.16-29.16s13.05-29.16,29.16-29.16,29.16,13.05,29.16,29.16-13.05,29.16-29.16,29.16Z"/><path id="uuid-85295580-d336-4987-be18-bf8d700ea17c" class="uuid-e1cafbd2-898e-4e3c-9f42-44b238ee012d" d="M665.41,177.29c-14.38,0-26.04-11.66-26.04-26.04s11.66-26.04,26.04-26.04,26.04,11.66,26.04,26.04-11.66,26.04-26.04,26.04Z"/><path id="uuid-04e23a3b-3374-4158-b79e-9107a9924e19" class="uuid-e1cafbd2-898e-4e3c-9f42-44b238ee012d" d="M614.49,150.59c-14.38,0-26.04-11.66-26.04-26.04s11.66-26.04,26.04-26.04,26.04,11.66,26.04,26.04-11.66,26.04-26.04,26.04Z"/><path id="uuid-0ac54e1c-a9eb-41e1-8676-69e9fb3df091" class="uuid-e1cafbd2-898e-4e3c-9f42-44b238ee012d" d="M707.39,142.95c-11.69,0-21.17-9.48-21.17-21.17s9.48-21.17,21.17-21.17,21.17,9.48,21.17,21.17-9.48,21.17-21.17,21.17Z"/><path id="uuid-2636f35c-3825-4af9-962b-c7caa13116af" class="uuid-e1cafbd2-898e-4e3c-9f42-44b238ee012d" d="M693.81,98.74c-8.61,0-15.6-6.98-15.6-15.6s6.98-15.6,15.6-15.6,15.6,6.98,15.6,15.6-6.98,15.6-15.6,15.6Z"/><path id="uuid-6e22372a-1846-47ca-97a7-dce66b86241e" class="uuid-e1cafbd2-898e-4e3c-9f42-44b238ee012d" d="M618.05,192.89c-8.61,0-15.6-6.98-15.6-15.6s6.98-15.6,15.6-15.6,15.6,6.98,15.6,15.6-6.98,15.6-15.6,15.6Z"/><path id="uuid-a2e8e5c3-ab88-45b4-aa83-6d2e5048da7f" class="uuid-e1cafbd2-898e-4e3c-9f42-44b238ee012d" d="M652.38,221.22c-8.61,0-15.6-6.98-15.6-15.6s6.98-15.6,15.6-15.6,15.6,6.98,15.6,15.6-6.98,15.6-15.6,15.6Z"/><path id="uuid-63a88e0b-c017-42a8-aa53-0f5c4f11cdc3" class="uuid-e1cafbd2-898e-4e3c-9f42-44b238ee012d" d="M652.38,109.89c-8.61,0-15.6-6.98-15.6-15.6s6.98-15.6,15.6-15.6,15.6,6.98,15.6,15.6-6.98,15.6-15.6,15.6Z"/><path id="uuid-0653c80f-47f2-4df1-a2f3-331de069ffab" class="uuid-e1cafbd2-898e-4e3c-9f42-44b238ee012d" d="M753.25,125.61c-8.61,0-15.6-6.98-15.6-15.6s6.98-15.6,15.6-15.6,15.6,6.98,15.6,15.6-6.98,15.6-15.6,15.6Z"/><path id="uuid-e78a5238-7345-462a-97ec-77e4a63b93ac" class="uuid-e1cafbd2-898e-4e3c-9f42-44b238ee012d" d="M568.47,185.39c-14.38,0-26.04-11.66-26.04-26.04s11.66-26.04,26.04-26.04,26.04,11.66,26.04,26.04-11.66,26.04-26.04,26.04Z"/><path id="uuid-3ac415a9-d364-43d9-bd6f-33d825f9401b" class="uuid-e1cafbd2-898e-4e3c-9f42-44b238ee012d" d="M578.48,333.73c-4.92,0-8.91-3.99-8.91-8.9,0-4.92,3.99-8.91,8.9-8.91h0c4.92,0,8.91,3.99,8.91,8.9s-3.99,8.91-8.9,8.91h0Z"/><path id="uuid-8d7fa12d-55f6-4235-9c8b-e7f833af955d" class="uuid-e1cafbd2-898e-4e3c-9f42-44b238ee012d" d="M618.51,344.29c-4.92,0-8.91-3.99-8.91-8.9,0-4.92,3.99-8.91,8.9-8.91h0c4.92,0,8.91,3.99,8.91,8.9s-3.99,8.91-8.9,8.91h0Z"/><path id="uuid-5f5d73fb-6c09-4e5f-820b-f2ce8a3d2be8" class="uuid-e1cafbd2-898e-4e3c-9f42-44b238ee012d" d="M542.43,305.33c-4.92,0-8.91-3.99-8.91-8.9,0-4.92,3.99-8.91,8.9-8.91h0c4.92,0,8.91,3.99,8.91,8.9s-3.99,8.91-8.9,8.91h0Z"/><path id="uuid-1eb8510f-ac5f-4057-8756-6f801576ffcd" class="uuid-e1cafbd2-898e-4e3c-9f42-44b238ee012d" d="M728.56,74.24c-4.92,0-8.91-3.99-8.91-8.9,0-4.92,3.99-8.91,8.9-8.91h0c4.92,0,8.91,3.99,8.91,8.9s-3.99,8.91-8.9,8.91h0Z"/><path id="uuid-00b80827-ae49-4240-8ac0-16cd3e5aaaa0" class="uuid-e1cafbd2-898e-4e3c-9f42-44b238ee012d" d="M614.49,311.95c-4.92,0-8.91-3.99-8.91-8.9,0-4.92,3.99-8.91,8.9-8.91h0c4.92,0,8.91,3.99,8.91,8.9s-3.99,8.91-8.9,8.91h0Z"/><path id="uuid-4213c894-8d58-45d3-af89-0db0b5634fe2" class="uuid-e1cafbd2-898e-4e3c-9f42-44b238ee012d" d="M656.5,332.13c-4.92,0-8.91-3.99-8.91-8.9,0-4.92,3.99-8.91,8.9-8.91h0c4.92,0,8.91,3.99,8.91,8.9s-3.99,8.91-8.9,8.91h0Z"/><path id="uuid-584fc0e2-0e9d-45ba-99df-23bb2b3d9d7e" class="uuid-e1cafbd2-898e-4e3c-9f42-44b238ee012d" d="M691.45,353.2c-4.92,0-8.91-3.99-8.91-8.9,0-4.92,3.99-8.91,8.9-8.91h0c4.92,0,8.91,3.99,8.91,8.9s-3.99,8.91-8.9,8.91h0Z"/><path id="uuid-3d2e2e6b-2f10-4c4f-b758-1e8a64c01f21" class="uuid-e1cafbd2-898e-4e3c-9f42-44b238ee012d" d="M722.93,326.48c-4.92,0-8.91-3.99-8.91-8.9,0-4.92,3.99-8.91,8.9-8.91h0c4.92,0,8.91,3.99,8.91,8.9s-3.99,8.91-8.9,8.91h0Z"/><path id="uuid-abe7d670-1d67-462f-8c81-e4f58f04660d" class="uuid-e1cafbd2-898e-4e3c-9f42-44b238ee012d" d="M785.55,192.46c-4.92,0-8.91-3.99-8.91-8.9,0-4.92,3.99-8.91,8.9-8.91h0c4.92,0,8.91,3.99,8.91,8.9s-3.99,8.91-8.9,8.91h0Z"/><path id="uuid-c2073f47-9464-42eb-a74b-21b738012cff" class="uuid-e1cafbd2-898e-4e3c-9f42-44b238ee012d" d="M588.44,92.05c-4.92,0-8.91-3.99-8.91-8.9,0-4.92,3.99-8.91,8.9-8.91h0c4.92,0,8.91,3.99,8.91,8.9s-3.99,8.91-8.9,8.91h0Z"/><path id="uuid-428f8053-5943-4881-803f-846f6584184b" class="uuid-e1cafbd2-898e-4e3c-9f42-44b238ee012d" d="M771.49,155.19c-4.92,0-8.91-3.99-8.91-8.9,0-4.92,3.99-8.91,8.9-8.91h0c4.92,0,8.91,3.99,8.91,8.9s-3.99,8.91-8.9,8.91h0Z"/><path id="uuid-519f2926-43c3-47c0-9f8a-8f2b443b70ff" class="uuid-e1cafbd2-898e-4e3c-9f42-44b238ee012d" d="M753.25,315.66c-4.92,0-8.91-3.99-8.91-8.9,0-4.92,3.99-8.91,8.9-8.91h0c4.92,0,8.91,3.99,8.91,8.9s-3.99,8.91-8.9,8.91h0Z"/><path id="uuid-4e8bfe39-43ee-4c62-b2e4-b9f7148f4182" class="uuid-e1cafbd2-898e-4e3c-9f42-44b238ee012d" d="M548.12,218.93c-4.92,0-8.91-3.99-8.91-8.9,0-4.92,3.99-8.91,8.9-8.91h0c4.92,0,8.91,3.99,8.91,8.9s-3.99,8.91-8.9,8.91h0Z"/><path id="uuid-10c0f385-5b39-4f63-b017-bfcf8f2d2058" class="uuid-e1cafbd2-898e-4e3c-9f42-44b238ee012d" d="M785.55,307.49c-4.92,0-8.91-3.99-8.91-8.9,0-4.92,3.99-8.91,8.9-8.91h0c4.92,0,8.91,3.99,8.91,8.9s-3.99,8.91-8.9,8.91h0Z"/><path id="uuid-9c913ffd-6a7d-4470-bf8a-646a335bc4d0" class="uuid-e1cafbd2-898e-4e3c-9f42-44b238ee012d" d="M825.53,249c-4.92,0-8.91-3.99-8.91-8.9,0-4.92,3.99-8.91,8.9-8.91h0c4.92,0,8.91,3.99,8.91,8.9s-3.99,8.91-8.9,8.91h0Z"/><text class="uuid-130fed97-5866-470c-a388-43467ae18247" transform="translate(646.97 15.59)"><tspan class="uuid-04144c7a-cc03-46d8-b519-f637d829bd78" x="0" y="0">t</tspan><tspan x="6.96" y="0">ru</tspan><tspan class="uuid-3b070dbd-78c2-4c19-ab64-7622a5740980" x="24.9" y="0">s</tspan><tspan x="32.53" y="0">t</tspan></text><text class="uuid-de2957f0-b660-483b-9b4e-beb1b09a80ec" transform="translate(59.65 219.25)"><tspan x="0" y="0">le</tspan><tspan class="uuid-04144c7a-cc03-46d8-b519-f637d829bd78" x="11.74" y="0">av</tspan><tspan x="27.01" y="0">e</tspan></text><text class="uuid-de2957f0-b660-483b-9b4e-beb1b09a80ec" transform="translate(72.91 237.11)"><tspan x="0" y="0">8</tspan></text></g></svg>