<?xml version="1.0" encoding="UTF-8"?><svg id="uuid-7542e4c1-40ac-47f9-b464-326adb86c3bb" xmlns="http://www.w3.org/2000/svg" viewBox="0 0 851.06 646.82"><defs><style>.uuid-3cf61c7c-d8fc-4633-b0d0-4a19025db3b5{fill:#ff7f0e;}.uuid-0b002b0b-eab3-4c14-9200-e015215fb95b{fill:#f78d1e;stroke:#f7931e;}.uuid-0b002b0b-eab3-4c14-9200-e015215fb95b,.uuid-cda1d221-6af6-4b11-87fc-c9d6e971a6c0,.uuid-6f3b6e49-3208-488b-93eb-479435e7cfbd,.uuid-6f5005b8-89b3-4de9-b39f-90dbfe0aef34,.uuid-586a3687-ba74-4b63-b1b7-b79bbe4fd37f,.uuid-dc5e8add-728f-4e0a-b5f4-342d8ecefe04,.uuid-a67201af-e4a8-4ddd-a7e3-9e5f76d02df0,.uuid-765c30ea-74e4-45fd-9352-31bf86444a7f{opacity:.2;}.uuid-06b8046c-754a-4aee-b752-eb9b98100477{fill:#fff;font-family:KumbhSans-Bold, 'Kumbh Sans';font-size:14px;font-variation-settings:'YOPQ' 300, 'wght' 700;font-weight:700;}.uuid-06b8046c-754a-4aee-b752-eb9b98100477,.uuid-c8a1cbc2-4cea-4a8d-a944-6756029465fd{isolation:isolate;}.uuid-85472f01-f5b4-4acb-970f-2397b9df2c0a,.uuid-6f5005b8-89b3-4de9-b39f-90dbfe0aef34{fill:#ffcd34;}.uuid-ba7f5359-55ab-4db7-9d6f-9c164d34d352,.uuid-cda1d221-6af6-4b11-87fc-c9d6e971a6c0{fill:#e53598;}.uuid-9eb85887-1a4d-4603-86ea-bbfb279bea24,.uuid-dc5e8add-728f-4e0a-b5f4-342d8ecefe04{fill:#00718b;stroke:#00718b;}.uuid-c8a1cbc2-4cea-4a8d-a944-6756029465fd{font-family:KumbhSans-Medium, 'Kumbh Sans';font-size:18px;font-variation-settings:'YOPQ' 300, 'wght' 500;font-weight:500;}.uuid-6f3b6e49-3208-488b-93eb-479435e7cfbd,.uuid-bc2ad774-e7c1-4ad7-9190-c33bbca29e66{fill:#06499a;}.uuid-6f5005b8-89b3-4de9-b39f-90dbfe0aef34{stroke:#ffc831;}.uuid-1b395f35-088a-4315-87bd-dc3714efeb1d,.uuid-586a3687-ba74-4b63-b1b7-b79bbe4fd37f{fill:#324a36;}.uuid-586a3687-ba74-4b63-b1b7-b79bbe4fd37f{stroke:#324a36;stroke-width:3px;}.uuid-b848422a-5a99-4374-a0d1-419f67dd1299,.uuid-a67201af-e4a8-4ddd-a7e3-9e5f76d02df0{fill:#2ca02c;}.uuid-9d29da55-12d9-4891-a2d0-e481543f1008{fill:#f69175;}.uuid-082f4a2b-be6c-4b06-a917-de778ef49259{opacity:.42;}.uuid-dc5e8add-728f-4e0a-b5f4-342d8ecefe04{stroke-miterlimit:10;stroke-width:4px;}.uuid-a67201af-e4a8-4ddd-a7e3-9e5f76d02df0{stroke:#2ca02c;}.uuid-765c30ea-74e4-45fd-9352-31bf86444a7f{stroke:#9962d8;}.uuid-765c30ea-74e4-45fd-9352-31bf86444a7f,.uuid-40f93ddd-9684-4934-a19f-be7f285ef8be{fill:#9962d8;}.uuid-4aa3286e-8e9d-46cc-9dd1-955f84506de8{letter-spacing:-.01em;}.uuid-988316f5-8ba1-4c37-82fc-6f6af98a7318{letter-spacing:-.03em;}.uuid-8e771e9f-2529-4b35-a670-fedd9444f6f9{letter-spacing:0em;}.uuid-6a9a47a0-bbb6-431f-ac35-c73a856f5b54{letter-spacing:0em;}</style></defs><g id="uuid-35bd7784-aa00-4470-bba6-f096a7471f5f"><g class="uuid-082f4a2b-be6c-4b06-a917-de778ef49259"><path id="uuid-ddc931e8-4c31-4c27-8f11-fa432997c931" class="uuid-dc5e8add-728f-4e0a-b5f4-342d8ecefe04" d="M110.23,418.67c-37.06,0-67.1-30.03-67.11-67.09,0-37.06,30.03-67.1,67.09-67.11h.02c37.06,0,67.1,30.03,67.11,67.09,0,37.06-30.03,67.1-67.09,67.11h-.02Z"/><text class="uuid-c8a1cbc2-4cea-4a8d-a944-6756029465fd" transform="translate(17.76 293.88)"><tspan x="0" y="0">anger</tspan></text><path id="uuid-404630c6-91b7-453d-a896-364d3707a531" class="uuid-9eb85887-1a4d-4603-86ea-bbfb279bea24" d="M66.87,348.61c-5.02,0-9.09-4.07-9.09-9.09s4.07-9.09,9.09-9.09,9.09,4.07,9.09,9.09-4.07,9.09-9.09,9.09Z"/><path id="uuid-942e5d1c-aad7-4a53-8dd9-d5882e1067df" class="uuid-9eb85887-1a4d-4603-86ea-bbfb279bea24" d="M99.69,325.12c-5.02,0-9.09-4.07-9.09-9.09s4.07-9.09,9.09-9.09,9.09,4.07,9.09,9.09-4.07,9.09-9.09,9.09Z"/><path id="uuid-7838069b-2a8b-4644-a282-9bb505815640" class="uuid-9eb85887-1a4d-4603-86ea-bbfb279bea24" d="M75.96,391.74c-5.02,0-9.09-4.07-9.09-9.09s4.07-9.09,9.09-9.09,9.09,4.07,9.09,9.09-4.07,9.09-9.09,9.09Z"/><path id="uuid-d1e9f0e5-d6ae-401d-aa65-8d653c565ae8" class="uuid-9eb85887-1a4d-4603-86ea-bbfb279bea24" d="M143.71,332.58c-5.02,0-9.09-4.07-9.09-9.09s4.07-9.09,9.09-9.09,9.09,4.07,9.09,9.09-4.07,9.09-9.09,9.09Z"/><path id="uuid-e92aad73-53f2-4549-9ec4-07ff747a45b8" class="uuid-9eb85887-1a4d-4603-86ea-bbfb279bea24" d="M103.07,358.94c-5.02,0-9.09-4.07-9.09-9.09s4.07-9.09,9.09-9.09,9.09,4.07,9.09,9.09-4.07,9.09-9.09,9.09Z"/><path id="uuid-f8835795-5b33-43f9-ab09-9a2ab8441946" class="uuid-9eb85887-1a4d-4603-86ea-bbfb279bea24" d="M151.04,367.92c-5.02,0-9.09-4.07-9.09-9.09s4.07-9.09,9.09-9.09,9.09,4.07,9.09,9.09-4.07,9.09-9.09,9.09Z"/><path id="uuid-2b7e6dba-3aa6-40a1-8129-37db70519a61" class="uuid-9eb85887-1a4d-4603-86ea-bbfb279bea24" d="M122.31,401.46c-8.61,0-15.6-6.98-15.6-15.6s6.98-15.6,15.6-15.6,15.6,6.98,15.6,15.6-6.98,15.6-15.6,15.6Z"/></g><g class="uuid-082f4a2b-be6c-4b06-a917-de778ef49259"><path id="uuid-b20d1e65-feb7-44cd-8432-d1c4184483eb" class="uuid-0b002b0b-eab3-4c14-9200-e015215fb95b" d="M316.29,399.12c-90.32,0-163.54-73.22-163.54-163.54s73.22-163.54,163.54-163.54,163.54,73.22,163.54,163.54-73.22,163.54-163.54,163.54Z"/><path id="uuid-3fd28826-46e1-4f11-87fe-a9504cd3e4b1" class="uuid-3cf61c7c-d8fc-4633-b0d0-4a19025db3b5" d="M205.85,163.66c-4.92,0-8.91-3.99-8.91-8.9s3.99-8.91,8.9-8.91h0c4.92,0,8.91,3.99,8.91,8.9s-3.99,8.91-8.9,8.91h0Z"/><path id="uuid-deebcfb9-cff3-4341-9520-4da4fbbd59c1" class="uuid-3cf61c7c-d8fc-4633-b0d0-4a19025db3b5" d="M373.57,231.76c-8.61,0-15.6-6.98-15.6-15.6s6.98-15.6,15.6-15.6,15.6,6.98,15.6,15.6-6.98,15.6-15.6,15.6Z"/><path id="uuid-c5796810-b37b-4272-9926-4a7eba06a8d6" class="uuid-3cf61c7c-d8fc-4633-b0d0-4a19025db3b5" d="M226.1,312.36c-16.1,0-29.16-13.05-29.16-29.16s13.05-29.16,29.16-29.16,29.16,13.05,29.16,29.16-13.05,29.16-29.16,29.16Z"/><path id="uuid-943b7745-3157-4cc0-b951-88bc571ac5b2" class="uuid-3cf61c7c-d8fc-4633-b0d0-4a19025db3b5" d="M297.62,376.87c-18.79,0-34.03-15.24-34.03-34.03s15.24-34.03,34.03-34.03,34.03,15.24,34.03,34.03-15.24,34.03-34.03,34.03Z"/><path id="uuid-59f11df7-8888-4795-97ca-ab88e6a7d203" class="uuid-3cf61c7c-d8fc-4633-b0d0-4a19025db3b5" d="M378.1,327.41c-21.52,0-38.97-17.45-38.97-38.97s17.45-38.97,38.97-38.97,38.97,17.45,38.97,38.97-17.45,38.97-38.97,38.97Z"/><path id="uuid-8321047d-dd0c-4be0-886d-672597f5a92d" class="uuid-3cf61c7c-d8fc-4633-b0d0-4a19025db3b5" d="M270.76,249.46c-11.69,0-21.17-9.48-21.17-21.17s9.48-21.17,21.17-21.17,21.17,9.48,21.17,21.17-9.48,21.17-21.17,21.17Z"/><path id="uuid-63249379-d55f-4a2b-bdd1-ba44aa7128d7" class="uuid-3cf61c7c-d8fc-4633-b0d0-4a19025db3b5" d="M324.19,246.42c-11.69,0-21.17-9.48-21.17-21.17s9.48-21.17,21.17-21.17,21.17,9.48,21.17,21.17-9.48,21.17-21.17,21.17Z"/><path id="uuid-1c1d76b0-ddb7-4d48-8636-ccb5fe015036" class="uuid-3cf61c7c-d8fc-4633-b0d0-4a19025db3b5" d="M345.35,197.72c-8.61,0-15.6-6.98-15.6-15.6s6.98-15.6,15.6-15.6,15.6,6.98,15.6,15.6-6.98,15.6-15.6,15.6Z"/><path id="uuid-075dff09-43f4-443f-bc0e-a9b0437b1915" class="uuid-3cf61c7c-d8fc-4633-b0d0-4a19025db3b5" d="M393.69,193.44c-8.61,0-15.6-6.98-15.6-15.6s6.98-15.6,15.6-15.6,15.6,6.98,15.6,15.6-6.98,15.6-15.6,15.6Z"/><path id="uuid-f78a906b-4db2-49de-93fd-7381dbe34776" class="uuid-3cf61c7c-d8fc-4633-b0d0-4a19025db3b5" d="M246.35,150.23c-4.92,0-8.91-3.99-8.91-8.9s3.99-8.91,8.9-8.91h0c4.92,0,8.91,3.99,8.91,8.9s-3.99,8.91-8.9,8.91h0Z"/><path id="uuid-eb031fb1-9ebe-4513-8bfa-aff3dc6fddb0" class="uuid-3cf61c7c-d8fc-4633-b0d0-4a19025db3b5" d="M188.94,240.66c-4.92,0-8.91-3.99-8.91-8.9s3.99-8.91,8.9-8.91h0c4.92,0,8.91,3.99,8.91,8.9s-3.99,8.91-8.9,8.91h0Z"/><path id="uuid-91ad1260-e52e-4558-8879-ee19469c8166" class="uuid-3cf61c7c-d8fc-4633-b0d0-4a19025db3b5" d="M288.71,122.95c-4.92,0-8.91-3.99-8.91-8.9s3.99-8.91,8.9-8.91h0c4.92,0,8.91,3.99,8.91,8.9s-3.99,8.91-8.9,8.91h0Z"/><path id="uuid-df1d3ffc-d8bd-4893-8c8b-ede956dbe3fd" class="uuid-3cf61c7c-d8fc-4633-b0d0-4a19025db3b5" d="M218.83,351.75c-4.92,0-8.91-3.99-8.91-8.9s3.99-8.91,8.9-8.91h0c4.92,0,8.91,3.99,8.91,8.9s-3.99,8.91-8.9,8.91h0Z"/><path id="uuid-40e6cb0e-986d-4878-b1df-8affe214b12e" class="uuid-3cf61c7c-d8fc-4633-b0d0-4a19025db3b5" d="M283.02,302.65c-4.92,0-8.91-3.99-8.91-8.9s3.99-8.91,8.9-8.91h0c4.92,0,8.91,3.99,8.91,8.9s-3.99,8.91-8.9,8.91h0Z"/><path id="uuid-0136fa3d-92df-4afd-b028-0e74876ef7d9" class="uuid-3cf61c7c-d8fc-4633-b0d0-4a19025db3b5" d="M354.26,376.87c-4.92,0-8.91-3.99-8.91-8.9s3.99-8.91,8.9-8.91h0c4.92,0,8.91,3.99,8.91,8.9s-3.99,8.91-8.9,8.91h0Z"/><path id="uuid-3c23f64b-59bc-43b7-8341-051a255123f7" class="uuid-3cf61c7c-d8fc-4633-b0d0-4a19025db3b5" d="M345.35,114.79c-4.92,0-8.91-3.99-8.91-8.9s3.99-8.91,8.9-8.91h0c4.92,0,8.91,3.99,8.91,8.9,0,4.92-3.99,8.91-8.9,8.91h0Z"/><path id="uuid-1d0aa93c-9818-46ee-876e-686487efdff4" class="uuid-3cf61c7c-d8fc-4633-b0d0-4a19025db3b5" d="M237.44,195.99c-4.92,0-8.91-3.99-8.91-8.9s3.99-8.91,8.9-8.91h0c4.92,0,8.91,3.99,8.91,8.9s-3.99,8.91-8.9,8.91h0Z"/><path id="uuid-203ac505-0a42-49b5-8b76-cbea973444d9" class="uuid-3cf61c7c-d8fc-4633-b0d0-4a19025db3b5" d="M438.44,240.66c-4.92,0-8.91-3.99-8.91-8.9,0-4.92,3.99-8.91,8.9-8.91h0c4.92,0,8.91,3.99,8.91,8.9s-3.99,8.91-8.9,8.91h0Z"/><path id="uuid-0ee9b2ec-eb26-49f7-a89b-52233d3f9275" class="uuid-3cf61c7c-d8fc-4633-b0d0-4a19025db3b5" d="M418.2,351.75c-4.92,0-8.91-3.99-8.91-8.9s3.99-8.91,8.9-8.91h0c4.92,0,8.91,3.99,8.91,8.9s-3.99,8.91-8.9,8.91h0Z"/><path id="uuid-5186bfb5-c6f5-4848-8c53-58a2a0a7804f" class="uuid-3cf61c7c-d8fc-4633-b0d0-4a19025db3b5" d="M291.93,191.03c-4.92,0-8.91-3.99-8.91-8.9,0-4.92,3.99-8.91,8.9-8.91h0c4.92,0,8.91,3.99,8.91,8.9s-3.99,8.91-8.9,8.91h0Z"/><path id="uuid-63d7d8c0-db86-44d1-aef9-fb4658cc1573" class="uuid-3cf61c7c-d8fc-4633-b0d0-4a19025db3b5" d="M331.65,154.57c-4.92,0-8.91-3.99-8.91-8.9,0-4.92,3.99-8.91,8.9-8.91h0c4.92,0,8.91,3.99,8.91,8.9s-3.99,8.91-8.9,8.91h0Z"/><path id="uuid-056ce372-a935-4f6e-8013-3b970097a294" class="uuid-3cf61c7c-d8fc-4633-b0d0-4a19025db3b5" d="M402.6,132.05c-4.92,0-8.91-3.99-8.91-8.9s3.99-8.91,8.9-8.91h0c4.92,0,8.91,3.99,8.91,8.9,0,4.92-3.99,8.91-8.9,8.91h0Z"/><text class="uuid-c8a1cbc2-4cea-4a8d-a944-6756029465fd" transform="translate(265.96 66.66)"><tspan x="0" y="0">a</tspan><tspan class="uuid-6a9a47a0-bbb6-431f-ac35-c73a856f5b54" x="9.69" y="0">n</tspan><tspan class="uuid-4aa3286e-8e9d-46cc-9dd1-955f84506de8" x="20.29" y="0">t</tspan><tspan x="27.25" y="0">icip</tspan><tspan class="uuid-4aa3286e-8e9d-46cc-9dd1-955f84506de8" x="56.62" y="0">at</tspan><tspan x="73.01" y="0">ion</tspan></text></g><g class="uuid-082f4a2b-be6c-4b06-a917-de778ef49259"><path id="uuid-0d4d679d-22bf-43df-a23e-0634918f29c0" class="uuid-a67201af-e4a8-4ddd-a7e3-9e5f76d02df0" d="M462.46,120.08c-25.71,0-46.55-20.84-46.55-46.55s20.84-46.55,46.55-46.55,46.55,20.84,46.55,46.55-20.84,46.55-46.55,46.55Z"/><path id="uuid-bc443223-f4da-4edd-88e9-95f878715ee0" class="uuid-b848422a-5a99-4374-a0d1-419f67dd1299" d="M439.52,73.53c-5.02,0-9.09-4.07-9.09-9.09s4.07-9.09,9.09-9.09,9.09,4.07,9.09,9.09-4.07,9.09-9.09,9.09Z"/><path id="uuid-88bd1945-fb1b-40d3-a9a7-64d2b0884375" class="uuid-b848422a-5a99-4374-a0d1-419f67dd1299" d="M448.22,102.89c-5.02,0-9.09-4.07-9.09-9.09s4.07-9.09,9.09-9.09,9.09,4.07,9.09,9.09-4.07,9.09-9.09,9.09Z"/><path id="uuid-22adad46-56e3-4a12-8e7b-b1343498949b" class="uuid-b848422a-5a99-4374-a0d1-419f67dd1299" d="M464.95,59.5c-5.02,0-9.09-4.07-9.09-9.09s4.07-9.09,9.09-9.09,9.09,4.07,9.09,9.09-4.07,9.09-9.09,9.09Z"/><path id="uuid-7a5f3322-faef-41fb-bd9e-7c8c2600bf1e" class="uuid-b848422a-5a99-4374-a0d1-419f67dd1299" d="M474.04,99.56c-5.02,0-9.09-4.07-9.09-9.09s4.07-9.09,9.09-9.09,9.09,4.07,9.09,9.09-4.07,9.09-9.09,9.09Z"/><path id="uuid-6e47d5ce-138e-4cd4-95c3-d659cbf7d0d7" class="uuid-b848422a-5a99-4374-a0d1-419f67dd1299" d="M492.87,82.44c-5.02,0-9.09-4.07-9.09-9.09s4.07-9.09,9.09-9.09,9.09,4.07,9.09,9.09-4.07,9.09-9.09,9.09Z"/><text class="uuid-c8a1cbc2-4cea-4a8d-a944-6756029465fd" transform="translate(439.51 19.49)"><tspan x="0" y="0">disgu</tspan><tspan class="uuid-8e771e9f-2529-4b35-a670-fedd9444f6f9" x="45.19" y="0">s</tspan><tspan x="52.82" y="0">t</tspan></text></g><g class="uuid-082f4a2b-be6c-4b06-a917-de778ef49259"><path id="uuid-15783939-50a2-43a7-a3e8-5db64e36f2a1" class="uuid-6f3b6e49-3208-488b-93eb-479435e7cfbd" d="M226.1,578.08c-52.8,0-95.61-42.81-95.61-95.61s42.81-95.61,95.61-95.61,95.61,42.81,95.61,95.61-42.81,95.61-95.61,95.61Z"/><path id="uuid-fc2da788-9d9b-4ad3-891a-95506b2e37a9" class="uuid-bc2ad774-e7c1-4ad7-9190-c33bbca29e66" d="M229.29,521.48c-11.69,0-21.17-9.48-21.17-21.17s9.48-21.17,21.17-21.17,21.17,9.48,21.17,21.17-9.48,21.17-21.17,21.17Z"/><path id="uuid-741984c4-7672-40fd-992a-ed3a95ada681" class="uuid-bc2ad774-e7c1-4ad7-9190-c33bbca29e66" d="M250.46,471.01c-8.61,0-15.6-6.98-15.6-15.6s6.98-15.6,15.6-15.6,15.6,6.98,15.6,15.6-6.98,15.6-15.6,15.6Z"/><path id="uuid-05bdee5e-b875-4113-8370-40eb4dec2a26" class="uuid-bc2ad774-e7c1-4ad7-9190-c33bbca29e66" d="M197.4,528.83c-4.92,0-8.91-3.99-8.91-8.9,0-4.92,3.99-8.91,8.9-8.91h0c4.92,0,8.91,3.99,8.91,8.9s-3.99,8.91-8.9,8.91h0Z"/><path id="uuid-a5796cec-2769-4a3f-8170-512447f05d97" class="uuid-bc2ad774-e7c1-4ad7-9190-c33bbca29e66" d="M268.35,553.31c-4.92,0-8.91-3.99-8.91-8.9s3.99-8.91,8.9-8.91h0c4.92,0,8.91,3.99,8.91,8.9s-3.99,8.91-8.9,8.91h0Z"/><path id="uuid-5fc4a722-e712-47ab-a636-ff7ade4b675e" class="uuid-bc2ad774-e7c1-4ad7-9190-c33bbca29e66" d="M157.68,518.12c-4.92,0-8.91-3.99-8.91-8.9s3.99-8.91,8.9-8.91h0c4.92,0,8.91,3.99,8.91,8.9,0,4.92-3.99,8.91-8.9,8.91h0Z"/><path id="uuid-6c08d3a8-f5f3-44ee-a2aa-57e4f33b0e08" class="uuid-bc2ad774-e7c1-4ad7-9190-c33bbca29e66" d="M206.31,455.41c-4.92,0-8.91-3.99-8.91-8.9s3.99-8.91,8.9-8.91h0c4.92,0,8.91,3.99,8.91,8.9,0,4.92-3.99,8.91-8.9,8.91h0Z"/><path id="uuid-d816578d-23d3-4afb-9f46-8e9770597bf9" class="uuid-bc2ad774-e7c1-4ad7-9190-c33bbca29e66" d="M283.95,473.56c-4.92,0-8.91-3.99-8.91-8.9s3.99-8.91,8.9-8.91h0c4.92,0,8.91,3.99,8.91,8.9,0,4.92-3.99,8.91-8.9,8.91h0Z"/><path id="uuid-bcc76fb1-28b2-4d2f-9793-c6e9e68298bc" class="uuid-bc2ad774-e7c1-4ad7-9190-c33bbca29e66" d="M283.95,512.16c-4.92,0-8.91-3.99-8.91-8.9s3.99-8.91,8.9-8.91h0c4.92,0,8.91,3.99,8.91,8.9s-3.99,8.91-8.9,8.91h0Z"/><path id="uuid-347d6377-85af-4561-8694-be6a94c88749" class="uuid-bc2ad774-e7c1-4ad7-9190-c33bbca29e66" d="M168.77,464.32c-4.92,0-8.91-3.99-8.91-8.9s3.99-8.91,8.9-8.91h0c4.92,0,8.91,3.99,8.91,8.9s-3.99,8.91-8.9,8.91h0Z"/><path id="uuid-6f127970-770e-4dbf-8f21-7a35993ecb13" class="uuid-bc2ad774-e7c1-4ad7-9190-c33bbca29e66" d="M241.42,418.69c-4.92,0-8.91-3.99-8.91-8.9,0-4.92,3.99-8.91,8.9-8.91h0c4.92,0,8.91,3.99,8.91,8.9,0,4.92-3.99,8.91-8.9,8.91h0Z"/><path id="uuid-8a30eb7f-320f-4da0-83b1-529cccb6e34f" class="uuid-bc2ad774-e7c1-4ad7-9190-c33bbca29e66" d="M234.86,563.02c-4.92,0-8.91-3.99-8.91-8.9s3.99-8.91,8.9-8.91h0c4.92,0,8.91,3.99,8.91,8.9,0,4.92-3.99,8.91-8.9,8.91h0Z"/><path id="uuid-25365103-bc35-4dac-8be4-02caf2e3a31e" class="uuid-bc2ad774-e7c1-4ad7-9190-c33bbca29e66" d="M195.51,422.22c-4.92,0-8.91-3.99-8.91-8.9s3.99-8.91,8.9-8.91h0c4.92,0,8.91,3.99,8.91,8.9s-3.99,8.91-8.9,8.91h0Z"/><text class="uuid-c8a1cbc2-4cea-4a8d-a944-6756029465fd" transform="translate(182.19 382.22)"><tspan class="uuid-988316f5-8ba1-4c37-82fc-6f6af98a7318" x="0" y="0">f</tspan><tspan x="7" y="0">ear</tspan></text></g><g class="uuid-082f4a2b-be6c-4b06-a917-de778ef49259"><path id="uuid-ef668222-f261-4ce3-b414-440449efcdc5" class="uuid-cda1d221-6af6-4b11-87fc-c9d6e971a6c0" d="M679.94,646.82c-68.89.01-124.75-55.82-124.76-124.71-.01-68.89,55.82-124.75,124.71-124.76h.04c68.89-.01,124.75,55.82,124.76,124.71.01,68.89-55.82,124.75-124.71,124.76h-.04Z"/><path id="uuid-c6ee251c-02ed-44aa-a99b-e46c2516dac9" class="uuid-ba7f5359-55ab-4db7-9d6f-9c164d34d352" d="M669.58,517.55c-18.79,0-34.03-15.24-34.03-34.03s15.24-34.03,34.03-34.03,34.03,15.24,34.03,34.03-15.24,34.03-34.03,34.03Z"/><path id="uuid-584517e4-5a26-4d26-8501-be143f5b1ba2" class="uuid-ba7f5359-55ab-4db7-9d6f-9c164d34d352" d="M604.03,565.83c-16.18,0-29.29-13.12-29.29-29.29s13.12-29.29,29.29-29.29,29.29,13.12,29.29,29.29-13.12,29.29-29.29,29.29Z"/><path id="uuid-3b5b88e3-dbbd-4977-bc06-744771786bec" class="uuid-ba7f5359-55ab-4db7-9d6f-9c164d34d352" d="M747.54,578.09c-11.69,0-21.17-9.48-21.17-21.17s9.48-21.17,21.17-21.17,21.17,9.48,21.17,21.17-9.48,21.17-21.17,21.17Z"/><path id="uuid-b28612c5-3fb2-4261-a9bf-c824a3e1cb2e" class="uuid-ba7f5359-55ab-4db7-9d6f-9c164d34d352" d="M735.73,467.75c-8.61,0-15.6-6.98-15.6-15.6s6.98-15.6,15.6-15.6,15.6,6.98,15.6,15.6-6.98,15.6-15.6,15.6Z"/><path id="uuid-087c48d3-2c9b-4bb7-9643-7562a18545ff" class="uuid-ba7f5359-55ab-4db7-9d6f-9c164d34d352" d="M768.92,488.1c-8.61,0-15.6-6.98-15.6-15.6s6.98-15.6,15.6-15.6,15.6,6.98,15.6,15.6-6.98,15.6-15.6,15.6Z"/><path id="uuid-77ea7747-921c-4391-8fcb-c063ba940b75" class="uuid-ba7f5359-55ab-4db7-9d6f-9c164d34d352" d="M739.76,505.91c-4.92,0-8.91-3.99-8.91-8.9s3.99-8.91,8.9-8.91h0c4.92,0,8.91,3.99,8.91,8.9s-3.99,8.91-8.9,8.91h0Z"/><path id="uuid-4b5579b1-81f5-41e6-bd12-c4586fa0fc26" class="uuid-ba7f5359-55ab-4db7-9d6f-9c164d34d352" d="M633.32,614.32c-4.92,0-8.91-3.99-8.91-8.9s3.99-8.91,8.9-8.91h0c4.92,0,8.91,3.99,8.91,8.9s-3.99,8.91-8.9,8.91h0Z"/><path id="uuid-baa34218-a20c-4b37-8be0-f7b50f62c1b7" class="uuid-ba7f5359-55ab-4db7-9d6f-9c164d34d352" d="M673.69,605.42c-4.92,0-8.91-3.99-8.91-8.9s3.99-8.91,8.9-8.91h0c4.92,0,8.91,3.99,8.91,8.9s-3.99,8.91-8.9,8.91h0Z"/><path id="uuid-75e24b29-8a13-46c6-999d-ef9f9c46b364" class="uuid-ba7f5359-55ab-4db7-9d6f-9c164d34d352" d="M612.94,481.41c-4.92,0-8.91-3.99-8.91-8.9s3.99-8.91,8.9-8.91h0c4.92,0,8.91,3.99,8.91,8.9s-3.99,8.91-8.9,8.91h0Z"/><path id="uuid-1253b5b1-8f6d-4938-a182-99a45a444f98" class="uuid-ba7f5359-55ab-4db7-9d6f-9c164d34d352" d="M653.99,441.82c-4.92,0-8.91-3.99-8.91-8.9s3.99-8.91,8.9-8.91h0c4.92,0,8.91,3.99,8.91,8.9s-3.99,8.91-8.9,8.91h0Z"/><path id="uuid-fbc180c8-1a6e-42b9-b436-003fcdf39eab" class="uuid-ba7f5359-55ab-4db7-9d6f-9c164d34d352" d="M612.94,601.14c-4.92,0-8.91-3.99-8.91-8.9s3.99-8.91,8.9-8.91h0c4.92,0,8.91,3.99,8.91,8.9s-3.99,8.91-8.9,8.91h0Z"/><path id="uuid-f0a5d0b3-7be8-4853-8eb7-6f2190298602" class="uuid-ba7f5359-55ab-4db7-9d6f-9c164d34d352" d="M671.03,556.92c-4.92,0-8.91-3.99-8.91-8.9s3.99-8.91,8.9-8.91h0c4.92,0,8.91,3.99,8.91,8.9s-3.99,8.91-8.9,8.91h0Z"/><path id="uuid-9afb8637-2e6a-4916-a141-97ed604c524b" class="uuid-ba7f5359-55ab-4db7-9d6f-9c164d34d352" d="M697.8,432.91c-4.92,0-8.91-3.99-8.91-8.9s3.99-8.91,8.9-8.91h0c4.92,0,8.91,3.99,8.91,8.9s-3.99,8.91-8.9,8.91h0Z"/><path id="uuid-46bd1435-4725-4304-9b44-14248aeb8088" class="uuid-ba7f5359-55ab-4db7-9d6f-9c164d34d352" d="M717.92,522.08c-4.92,0-8.91-3.99-8.91-8.9s3.99-8.91,8.9-8.91h0c4.92,0,8.91,3.99,8.91,8.9s-3.99,8.91-8.9,8.91h0Z"/><path id="uuid-1e84d02c-f6bb-4aac-bfb0-7baed0ac243d" class="uuid-ba7f5359-55ab-4db7-9d6f-9c164d34d352" d="M775.37,526.46c-4.92,0-8.91-3.99-8.91-8.9s3.99-8.91,8.9-8.91h0c4.92,0,8.91,3.99,8.91,8.9s-3.99,8.91-8.9,8.91h0Z"/><path id="uuid-7abe36bf-5a9f-46c8-bdfc-4f476f66a684" class="uuid-ba7f5359-55ab-4db7-9d6f-9c164d34d352" d="M715.62,610.67c-4.92,0-8.91-3.99-8.91-8.9s3.99-8.91,8.9-8.91h0c4.92,0,8.91,3.99,8.91,8.9s-3.99,8.91-8.9,8.91h0Z"/><path id="uuid-2dc91bd9-5761-4c5d-9de5-c46fe65434a5" class="uuid-ba7f5359-55ab-4db7-9d6f-9c164d34d352" d="M702.32,565.83c-4.92,0-8.91-3.99-8.91-8.9s3.99-8.91,8.9-8.91h0c4.92,0,8.91,3.99,8.91,8.9s-3.99,8.91-8.9,8.91h0Z"/><path id="uuid-41fdef25-2780-4e19-97b5-42712eb3580a" class="uuid-ba7f5359-55ab-4db7-9d6f-9c164d34d352" d="M648.41,577.41c-4.92,0-8.91-3.99-8.91-8.9s3.99-8.91,8.9-8.91h0c4.92,0,8.91,3.99,8.91,8.9s-3.99,8.91-8.9,8.91h0Z"/><text class="uuid-c8a1cbc2-4cea-4a8d-a944-6756029465fd" transform="translate(748.39 409.66)"><tspan x="0" y="0">j</tspan><tspan class="uuid-4aa3286e-8e9d-46cc-9dd1-955f84506de8" x="4.46" y="0">o</tspan><tspan x="14.7" y="0">y</tspan></text></g><path id="uuid-bc0fac83-8856-49d1-9de0-65e11d1a0190" class="uuid-586a3687-ba74-4b63-b1b7-b79bbe4fd37f" d="M438.44,621.11c-59.81,0-108.3-48.49-108.3-108.3s48.49-108.3,108.3-108.3,108.3,48.49,108.3,108.3-48.49,108.3-108.3,108.3Z"/><path id="uuid-a322287d-d2eb-471c-9d2b-6ee7b92270f9" class="uuid-9d29da55-12d9-4891-a2d0-e481543f1008" d="M466.54,525.11c-21.52,0-38.97-17.45-38.97-38.97s17.45-38.97,38.97-38.97,38.97,17.45,38.97,38.97-17.45,38.97-38.97,38.97Z"/><path id="uuid-5fcb617f-d4f8-4956-ba52-ede95be44a01" class="uuid-1b395f35-088a-4315-87bd-dc3714efeb1d" d="M382.07,537.94c-18.79,0-34.03-15.24-34.03-34.03s15.24-34.03,34.03-34.03,34.03,15.24,34.03,34.03-15.24,34.03-34.03,34.03Z"/><path id="uuid-c53433b1-fc9a-4223-b01e-6f2693c9397c" class="uuid-1b395f35-088a-4315-87bd-dc3714efeb1d" d="M403.24,587.94c-11.69,0-21.17-9.48-21.17-21.17s9.48-21.17,21.17-21.17,21.17,9.48,21.17,21.17-9.48,21.17-21.17,21.17Z"/><path id="uuid-5c15b561-427c-4f64-a09c-cee2540f61a4" class="uuid-1b395f35-088a-4315-87bd-dc3714efeb1d" d="M462.27,573.46c-8.61,0-15.6-6.98-15.6-15.6s6.98-15.6,15.6-15.6,15.6,6.98,15.6,15.6-6.98,15.6-15.6,15.6Z"/><path id="uuid-abdbdfa2-26b3-409d-8aae-9e60734b9b88" class="uuid-1b395f35-088a-4315-87bd-dc3714efeb1d" d="M370.89,462.22c-4.92,0-8.91-3.99-8.91-8.9s3.99-8.91,8.9-8.91h0c4.92,0,8.91,3.99,8.91,8.9s-3.99,8.91-8.9,8.91h0Z"/><path id="uuid-1ae389c9-90f0-497a-b6db-2dfd1b4c3fab" class="uuid-1b395f35-088a-4315-87bd-dc3714efeb1d" d="M416.1,459.05c-4.92,0-8.91-3.99-8.91-8.9s3.99-8.91,8.9-8.91h0c4.92,0,8.91,3.99,8.91,8.9s-3.99,8.91-8.9,8.91h0Z"/><path id="uuid-6beaee7e-acbe-4111-9e38-2a55fb0d4748" class="uuid-1b395f35-088a-4315-87bd-dc3714efeb1d" d="M444.45,437.18c-4.92,0-8.91-3.99-8.91-8.9s3.99-8.91,8.9-8.91h0c4.92,0,8.91,3.99,8.91,8.9,0,4.92-3.99,8.91-8.9,8.91h0Z"/><path id="uuid-24292515-b52b-4e5d-b44f-d6fa1f6097c0" class="uuid-1b395f35-088a-4315-87bd-dc3714efeb1d" d="M435.54,548.85c-4.92,0-8.91-3.99-8.91-8.9s3.99-8.91,8.9-8.91h0c4.92,0,8.91,3.99,8.91,8.9s-3.99,8.91-8.9,8.91h0Z"/><path id="uuid-513dfe00-a089-4a94-8a51-44f7751a1b18" class="uuid-1b395f35-088a-4315-87bd-dc3714efeb1d" d="M444.45,593.88c-4.92,0-8.91-3.99-8.91-8.9s3.99-8.91,8.9-8.91h0c4.92,0,8.91,3.99,8.91,8.9s-3.99,8.91-8.9,8.91h0Z"/><path id="uuid-18f82042-b55e-42c4-b92d-762056383bf5" class="uuid-1b395f35-088a-4315-87bd-dc3714efeb1d" d="M501.16,547.55c-4.92,0-8.91-3.99-8.91-8.9s3.99-8.91,8.9-8.91h0c4.92,0,8.91,3.99,8.91,8.9s-3.99,8.91-8.9,8.91h0Z"/><path id="uuid-d2ccac1a-a73c-4bee-a0f2-7d6feee64de6" class="uuid-1b395f35-088a-4315-87bd-dc3714efeb1d" d="M523.67,512.82c-4.92,0-8.91-3.99-8.91-8.9s3.99-8.91,8.9-8.91h0c4.92,0,8.91,3.99,8.91,8.9s-3.99,8.91-8.9,8.91h0Z"/><path id="uuid-ea5b5d36-180b-4b5e-9f8b-cb9ccf375eb0" class="uuid-1b395f35-088a-4315-87bd-dc3714efeb1d" d="M492.25,593.88c-4.92,0-8.91-3.99-8.91-8.9s3.99-8.91,8.9-8.91h0c4.92,0,8.91,3.99,8.91,8.9s-3.99,8.91-8.9,8.91h0Z"/><text class="uuid-c8a1cbc2-4cea-4a8d-a944-6756029465fd" transform="translate(387.71 395.1)"><tspan x="0" y="0">sadness</tspan></text><path id="uuid-76cfd039-0f5f-4ec2-9f8c-bdf02b1eeeeb" class="uuid-765c30ea-74e4-45fd-9352-31bf86444a7f" d="M73.84,275.11C33.34,275.11.5,242.28.5,201.77s32.84-73.34,73.34-73.34,73.34,32.84,73.34,73.34-32.84,73.34-73.34,73.34Z"/><path id="uuid-fdc51209-5e30-4737-b1c0-824313f22dbd" class="uuid-9d29da55-12d9-4891-a2d0-e481543f1008" d="M77.66,261.51c-21.52,0-38.97-17.45-38.97-38.97s17.45-38.97,38.97-38.97,38.97,17.45,38.97,38.97-17.45,38.97-38.97,38.97Z"/><path id="uuid-02d03218-b86b-48d2-8ab4-19cd54d5240e" class="uuid-40f93ddd-9684-4934-a19f-be7f285ef8be" d="M27.7,199.56c-8.61,0-15.6-6.98-15.6-15.6s6.98-15.6,15.6-15.6,15.6,6.98,15.6,15.6-6.98,15.6-15.6,15.6Z"/><path id="uuid-fe491c34-144c-4180-84a0-0d53cd790ddf" class="uuid-40f93ddd-9684-4934-a19f-be7f285ef8be" d="M125.54,207.52c-4.92,0-8.91-3.99-8.91-8.9,0-4.92,3.99-8.91,8.9-8.91h0c4.92,0,8.91,3.99,8.91,8.9s-3.99,8.91-8.9,8.91h0Z"/><path id="uuid-287a23c4-509c-4651-bf09-121c7e59f28d" class="uuid-40f93ddd-9684-4934-a19f-be7f285ef8be" d="M52.2,157.22c-4.92,0-8.91-3.99-8.91-8.9,0-4.92,3.99-8.91,8.9-8.91h0c4.92,0,8.91,3.99,8.91,8.9s-3.99,8.91-8.9,8.91h0Z"/><path id="uuid-6fa33ad8-1417-41cd-aa9a-7e331c476946" class="uuid-40f93ddd-9684-4934-a19f-be7f285ef8be" d="M95.48,177.27c-4.92,0-8.91-3.99-8.91-8.9,0-4.92,3.99-8.91,8.9-8.91h0c4.92,0,8.91,3.99,8.91,8.9s-3.99,8.91-8.9,8.91h0Z"/><path id="uuid-f4190d0f-3c04-4285-a501-3cd50c96da48" class="uuid-40f93ddd-9684-4934-a19f-be7f285ef8be" d="M64.93,177.27c-4.92,0-8.91-3.99-8.91-8.9,0-4.92,3.99-8.91,8.9-8.91h0c4.92,0,8.91,3.99,8.91,8.9s-3.99,8.91-8.9,8.91h0Z"/><text class="uuid-c8a1cbc2-4cea-4a8d-a944-6756029465fd" transform="translate(15.83 122.54)"><tspan x="0" y="0">surprise</tspan></text><g class="uuid-082f4a2b-be6c-4b06-a917-de778ef49259"><path id="uuid-61caa0f2-e297-4de7-b81a-f6f9a655049e" class="uuid-6f5005b8-89b3-4de9-b39f-90dbfe0aef34" d="M667.98,391.88c-100.84,0-182.58-81.74-182.58-182.58S567.14,26.72,667.98,26.72s182.58,81.74,182.58,182.58-81.74,182.58-182.58,182.58Z"/><path id="uuid-5277ffe8-1c23-49a1-b8c1-0032dcaf74f2" class="uuid-85472f01-f5b4-4acb-970f-2397b9df2c0a" d="M588.44,287.97c-21.52,0-38.97-17.45-38.97-38.97s17.45-38.97,38.97-38.97,38.97,17.45,38.97,38.97-17.45,38.97-38.97,38.97Z"/><path id="uuid-92c3766c-a62a-4053-83ec-2c3d9f610654" class="uuid-85472f01-f5b4-4acb-970f-2397b9df2c0a" d="M678.21,303.04c-21.52,0-38.97-17.45-38.97-38.97s17.45-38.97,38.97-38.97,38.97,17.45,38.97,38.97-17.45,38.97-38.97,38.97Z"/><path id="uuid-22bc20ed-ae22-4edc-b7ff-a8e109a9000e" class="uuid-85472f01-f5b4-4acb-970f-2397b9df2c0a" d="M762.59,283.03c-18.79,0-34.03-15.24-34.03-34.03s15.24-34.03,34.03-34.03,34.03,15.24,34.03,34.03-15.24,34.03-34.03,34.03Z"/><path id="uuid-7e938bfd-6193-44b0-a41a-34ddc4874965" class="uuid-85472f01-f5b4-4acb-970f-2397b9df2c0a" d="M728.56,209.67c-16.1,0-29.16-13.05-29.16-29.16s13.05-29.16,29.16-29.16,29.16,13.05,29.16,29.16-13.05,29.16-29.16,29.16Z"/><path id="uuid-2114cf73-2e7c-4993-a2d5-d680d337a685" class="uuid-85472f01-f5b4-4acb-970f-2397b9df2c0a" d="M665.41,177.29c-14.38,0-26.04-11.66-26.04-26.04s11.66-26.04,26.04-26.04,26.04,11.66,26.04,26.04-11.66,26.04-26.04,26.04Z"/><path id="uuid-ae6a5878-0733-4d35-97f1-4ccb6ce9cbea" class="uuid-85472f01-f5b4-4acb-970f-2397b9df2c0a" d="M614.49,150.59c-14.38,0-26.04-11.66-26.04-26.04s11.66-26.04,26.04-26.04,26.04,11.66,26.04,26.04-11.66,26.04-26.04,26.04Z"/><path id="uuid-fef7e27f-0c8e-4d44-a919-6ee6ad00d13c" class="uuid-85472f01-f5b4-4acb-970f-2397b9df2c0a" d="M707.39,142.95c-11.69,0-21.17-9.48-21.17-21.17s9.48-21.17,21.17-21.17,21.17,9.48,21.17,21.17-9.48,21.17-21.17,21.17Z"/><path id="uuid-a106e929-2cc7-40af-8313-0c8c8e90459e" class="uuid-85472f01-f5b4-4acb-970f-2397b9df2c0a" d="M693.81,98.74c-8.61,0-15.6-6.98-15.6-15.6s6.98-15.6,15.6-15.6,15.6,6.98,15.6,15.6-6.98,15.6-15.6,15.6Z"/><path id="uuid-b484696a-d95d-46d1-a0b2-80daf0d7149d" class="uuid-85472f01-f5b4-4acb-970f-2397b9df2c0a" d="M618.05,192.89c-8.61,0-15.6-6.98-15.6-15.6s6.98-15.6,15.6-15.6,15.6,6.98,15.6,15.6-6.98,15.6-15.6,15.6Z"/><path id="uuid-74c2a450-33c1-46aa-81fb-bbb08e73b67e" class="uuid-85472f01-f5b4-4acb-970f-2397b9df2c0a" d="M652.38,221.22c-8.61,0-15.6-6.98-15.6-15.6s6.98-15.6,15.6-15.6,15.6,6.98,15.6,15.6-6.98,15.6-15.6,15.6Z"/><path id="uuid-dc1e29c7-8e7b-49ca-9fd7-2e546bb305d4" class="uuid-85472f01-f5b4-4acb-970f-2397b9df2c0a" d="M652.38,109.89c-8.61,0-15.6-6.98-15.6-15.6s6.98-15.6,15.6-15.6,15.6,6.98,15.6,15.6-6.98,15.6-15.6,15.6Z"/><path id="uuid-e2bb97b6-e288-4a26-b1e8-7492e2f0ada6" class="uuid-85472f01-f5b4-4acb-970f-2397b9df2c0a" d="M753.25,125.61c-8.61,0-15.6-6.98-15.6-15.6s6.98-15.6,15.6-15.6,15.6,6.98,15.6,15.6-6.98,15.6-15.6,15.6Z"/><path id="uuid-9d1abe74-2172-4b55-a840-9332ff682bd0" class="uuid-85472f01-f5b4-4acb-970f-2397b9df2c0a" d="M568.47,185.39c-14.38,0-26.04-11.66-26.04-26.04s11.66-26.04,26.04-26.04,26.04,11.66,26.04,26.04-11.66,26.04-26.04,26.04Z"/><path id="uuid-a29f8291-5c27-4f40-beaf-cda6b72f8854" class="uuid-85472f01-f5b4-4acb-970f-2397b9df2c0a" d="M578.48,333.73c-4.92,0-8.91-3.99-8.91-8.9,0-4.92,3.99-8.91,8.9-8.91h0c4.92,0,8.91,3.99,8.91,8.9s-3.99,8.91-8.9,8.91h0Z"/><path id="uuid-daf9589c-9d86-4a07-a919-3c0b56b53019" class="uuid-85472f01-f5b4-4acb-970f-2397b9df2c0a" d="M618.51,344.29c-4.92,0-8.91-3.99-8.91-8.9,0-4.92,3.99-8.91,8.9-8.91h0c4.92,0,8.91,3.99,8.91,8.9s-3.99,8.91-8.9,8.91h0Z"/><path id="uuid-ce2a8659-69f3-455b-b49b-5d4932263462" class="uuid-85472f01-f5b4-4acb-970f-2397b9df2c0a" d="M542.43,305.33c-4.92,0-8.91-3.99-8.91-8.9,0-4.92,3.99-8.91,8.9-8.91h0c4.92,0,8.91,3.99,8.91,8.9s-3.99,8.91-8.9,8.91h0Z"/><path id="uuid-3bd54f4a-cbd9-4bd6-831f-1d6fc29466ff" class="uuid-85472f01-f5b4-4acb-970f-2397b9df2c0a" d="M728.56,74.24c-4.92,0-8.91-3.99-8.91-8.9,0-4.92,3.99-8.91,8.9-8.91h0c4.92,0,8.91,3.99,8.91,8.9s-3.99,8.91-8.9,8.91h0Z"/><path id="uuid-f419854f-4a3a-4398-b0fa-47abde42fe5c" class="uuid-85472f01-f5b4-4acb-970f-2397b9df2c0a" d="M614.49,311.95c-4.92,0-8.91-3.99-8.91-8.9,0-4.92,3.99-8.91,8.9-8.91h0c4.92,0,8.91,3.99,8.91,8.9s-3.99,8.91-8.9,8.91h0Z"/><path id="uuid-5638fb99-af7f-4a13-9423-a37548aee2ac" class="uuid-85472f01-f5b4-4acb-970f-2397b9df2c0a" d="M656.5,332.13c-4.92,0-8.91-3.99-8.91-8.9,0-4.92,3.99-8.91,8.9-8.91h0c4.92,0,8.91,3.99,8.91,8.9s-3.99,8.91-8.9,8.91h0Z"/><path id="uuid-2b162ddd-1eb8-40dd-8cb1-bef79cce86ce" class="uuid-85472f01-f5b4-4acb-970f-2397b9df2c0a" d="M691.45,353.2c-4.92,0-8.91-3.99-8.91-8.9,0-4.92,3.99-8.91,8.9-8.91h0c4.92,0,8.91,3.99,8.91,8.9s-3.99,8.91-8.9,8.91h0Z"/><path id="uuid-d2f38948-772d-4c63-9f4a-c0443030bb11" class="uuid-85472f01-f5b4-4acb-970f-2397b9df2c0a" d="M722.93,326.48c-4.92,0-8.91-3.99-8.91-8.9,0-4.92,3.99-8.91,8.9-8.91h0c4.92,0,8.91,3.99,8.91,8.9s-3.99,8.91-8.9,8.91h0Z"/><path id="uuid-5d0a7453-4363-45ea-8659-d8713b6da40b" class="uuid-85472f01-f5b4-4acb-970f-2397b9df2c0a" d="M785.55,192.46c-4.92,0-8.91-3.99-8.91-8.9,0-4.92,3.99-8.91,8.9-8.91h0c4.92,0,8.91,3.99,8.91,8.9s-3.99,8.91-8.9,8.91h0Z"/><path id="uuid-c0f7c82e-8273-4fb6-9331-c82cd6e50292" class="uuid-85472f01-f5b4-4acb-970f-2397b9df2c0a" d="M588.44,92.05c-4.92,0-8.91-3.99-8.91-8.9,0-4.92,3.99-8.91,8.9-8.91h0c4.92,0,8.91,3.99,8.91,8.9s-3.99,8.91-8.9,8.91h0Z"/><path id="uuid-d410a91c-dbaa-4be1-8538-9bbf06cadd47" class="uuid-85472f01-f5b4-4acb-970f-2397b9df2c0a" d="M771.49,155.19c-4.92,0-8.91-3.99-8.91-8.9,0-4.92,3.99-8.91,8.9-8.91h0c4.92,0,8.91,3.99,8.91,8.9s-3.99,8.91-8.9,8.91h0Z"/><path id="uuid-97e9bbc7-2fd7-4f9a-8a52-7efe9a9baaff" class="uuid-85472f01-f5b4-4acb-970f-2397b9df2c0a" d="M753.25,315.66c-4.92,0-8.91-3.99-8.91-8.9,0-4.92,3.99-8.91,8.9-8.91h0c4.92,0,8.91,3.99,8.91,8.9s-3.99,8.91-8.9,8.91h0Z"/><path id="uuid-40a7b1e7-ef50-4a71-940e-385113f5423c" class="uuid-85472f01-f5b4-4acb-970f-2397b9df2c0a" d="M548.12,218.93c-4.92,0-8.91-3.99-8.91-8.9,0-4.92,3.99-8.91,8.9-8.91h0c4.92,0,8.91,3.99,8.91,8.9s-3.99,8.91-8.9,8.91h0Z"/><path id="uuid-c8e55016-3541-49c4-8f88-ed11af0648b9" class="uuid-85472f01-f5b4-4acb-970f-2397b9df2c0a" d="M785.55,307.49c-4.92,0-8.91-3.99-8.91-8.9,0-4.92,3.99-8.91,8.9-8.91h0c4.92,0,8.91,3.99,8.91,8.9s-3.99,8.91-8.9,8.91h0Z"/><path id="uuid-356f74af-dd39-4049-ad94-509ebb7e08f2" class="uuid-85472f01-f5b4-4acb-970f-2397b9df2c0a" d="M825.53,249c-4.92,0-8.91-3.99-8.91-8.9,0-4.92,3.99-8.91,8.9-8.91h0c4.92,0,8.91,3.99,8.91,8.9s-3.99,8.91-8.9,8.91h0Z"/><text class="uuid-c8a1cbc2-4cea-4a8d-a944-6756029465fd" transform="translate(646.97 15.59)"><tspan class="uuid-4aa3286e-8e9d-46cc-9dd1-955f84506de8" x="0" y="0">t</tspan><tspan x="6.96" y="0">ru</tspan><tspan class="uuid-8e771e9f-2529-4b35-a670-fedd9444f6f9" x="24.9" y="0">s</tspan><tspan x="32.53" y="0">t</tspan></text></g><text class="uuid-06b8046c-754a-4aee-b752-eb9b98100477" transform="translate(59.65 219.25)"><tspan x="0" y="0">le</tspan><tspan class="uuid-4aa3286e-8e9d-46cc-9dd1-955f84506de8" x="11.74" y="0">av</tspan><tspan x="27.01" y="0">e</tspan></text><text class="uuid-06b8046c-754a-4aee-b752-eb9b98100477" transform="translate(72.91 237.11)"><tspan x="0" y="0">8</tspan></text><text class="uuid-06b8046c-754a-4aee-b752-eb9b98100477" transform="translate(448.21 482.56)"><tspan x="0" y="0">le</tspan><tspan class="uuid-4aa3286e-8e9d-46cc-9dd1-955f84506de8" x="11.74" y="0">av</tspan><tspan x="27.01" y="0">e</tspan></text><text class="uuid-06b8046c-754a-4aee-b752-eb9b98100477" transform="translate(461.47 500.41)"><tspan x="0" y="0">8</tspan></text></g></svg>