<?xml version="1.0" encoding="UTF-8"?><svg id="uuid-49bbeafd-9c2e-4523-b4b7-133a5d59fee0" xmlns="http://www.w3.org/2000/svg" viewBox="0 0 851.06 646.82"><defs><style>.uuid-d5c17998-3825-4ab1-bb9b-49090134d226{fill:#ff7f0e;}.uuid-b52b7160-703f-4178-948b-9a3c8eb54958{fill:#f78d1e;stroke:#f7931e;}.uuid-b52b7160-703f-4178-948b-9a3c8eb54958,.uuid-5a39de70-0d7b-4a7c-9bfd-95702ec13996,.uuid-7eb13e3c-5beb-435f-b354-3a487cb33172,.uuid-34277670-8abf-4f22-86e7-1456addf8f23,.uuid-9124506f-b23f-44bb-bbb6-1034c9c7f7ab,.uuid-f38f676e-7280-4ec8-93b3-2184531c116f,.uuid-8d2c882d-5bf2-4dda-8323-5922fe256320,.uuid-7253d6a0-453e-4612-8814-a4e384931a3c{opacity:.2;}.uuid-2792c35f-1a1b-4c5e-b861-a2ab5083db77,.uuid-34277670-8abf-4f22-86e7-1456addf8f23{fill:#ffcd34;}.uuid-826e9b8a-b426-4c0b-b727-16ece1e254f8,.uuid-5a39de70-0d7b-4a7c-9bfd-95702ec13996{fill:#e53598;}.uuid-3594bf76-4a63-40f7-83e8-a5e2555f533f,.uuid-f38f676e-7280-4ec8-93b3-2184531c116f{fill:#00718b;stroke:#00718b;}.uuid-1e736adc-e4da-40d9-bb84-b29d74af4f4d{font-family:KumbhSans-Medium, 'Kumbh Sans';font-size:18px;font-variation-settings:'YOPQ' 300, 'wght' 500;font-weight:500;isolation:isolate;}.uuid-7eb13e3c-5beb-435f-b354-3a487cb33172,.uuid-dd7a778a-731e-4d9f-92d0-d3e96c874f34{fill:#06499a;}.uuid-34277670-8abf-4f22-86e7-1456addf8f23{stroke:#ffc831;}.uuid-e24e90a1-6574-45b4-a90f-359505e43011,.uuid-9124506f-b23f-44bb-bbb6-1034c9c7f7ab{fill:#324a36;}.uuid-9124506f-b23f-44bb-bbb6-1034c9c7f7ab{stroke:#324a36;stroke-width:3px;}.uuid-baf70780-81e7-4587-a9cb-9a047d50fb79,.uuid-8d2c882d-5bf2-4dda-8323-5922fe256320{fill:#2ca02c;}.uuid-f38f676e-7280-4ec8-93b3-2184531c116f{stroke-miterlimit:10;stroke-width:4px;}.uuid-8d2c882d-5bf2-4dda-8323-5922fe256320{stroke:#2ca02c;}.uuid-7253d6a0-453e-4612-8814-a4e384931a3c{stroke:#9962d8;}.uuid-7253d6a0-453e-4612-8814-a4e384931a3c,.uuid-5e3a30ea-b034-4f26-a618-653f2b69e812{fill:#9962d8;}.uuid-3d725604-d1ab-4247-9837-bcb5039ce626{letter-spacing:-.01em;}.uuid-f0e64851-e475-4126-a329-51c2abde94e2{letter-spacing:-.03em;}.uuid-5c7725d7-5366-4c13-8513-b8f8ba63fba9{letter-spacing:0em;}.uuid-471bffd6-96e4-4c92-a243-2d8568087e7b{letter-spacing:0em;}</style></defs><g id="uuid-46aa12d1-d660-4586-84f8-5c7e1112437b"><path id="uuid-37b9f9fa-baa6-4735-873d-ea5f80b47eca" class="uuid-f38f676e-7280-4ec8-93b3-2184531c116f" d="M110.23,418.67c-37.06,0-67.1-30.03-67.11-67.09,0-37.06,30.03-67.1,67.09-67.11h.02c37.06,0,67.1,30.03,67.11,67.09,0,37.06-30.03,67.1-67.09,67.11h-.02Z"/><text class="uuid-1e736adc-e4da-40d9-bb84-b29d74af4f4d" transform="translate(17.76 293.88)"><tspan x="0" y="0">anger</tspan></text><path id="uuid-c4649e21-ca2b-4c07-9c23-a2bfecbcaebf" class="uuid-3594bf76-4a63-40f7-83e8-a5e2555f533f" d="M66.87,348.61c-5.02,0-9.09-4.07-9.09-9.09s4.07-9.09,9.09-9.09,9.09,4.07,9.09,9.09-4.07,9.09-9.09,9.09Z"/><path id="uuid-340f08fc-b019-4051-b3fe-f7c7552e1bac" class="uuid-3594bf76-4a63-40f7-83e8-a5e2555f533f" d="M99.69,325.12c-5.02,0-9.09-4.07-9.09-9.09s4.07-9.09,9.09-9.09,9.09,4.07,9.09,9.09-4.07,9.09-9.09,9.09Z"/><path id="uuid-a87a84f6-b3d6-42c4-b640-1f5fe66871f6" class="uuid-3594bf76-4a63-40f7-83e8-a5e2555f533f" d="M75.96,391.74c-5.02,0-9.09-4.07-9.09-9.09s4.07-9.09,9.09-9.09,9.09,4.07,9.09,9.09-4.07,9.09-9.09,9.09Z"/><path id="uuid-cd333eb5-4c52-4ac7-8ad8-58880ab44227" class="uuid-3594bf76-4a63-40f7-83e8-a5e2555f533f" d="M143.71,332.58c-5.02,0-9.09-4.07-9.09-9.09s4.07-9.09,9.09-9.09,9.09,4.07,9.09,9.09-4.07,9.09-9.09,9.09Z"/><path id="uuid-1340ccea-eba5-4496-8c5e-4c8a09cfd99f" class="uuid-3594bf76-4a63-40f7-83e8-a5e2555f533f" d="M103.07,358.94c-5.02,0-9.09-4.07-9.09-9.09s4.07-9.09,9.09-9.09,9.09,4.07,9.09,9.09-4.07,9.09-9.09,9.09Z"/><path id="uuid-d9ece0a2-53df-4a32-a068-4783e4dbc46a" class="uuid-3594bf76-4a63-40f7-83e8-a5e2555f533f" d="M151.04,367.92c-5.02,0-9.09-4.07-9.09-9.09s4.07-9.09,9.09-9.09,9.09,4.07,9.09,9.09-4.07,9.09-9.09,9.09Z"/><path id="uuid-c8593531-8bc9-4a5b-88ec-b969f8eb1709" class="uuid-3594bf76-4a63-40f7-83e8-a5e2555f533f" d="M122.31,401.46c-8.61,0-15.6-6.98-15.6-15.6s6.98-15.6,15.6-15.6,15.6,6.98,15.6,15.6-6.98,15.6-15.6,15.6Z"/><path id="uuid-f2483f32-1246-4b48-93a9-0046d858863e" class="uuid-b52b7160-703f-4178-948b-9a3c8eb54958" d="M316.29,399.12c-90.32,0-163.54-73.22-163.54-163.54s73.22-163.54,163.54-163.54,163.54,73.22,163.54,163.54-73.22,163.54-163.54,163.54Z"/><path id="uuid-ef2f57f9-c9ee-4076-9997-3ce6994f0ea4" class="uuid-d5c17998-3825-4ab1-bb9b-49090134d226" d="M205.85,163.66c-4.92,0-8.91-3.99-8.91-8.9s3.99-8.91,8.9-8.91h0c4.92,0,8.91,3.99,8.91,8.9s-3.99,8.91-8.9,8.91h0Z"/><path id="uuid-a6da8afd-d9a0-42da-984d-b0db2b31aa87" class="uuid-d5c17998-3825-4ab1-bb9b-49090134d226" d="M373.57,231.76c-8.61,0-15.6-6.98-15.6-15.6s6.98-15.6,15.6-15.6,15.6,6.98,15.6,15.6-6.98,15.6-15.6,15.6Z"/><path id="uuid-482395d1-b21a-4de2-bf83-2142e05deb09" class="uuid-d5c17998-3825-4ab1-bb9b-49090134d226" d="M226.1,312.36c-16.1,0-29.16-13.05-29.16-29.16s13.05-29.16,29.16-29.16,29.16,13.05,29.16,29.16-13.05,29.16-29.16,29.16Z"/><path id="uuid-a9d8b2ac-4a64-47bf-8c0f-c007094252ef" class="uuid-d5c17998-3825-4ab1-bb9b-49090134d226" d="M297.62,376.87c-18.79,0-34.03-15.24-34.03-34.03s15.24-34.03,34.03-34.03,34.03,15.24,34.03,34.03-15.24,34.03-34.03,34.03Z"/><path id="uuid-9977f581-4bb8-4224-8934-f017046e1278" class="uuid-d5c17998-3825-4ab1-bb9b-49090134d226" d="M378.1,327.41c-21.52,0-38.97-17.45-38.97-38.97s17.45-38.97,38.97-38.97,38.97,17.45,38.97,38.97-17.45,38.97-38.97,38.97Z"/><path id="uuid-0b838c5f-8f85-4439-96c8-32728bab9dd6" class="uuid-d5c17998-3825-4ab1-bb9b-49090134d226" d="M270.76,249.46c-11.69,0-21.17-9.48-21.17-21.17s9.48-21.17,21.17-21.17,21.17,9.48,21.17,21.17-9.48,21.17-21.17,21.17Z"/><path id="uuid-b778b8f9-2c65-44e0-b52e-ae06e8ff703a" class="uuid-d5c17998-3825-4ab1-bb9b-49090134d226" d="M324.19,246.42c-11.69,0-21.17-9.48-21.17-21.17s9.48-21.17,21.17-21.17,21.17,9.48,21.17,21.17-9.48,21.17-21.17,21.17Z"/><path id="uuid-c265c7c8-c457-46eb-a98a-d9c1979cde52" class="uuid-d5c17998-3825-4ab1-bb9b-49090134d226" d="M345.35,197.72c-8.61,0-15.6-6.98-15.6-15.6s6.98-15.6,15.6-15.6,15.6,6.98,15.6,15.6-6.98,15.6-15.6,15.6Z"/><path id="uuid-b4a05af6-4065-4936-b97f-22ef1dc2ae34" class="uuid-d5c17998-3825-4ab1-bb9b-49090134d226" d="M393.69,193.44c-8.61,0-15.6-6.98-15.6-15.6s6.98-15.6,15.6-15.6,15.6,6.98,15.6,15.6-6.98,15.6-15.6,15.6Z"/><path id="uuid-bdb04d45-f7d3-4865-b11f-15c45af20c1e" class="uuid-d5c17998-3825-4ab1-bb9b-49090134d226" d="M246.35,150.23c-4.92,0-8.91-3.99-8.91-8.9s3.99-8.91,8.9-8.91h0c4.92,0,8.91,3.99,8.91,8.9s-3.99,8.91-8.9,8.91h0Z"/><path id="uuid-48f92194-aa71-40d5-afd2-052e894bde8f" class="uuid-d5c17998-3825-4ab1-bb9b-49090134d226" d="M188.94,240.66c-4.92,0-8.91-3.99-8.91-8.9s3.99-8.91,8.9-8.91h0c4.92,0,8.91,3.99,8.91,8.9s-3.99,8.91-8.9,8.91h0Z"/><path id="uuid-7f5d88fe-0850-436e-80e3-9e53c97410da" class="uuid-d5c17998-3825-4ab1-bb9b-49090134d226" d="M288.71,122.95c-4.92,0-8.91-3.99-8.91-8.9s3.99-8.91,8.9-8.91h0c4.92,0,8.91,3.99,8.91,8.9s-3.99,8.91-8.9,8.91h0Z"/><path id="uuid-9e6b7a55-7faa-4218-9047-7b1ecb459da3" class="uuid-d5c17998-3825-4ab1-bb9b-49090134d226" d="M218.83,351.75c-4.92,0-8.91-3.99-8.91-8.9s3.99-8.91,8.9-8.91h0c4.92,0,8.91,3.99,8.91,8.9s-3.99,8.91-8.9,8.91h0Z"/><path id="uuid-6ef1fbd2-bd5d-42b6-8fb4-73c1b439582c" class="uuid-d5c17998-3825-4ab1-bb9b-49090134d226" d="M283.02,302.65c-4.92,0-8.91-3.99-8.91-8.9s3.99-8.91,8.9-8.91h0c4.92,0,8.91,3.99,8.91,8.9s-3.99,8.91-8.9,8.91h0Z"/><path id="uuid-13c93768-1df7-44fc-94e0-8b78994d5082" class="uuid-d5c17998-3825-4ab1-bb9b-49090134d226" d="M354.26,376.87c-4.92,0-8.91-3.99-8.91-8.9s3.99-8.91,8.9-8.91h0c4.92,0,8.91,3.99,8.91,8.9s-3.99,8.91-8.9,8.91h0Z"/><path id="uuid-1227017d-00bd-44c0-b826-3d47c53b45b7" class="uuid-d5c17998-3825-4ab1-bb9b-49090134d226" d="M345.35,114.79c-4.92,0-8.91-3.99-8.91-8.9s3.99-8.91,8.9-8.91h0c4.92,0,8.91,3.99,8.91,8.9,0,4.92-3.99,8.91-8.9,8.91h0Z"/><path id="uuid-39812101-50aa-4a3c-9f3e-c3c7ae426bc3" class="uuid-d5c17998-3825-4ab1-bb9b-49090134d226" d="M237.44,195.99c-4.92,0-8.91-3.99-8.91-8.9s3.99-8.91,8.9-8.91h0c4.92,0,8.91,3.99,8.91,8.9s-3.99,8.91-8.9,8.91h0Z"/><path id="uuid-834bf0a8-fe6a-474c-a32a-d7dfc7ef1289" class="uuid-d5c17998-3825-4ab1-bb9b-49090134d226" d="M438.44,240.66c-4.92,0-8.91-3.99-8.91-8.9,0-4.92,3.99-8.91,8.9-8.91h0c4.92,0,8.91,3.99,8.91,8.9s-3.99,8.91-8.9,8.91h0Z"/><path id="uuid-b51c61bc-0d06-4aaa-acf5-40c3f6e5591a" class="uuid-d5c17998-3825-4ab1-bb9b-49090134d226" d="M418.2,351.75c-4.92,0-8.91-3.99-8.91-8.9s3.99-8.91,8.9-8.91h0c4.92,0,8.91,3.99,8.91,8.9s-3.99,8.91-8.9,8.91h0Z"/><path id="uuid-b24a9987-6978-4ca6-8c9c-e30a7d86864e" class="uuid-d5c17998-3825-4ab1-bb9b-49090134d226" d="M291.93,191.03c-4.92,0-8.91-3.99-8.91-8.9,0-4.92,3.99-8.91,8.9-8.91h0c4.92,0,8.91,3.99,8.91,8.9s-3.99,8.91-8.9,8.91h0Z"/><path id="uuid-15da84cb-2f9b-4090-9069-e4411b4e8763" class="uuid-d5c17998-3825-4ab1-bb9b-49090134d226" d="M331.65,154.57c-4.92,0-8.91-3.99-8.91-8.9,0-4.92,3.99-8.91,8.9-8.91h0c4.92,0,8.91,3.99,8.91,8.9s-3.99,8.91-8.9,8.91h0Z"/><path id="uuid-ad099fbe-8ff2-4664-8f35-0198838f2374" class="uuid-d5c17998-3825-4ab1-bb9b-49090134d226" d="M402.6,132.05c-4.92,0-8.91-3.99-8.91-8.9s3.99-8.91,8.9-8.91h0c4.92,0,8.91,3.99,8.91,8.9s-3.99,8.91-8.9,8.91h0Z"/><text class="uuid-1e736adc-e4da-40d9-bb84-b29d74af4f4d" transform="translate(265.96 66.66)"><tspan x="0" y="0">a</tspan><tspan class="uuid-471bffd6-96e4-4c92-a243-2d8568087e7b" x="9.69" y="0">n</tspan><tspan class="uuid-3d725604-d1ab-4247-9837-bcb5039ce626" x="20.29" y="0">t</tspan><tspan x="27.25" y="0">icip</tspan><tspan class="uuid-3d725604-d1ab-4247-9837-bcb5039ce626" x="56.62" y="0">at</tspan><tspan x="73.01" y="0">ion</tspan></text><path id="uuid-3418d9c3-45fd-4465-a036-9a672d86c81d" class="uuid-8d2c882d-5bf2-4dda-8323-5922fe256320" d="M462.46,120.08c-25.71,0-46.55-20.84-46.55-46.55s20.84-46.55,46.55-46.55,46.55,20.84,46.55,46.55-20.84,46.55-46.55,46.55Z"/><path id="uuid-50db7cf2-64c3-48b0-bb81-9d0c4dfa9bb6" class="uuid-baf70780-81e7-4587-a9cb-9a047d50fb79" d="M439.52,73.53c-5.02,0-9.09-4.07-9.09-9.09s4.07-9.09,9.09-9.09,9.09,4.07,9.09,9.09-4.07,9.09-9.09,9.09Z"/><path id="uuid-126c592b-fba0-4aae-9e1d-f88b9874dcb0" class="uuid-baf70780-81e7-4587-a9cb-9a047d50fb79" d="M448.22,102.89c-5.02,0-9.09-4.07-9.09-9.09s4.07-9.09,9.09-9.09,9.09,4.07,9.09,9.09-4.07,9.09-9.09,9.09Z"/><path id="uuid-91c18b1d-41c2-4765-9f5f-c5c26aab711b" class="uuid-baf70780-81e7-4587-a9cb-9a047d50fb79" d="M464.95,59.5c-5.02,0-9.09-4.07-9.09-9.09s4.07-9.09,9.09-9.09,9.09,4.07,9.09,9.09-4.07,9.09-9.09,9.09Z"/><path id="uuid-83cc49aa-0ef7-4c19-9c6a-e76a64f8b638" class="uuid-baf70780-81e7-4587-a9cb-9a047d50fb79" d="M474.04,99.56c-5.02,0-9.09-4.07-9.09-9.09s4.07-9.09,9.09-9.09,9.09,4.07,9.09,9.09-4.07,9.09-9.09,9.09Z"/><path id="uuid-edcb3e38-b8b5-4e09-94f2-b0751c6d6947" class="uuid-baf70780-81e7-4587-a9cb-9a047d50fb79" d="M492.87,82.44c-5.02,0-9.09-4.07-9.09-9.09s4.07-9.09,9.09-9.09,9.09,4.07,9.09,9.09-4.07,9.09-9.09,9.09Z"/><text class="uuid-1e736adc-e4da-40d9-bb84-b29d74af4f4d" transform="translate(439.51 19.49)"><tspan x="0" y="0">disgu</tspan><tspan class="uuid-5c7725d7-5366-4c13-8513-b8f8ba63fba9" x="45.19" y="0">s</tspan><tspan x="52.82" y="0">t</tspan></text><path id="uuid-046565d1-3ea5-46d7-a043-a72b9944fe24" class="uuid-7eb13e3c-5beb-435f-b354-3a487cb33172" d="M226.1,578.08c-52.8,0-95.61-42.81-95.61-95.61s42.81-95.61,95.61-95.61,95.61,42.81,95.61,95.61-42.81,95.61-95.61,95.61Z"/><path id="uuid-d67b842b-3166-4d0c-8873-4a7512fa0938" class="uuid-dd7a778a-731e-4d9f-92d0-d3e96c874f34" d="M229.29,521.48c-11.69,0-21.17-9.48-21.17-21.17s9.48-21.17,21.17-21.17,21.17,9.48,21.17,21.17-9.48,21.17-21.17,21.17Z"/><path id="uuid-308f5519-5f1a-40c3-a19d-f66651cf86a6" class="uuid-dd7a778a-731e-4d9f-92d0-d3e96c874f34" d="M250.46,471.01c-8.61,0-15.6-6.98-15.6-15.6s6.98-15.6,15.6-15.6,15.6,6.98,15.6,15.6-6.98,15.6-15.6,15.6Z"/><path id="uuid-1117b451-953a-43ed-88b8-584f6e7f423c" class="uuid-dd7a778a-731e-4d9f-92d0-d3e96c874f34" d="M197.4,528.83c-4.92,0-8.91-3.99-8.91-8.9s3.99-8.91,8.9-8.91h0c4.92,0,8.91,3.99,8.91,8.9s-3.99,8.91-8.9,8.91h0Z"/><path id="uuid-31bb32a8-b006-4ea9-b80c-1e17092adf93" class="uuid-dd7a778a-731e-4d9f-92d0-d3e96c874f34" d="M268.35,553.31c-4.92,0-8.91-3.99-8.91-8.9s3.99-8.91,8.9-8.91h0c4.92,0,8.91,3.99,8.91,8.9s-3.99,8.91-8.9,8.91h0Z"/><path id="uuid-5806693b-5d08-40fe-9c50-bf5eefc09da9" class="uuid-dd7a778a-731e-4d9f-92d0-d3e96c874f34" d="M157.68,518.12c-4.92,0-8.91-3.99-8.91-8.9s3.99-8.91,8.9-8.91h0c4.92,0,8.91,3.99,8.91,8.9s-3.99,8.91-8.9,8.91h0Z"/><path id="uuid-69a14866-77b3-4f53-a979-26f4753dfe92" class="uuid-dd7a778a-731e-4d9f-92d0-d3e96c874f34" d="M206.31,455.41c-4.92,0-8.91-3.99-8.91-8.9s3.99-8.91,8.9-8.91h0c4.92,0,8.91,3.99,8.91,8.9s-3.99,8.91-8.9,8.91h0Z"/><path id="uuid-a76dd7e2-3dff-4593-8354-fa3ead1f2997" class="uuid-dd7a778a-731e-4d9f-92d0-d3e96c874f34" d="M283.95,473.56c-4.92,0-8.91-3.99-8.91-8.9s3.99-8.91,8.9-8.91h0c4.92,0,8.91,3.99,8.91,8.9,0,4.92-3.99,8.91-8.9,8.91h0Z"/><path id="uuid-1a2ef684-66bc-4db8-82b2-e9572c18e810" class="uuid-dd7a778a-731e-4d9f-92d0-d3e96c874f34" d="M283.95,512.16c-4.92,0-8.91-3.99-8.91-8.9s3.99-8.91,8.9-8.91h0c4.92,0,8.91,3.99,8.91,8.9s-3.99,8.91-8.9,8.91h0Z"/><path id="uuid-8a84ad1f-b45e-48cd-8503-d14d7c16c01e" class="uuid-dd7a778a-731e-4d9f-92d0-d3e96c874f34" d="M168.77,464.32c-4.92,0-8.91-3.99-8.91-8.9s3.99-8.91,8.9-8.91h0c4.92,0,8.91,3.99,8.91,8.9s-3.99,8.91-8.9,8.91h0Z"/><path id="uuid-6a9bfa22-a3a6-4857-8a79-4b1aa9f4712e" class="uuid-dd7a778a-731e-4d9f-92d0-d3e96c874f34" d="M241.42,418.69c-4.92,0-8.91-3.99-8.91-8.9s3.99-8.91,8.9-8.91h0c4.92,0,8.91,3.99,8.91,8.9s-3.99,8.91-8.9,8.91h0Z"/><path id="uuid-e63838ea-21bd-4709-ae20-2b6dad0e07a2" class="uuid-dd7a778a-731e-4d9f-92d0-d3e96c874f34" d="M234.86,563.02c-4.92,0-8.91-3.99-8.91-8.9s3.99-8.91,8.9-8.91h0c4.92,0,8.91,3.99,8.91,8.9,0,4.92-3.99,8.91-8.9,8.91h0Z"/><path id="uuid-2e918bc0-81c9-4943-80c5-80364678c0c2" class="uuid-dd7a778a-731e-4d9f-92d0-d3e96c874f34" d="M195.51,422.22c-4.92,0-8.91-3.99-8.91-8.9s3.99-8.91,8.9-8.91h0c4.92,0,8.91,3.99,8.91,8.9s-3.99,8.91-8.9,8.91h0Z"/><text class="uuid-1e736adc-e4da-40d9-bb84-b29d74af4f4d" transform="translate(182.19 382.22)"><tspan class="uuid-f0e64851-e475-4126-a329-51c2abde94e2" x="0" y="0">f</tspan><tspan x="7" y="0">ear</tspan></text><path id="uuid-167e7675-5a95-4041-9b72-02b514ad4686" class="uuid-5a39de70-0d7b-4a7c-9bfd-95702ec13996" d="M679.94,646.82c-68.89.01-124.75-55.82-124.76-124.71-.01-68.89,55.82-124.75,124.71-124.76h.04c68.89-.01,124.75,55.82,124.76,124.71.01,68.89-55.82,124.75-124.71,124.76h-.04Z"/><path id="uuid-d50d4af8-c024-4533-80e1-484bafab58be" class="uuid-826e9b8a-b426-4c0b-b727-16ece1e254f8" d="M669.58,517.55c-18.79,0-34.03-15.24-34.03-34.03s15.24-34.03,34.03-34.03,34.03,15.24,34.03,34.03-15.24,34.03-34.03,34.03Z"/><path id="uuid-6abecff8-1abc-4e02-a34e-ae063b036e94" class="uuid-826e9b8a-b426-4c0b-b727-16ece1e254f8" d="M604.03,565.83c-16.18,0-29.29-13.12-29.29-29.29s13.12-29.29,29.29-29.29,29.29,13.12,29.29,29.29-13.12,29.29-29.29,29.29Z"/><path id="uuid-7adce5e9-d0f1-49d0-a766-d3e9b002e7e6" class="uuid-826e9b8a-b426-4c0b-b727-16ece1e254f8" d="M747.54,578.09c-11.69,0-21.17-9.48-21.17-21.17s9.48-21.17,21.17-21.17,21.17,9.48,21.17,21.17-9.48,21.17-21.17,21.17Z"/><path id="uuid-389a9cc7-eca5-49dc-a2be-43f5b5aecd64" class="uuid-826e9b8a-b426-4c0b-b727-16ece1e254f8" d="M735.73,467.75c-8.61,0-15.6-6.98-15.6-15.6s6.98-15.6,15.6-15.6,15.6,6.98,15.6,15.6-6.98,15.6-15.6,15.6Z"/><path id="uuid-016b8158-5cc3-4dc0-b031-794ebb8e04e4" class="uuid-826e9b8a-b426-4c0b-b727-16ece1e254f8" d="M768.92,488.1c-8.61,0-15.6-6.98-15.6-15.6s6.98-15.6,15.6-15.6,15.6,6.98,15.6,15.6-6.98,15.6-15.6,15.6Z"/><path id="uuid-4d7bd29e-bd75-4787-94fb-20f991dc5e5b" class="uuid-826e9b8a-b426-4c0b-b727-16ece1e254f8" d="M739.76,505.91c-4.92,0-8.91-3.99-8.91-8.9s3.99-8.91,8.9-8.91h0c4.92,0,8.91,3.99,8.91,8.9s-3.99,8.91-8.9,8.91h0Z"/><path id="uuid-353c8a28-95b9-4440-8586-e3599985d5d8" class="uuid-826e9b8a-b426-4c0b-b727-16ece1e254f8" d="M633.32,614.32c-4.92,0-8.91-3.99-8.91-8.9s3.99-8.91,8.9-8.91h0c4.92,0,8.91,3.99,8.91,8.9s-3.99,8.91-8.9,8.91h0Z"/><path id="uuid-dccfd230-5ccd-474b-ba66-59aae57dd976" class="uuid-826e9b8a-b426-4c0b-b727-16ece1e254f8" d="M673.69,605.42c-4.92,0-8.91-3.99-8.91-8.9s3.99-8.91,8.9-8.91h0c4.92,0,8.91,3.99,8.91,8.9s-3.99,8.91-8.9,8.91h0Z"/><path id="uuid-3a17bf99-ae94-403b-9270-bf662a404820" class="uuid-826e9b8a-b426-4c0b-b727-16ece1e254f8" d="M612.94,481.41c-4.92,0-8.91-3.99-8.91-8.9s3.99-8.91,8.9-8.91h0c4.92,0,8.91,3.99,8.91,8.9s-3.99,8.91-8.9,8.91h0Z"/><path id="uuid-3416aaeb-54b1-45be-ba2e-3734d679e578" class="uuid-826e9b8a-b426-4c0b-b727-16ece1e254f8" d="M653.99,441.82c-4.92,0-8.91-3.99-8.91-8.9s3.99-8.91,8.9-8.91h0c4.92,0,8.91,3.99,8.91,8.9s-3.99,8.91-8.9,8.91h0Z"/><path id="uuid-0454c98d-40cf-4bd8-b516-4aa7918560b4" class="uuid-826e9b8a-b426-4c0b-b727-16ece1e254f8" d="M612.94,601.14c-4.92,0-8.91-3.99-8.91-8.9s3.99-8.91,8.9-8.91h0c4.92,0,8.91,3.99,8.91,8.9s-3.99,8.91-8.9,8.91h0Z"/><path id="uuid-b8e960fb-cd26-4004-a051-3a8f2f63eef3" class="uuid-826e9b8a-b426-4c0b-b727-16ece1e254f8" d="M671.03,556.92c-4.92,0-8.91-3.99-8.91-8.9s3.99-8.91,8.9-8.91h0c4.92,0,8.91,3.99,8.91,8.9s-3.99,8.91-8.9,8.91h0Z"/><path id="uuid-5b9c96b9-fb0d-4533-8775-5c8c8621adbf" class="uuid-826e9b8a-b426-4c0b-b727-16ece1e254f8" d="M697.8,432.91c-4.92,0-8.91-3.99-8.91-8.9s3.99-8.91,8.9-8.91h0c4.92,0,8.91,3.99,8.91,8.9s-3.99,8.91-8.9,8.91h0Z"/><path id="uuid-28fc0a97-d66a-43b2-bff7-074a15d01d91" class="uuid-826e9b8a-b426-4c0b-b727-16ece1e254f8" d="M717.92,522.08c-4.92,0-8.91-3.99-8.91-8.9s3.99-8.91,8.9-8.91h0c4.92,0,8.91,3.99,8.91,8.9s-3.99,8.91-8.9,8.91h0Z"/><path id="uuid-a0256080-7548-4c3a-b426-bdbe55f7ee06" class="uuid-826e9b8a-b426-4c0b-b727-16ece1e254f8" d="M775.37,526.46c-4.92,0-8.91-3.99-8.91-8.9s3.99-8.91,8.9-8.91h0c4.92,0,8.91,3.99,8.91,8.9s-3.99,8.91-8.9,8.91h0Z"/><path id="uuid-b27d8399-f67c-4685-a14f-af53a6bce10b" class="uuid-826e9b8a-b426-4c0b-b727-16ece1e254f8" d="M715.62,610.67c-4.92,0-8.91-3.99-8.91-8.9s3.99-8.91,8.9-8.91h0c4.92,0,8.91,3.99,8.91,8.9s-3.99,8.91-8.9,8.91h0Z"/><path id="uuid-b4e35ff9-1d68-4532-bfeb-1dc0fba81e91" class="uuid-826e9b8a-b426-4c0b-b727-16ece1e254f8" d="M702.32,565.83c-4.92,0-8.91-3.99-8.91-8.9s3.99-8.91,8.9-8.91h0c4.92,0,8.91,3.99,8.91,8.9s-3.99,8.91-8.9,8.91h0Z"/><path id="uuid-4aed284f-7ea3-4410-8af4-67f2755cc036" class="uuid-826e9b8a-b426-4c0b-b727-16ece1e254f8" d="M648.41,577.41c-4.92,0-8.91-3.99-8.91-8.9s3.99-8.91,8.9-8.91h0c4.92,0,8.91,3.99,8.91,8.9s-3.99,8.91-8.9,8.91h0Z"/><text class="uuid-1e736adc-e4da-40d9-bb84-b29d74af4f4d" transform="translate(748.39 409.66)"><tspan x="0" y="0">j</tspan><tspan class="uuid-3d725604-d1ab-4247-9837-bcb5039ce626" x="4.46" y="0">o</tspan><tspan x="14.7" y="0">y</tspan></text><path id="uuid-7c5e6a5d-8b5e-4f52-8eb3-9f380d912e94" class="uuid-9124506f-b23f-44bb-bbb6-1034c9c7f7ab" d="M438.44,621.11c-59.81,0-108.3-48.49-108.3-108.3s48.49-108.3,108.3-108.3,108.3,48.49,108.3,108.3-48.49,108.3-108.3,108.3Z"/><path id="uuid-6f7aba71-5932-4e2f-9037-564d15183f31" class="uuid-e24e90a1-6574-45b4-a90f-359505e43011" d="M466.54,525.11c-21.52,0-38.97-17.45-38.97-38.97s17.45-38.97,38.97-38.97,38.97,17.45,38.97,38.97-17.45,38.97-38.97,38.97Z"/><path id="uuid-4614a228-e064-45f3-8ad3-068aa5486445" class="uuid-e24e90a1-6574-45b4-a90f-359505e43011" d="M382.07,537.94c-18.79,0-34.03-15.24-34.03-34.03s15.24-34.03,34.03-34.03,34.03,15.24,34.03,34.03-15.24,34.03-34.03,34.03Z"/><path id="uuid-5078262f-792f-473d-b4a5-0f0f067b5fac" class="uuid-e24e90a1-6574-45b4-a90f-359505e43011" d="M403.24,587.94c-11.69,0-21.17-9.48-21.17-21.17s9.48-21.17,21.17-21.17,21.17,9.48,21.17,21.17-9.48,21.17-21.17,21.17Z"/><path id="uuid-f657d13b-b034-404e-9306-cd08a5031a22" class="uuid-e24e90a1-6574-45b4-a90f-359505e43011" d="M462.27,573.46c-8.61,0-15.6-6.98-15.6-15.6s6.98-15.6,15.6-15.6,15.6,6.98,15.6,15.6-6.98,15.6-15.6,15.6Z"/><path id="uuid-0d5da7f7-acc9-4194-883c-3ddb6293597d" class="uuid-e24e90a1-6574-45b4-a90f-359505e43011" d="M370.89,462.22c-4.92,0-8.91-3.99-8.91-8.9s3.99-8.91,8.9-8.91h0c4.92,0,8.91,3.99,8.91,8.9s-3.99,8.91-8.9,8.91h0Z"/><path id="uuid-a1edbafe-b8d8-4752-a490-af70677d5f64" class="uuid-e24e90a1-6574-45b4-a90f-359505e43011" d="M416.1,459.05c-4.92,0-8.91-3.99-8.91-8.9s3.99-8.91,8.9-8.91h0c4.92,0,8.91,3.99,8.91,8.9s-3.99,8.91-8.9,8.91h0Z"/><path id="uuid-44d71166-c921-44b6-8b2f-08b741eeb22c" class="uuid-e24e90a1-6574-45b4-a90f-359505e43011" d="M444.45,437.18c-4.92,0-8.91-3.99-8.91-8.9s3.99-8.91,8.9-8.91h0c4.92,0,8.91,3.99,8.91,8.9s-3.99,8.91-8.9,8.91h0Z"/><path id="uuid-b56c722b-47b0-4e2f-833a-79a5cc3fc869" class="uuid-e24e90a1-6574-45b4-a90f-359505e43011" d="M435.54,548.85c-4.92,0-8.91-3.99-8.91-8.9s3.99-8.91,8.9-8.91h0c4.92,0,8.91,3.99,8.91,8.9s-3.99,8.91-8.9,8.91h0Z"/><path id="uuid-dd3520e5-f3c4-4f55-b68b-7f0af1a6354f" class="uuid-e24e90a1-6574-45b4-a90f-359505e43011" d="M444.45,593.88c-4.92,0-8.91-3.99-8.91-8.9s3.99-8.91,8.9-8.91h0c4.92,0,8.91,3.99,8.91,8.9s-3.99,8.91-8.9,8.91h0Z"/><path id="uuid-61da8a5f-7f50-4eb6-a94a-e58604bfb1f6" class="uuid-e24e90a1-6574-45b4-a90f-359505e43011" d="M501.16,547.55c-4.92,0-8.91-3.99-8.91-8.9s3.99-8.91,8.9-8.91h0c4.92,0,8.91,3.99,8.91,8.9s-3.99,8.91-8.9,8.91h0Z"/><path id="uuid-1129cc4b-5341-4f37-91ab-97aeb493ca8e" class="uuid-e24e90a1-6574-45b4-a90f-359505e43011" d="M523.67,512.82c-4.92,0-8.91-3.99-8.91-8.9s3.99-8.91,8.9-8.91h0c4.92,0,8.91,3.99,8.91,8.9s-3.99,8.91-8.9,8.91h0Z"/><path id="uuid-c93ee386-594d-4ab7-a1ad-77db0b75c371" class="uuid-e24e90a1-6574-45b4-a90f-359505e43011" d="M492.25,593.88c-4.92,0-8.91-3.99-8.91-8.9s3.99-8.91,8.9-8.91h0c4.92,0,8.91,3.99,8.91,8.9s-3.99,8.91-8.9,8.91h0Z"/><text class="uuid-1e736adc-e4da-40d9-bb84-b29d74af4f4d" transform="translate(387.71 395.1)"><tspan x="0" y="0">sadness</tspan></text><path id="uuid-a6665fc4-efe2-4209-aed6-8a1846159e48" class="uuid-7253d6a0-453e-4612-8814-a4e384931a3c" d="M73.84,275.11C33.34,275.11.5,242.28.5,201.77s32.84-73.34,73.34-73.34,73.34,32.84,73.34,73.34-32.84,73.34-73.34,73.34Z"/><path id="uuid-4535a3bd-ee7e-4a76-9385-fe0b73b19f0c" class="uuid-5e3a30ea-b034-4f26-a618-653f2b69e812" d="M77.66,261.51c-21.52,0-38.97-17.45-38.97-38.97s17.45-38.97,38.97-38.97,38.97,17.45,38.97,38.97-17.45,38.97-38.97,38.97Z"/><path id="uuid-179963b5-8742-4ef8-aa6e-69d413373f8d" class="uuid-5e3a30ea-b034-4f26-a618-653f2b69e812" d="M27.7,199.56c-8.61,0-15.6-6.98-15.6-15.6s6.98-15.6,15.6-15.6,15.6,6.98,15.6,15.6-6.98,15.6-15.6,15.6Z"/><path id="uuid-13a38948-7931-446f-9982-2a0addcbe654" class="uuid-5e3a30ea-b034-4f26-a618-653f2b69e812" d="M125.54,207.52c-4.92,0-8.91-3.99-8.91-8.9,0-4.92,3.99-8.91,8.9-8.91h0c4.92,0,8.91,3.99,8.91,8.9s-3.99,8.91-8.9,8.91h0Z"/><path id="uuid-265491f4-09ad-454d-8b57-0ff4c93079cd" class="uuid-5e3a30ea-b034-4f26-a618-653f2b69e812" d="M52.2,157.22c-4.92,0-8.91-3.99-8.91-8.9,0-4.92,3.99-8.91,8.9-8.91h0c4.92,0,8.91,3.99,8.91,8.9s-3.99,8.91-8.9,8.91h0Z"/><path id="uuid-83287ee1-4fd0-439a-9eae-48c28b9c34d3" class="uuid-5e3a30ea-b034-4f26-a618-653f2b69e812" d="M95.48,177.27c-4.92,0-8.91-3.99-8.91-8.9,0-4.92,3.99-8.91,8.9-8.91h0c4.92,0,8.91,3.99,8.91,8.9s-3.99,8.91-8.9,8.91h0Z"/><path id="uuid-f4b6a8ad-5c06-43da-a2c8-a9af29d2a888" class="uuid-5e3a30ea-b034-4f26-a618-653f2b69e812" d="M64.93,177.27c-4.92,0-8.91-3.99-8.91-8.9,0-4.92,3.99-8.91,8.9-8.91h0c4.92,0,8.91,3.99,8.91,8.9s-3.99,8.91-8.9,8.91h0Z"/><text class="uuid-1e736adc-e4da-40d9-bb84-b29d74af4f4d" transform="translate(15.83 122.54)"><tspan x="0" y="0">surprise</tspan></text><path id="uuid-ac5d4abe-dd7b-4637-86f6-95c7ac2577c3" class="uuid-34277670-8abf-4f22-86e7-1456addf8f23" d="M667.98,391.88c-100.84,0-182.58-81.74-182.58-182.58S567.14,26.72,667.98,26.72s182.58,81.74,182.58,182.58-81.74,182.58-182.58,182.58Z"/><path id="uuid-a9ad52cf-8713-4d53-b9d2-ecaf83c78a32" class="uuid-2792c35f-1a1b-4c5e-b861-a2ab5083db77" d="M588.44,287.97c-21.52,0-38.97-17.45-38.97-38.97s17.45-38.97,38.97-38.97,38.97,17.45,38.97,38.97-17.45,38.97-38.97,38.97Z"/><path id="uuid-1a4ed22e-eb17-4151-a8b5-309f32e47322" class="uuid-2792c35f-1a1b-4c5e-b861-a2ab5083db77" d="M678.21,303.04c-21.52,0-38.97-17.45-38.97-38.97s17.45-38.97,38.97-38.97,38.97,17.45,38.97,38.97-17.45,38.97-38.97,38.97Z"/><path id="uuid-85a40c29-81cd-4850-8a8b-90e4e59f2976" class="uuid-2792c35f-1a1b-4c5e-b861-a2ab5083db77" d="M762.59,283.03c-18.79,0-34.03-15.24-34.03-34.03s15.24-34.03,34.03-34.03,34.03,15.24,34.03,34.03-15.24,34.03-34.03,34.03Z"/><path id="uuid-a603a8f9-e6ca-48ac-88d7-98999948d0c9" class="uuid-2792c35f-1a1b-4c5e-b861-a2ab5083db77" d="M728.56,209.67c-16.1,0-29.16-13.05-29.16-29.16s13.05-29.16,29.16-29.16,29.16,13.05,29.16,29.16-13.05,29.16-29.16,29.16Z"/><path id="uuid-9302d596-112b-4d91-900e-deccad1318f0" class="uuid-2792c35f-1a1b-4c5e-b861-a2ab5083db77" d="M665.41,177.29c-14.38,0-26.04-11.66-26.04-26.04s11.66-26.04,26.04-26.04,26.04,11.66,26.04,26.04-11.66,26.04-26.04,26.04Z"/><path id="uuid-29e00c61-5c7c-4e48-b99a-17fd3e3b7005" class="uuid-2792c35f-1a1b-4c5e-b861-a2ab5083db77" d="M614.49,150.59c-14.38,0-26.04-11.66-26.04-26.04s11.66-26.04,26.04-26.04,26.04,11.66,26.04,26.04-11.66,26.04-26.04,26.04Z"/><path id="uuid-ae56884d-522f-450d-9b74-7a50db2be39b" class="uuid-2792c35f-1a1b-4c5e-b861-a2ab5083db77" d="M707.39,142.95c-11.69,0-21.17-9.48-21.17-21.17s9.48-21.17,21.17-21.17,21.17,9.48,21.17,21.17-9.48,21.17-21.17,21.17Z"/><path id="uuid-cdceca0f-cc1f-4659-be80-4089ac66ac2c" class="uuid-2792c35f-1a1b-4c5e-b861-a2ab5083db77" d="M693.81,98.74c-8.61,0-15.6-6.98-15.6-15.6s6.98-15.6,15.6-15.6,15.6,6.98,15.6,15.6-6.98,15.6-15.6,15.6Z"/><path id="uuid-81370b4a-811a-48ee-b29c-bc19a61db04b" class="uuid-2792c35f-1a1b-4c5e-b861-a2ab5083db77" d="M618.05,192.89c-8.61,0-15.6-6.98-15.6-15.6s6.98-15.6,15.6-15.6,15.6,6.98,15.6,15.6-6.98,15.6-15.6,15.6Z"/><path id="uuid-df033be3-13c6-4d42-b1d7-9ad9aa63b9b2" class="uuid-2792c35f-1a1b-4c5e-b861-a2ab5083db77" d="M652.38,221.22c-8.61,0-15.6-6.98-15.6-15.6s6.98-15.6,15.6-15.6,15.6,6.98,15.6,15.6-6.98,15.6-15.6,15.6Z"/><path id="uuid-f6330b3d-69dd-4108-80fb-1c7fb58d00ae" class="uuid-2792c35f-1a1b-4c5e-b861-a2ab5083db77" d="M652.38,109.89c-8.61,0-15.6-6.98-15.6-15.6s6.98-15.6,15.6-15.6,15.6,6.98,15.6,15.6-6.98,15.6-15.6,15.6Z"/><path id="uuid-ac90b6e3-df92-4081-93be-9222bf3f1844" class="uuid-2792c35f-1a1b-4c5e-b861-a2ab5083db77" d="M753.25,125.61c-8.61,0-15.6-6.98-15.6-15.6s6.98-15.6,15.6-15.6,15.6,6.98,15.6,15.6-6.98,15.6-15.6,15.6Z"/><path id="uuid-f4800415-74af-4f95-8699-172b4c30579e" class="uuid-2792c35f-1a1b-4c5e-b861-a2ab5083db77" d="M568.47,185.39c-14.38,0-26.04-11.66-26.04-26.04s11.66-26.04,26.04-26.04,26.04,11.66,26.04,26.04-11.66,26.04-26.04,26.04Z"/><path id="uuid-c9cd3fbc-94a6-4156-97f0-0769aefe613c" class="uuid-2792c35f-1a1b-4c5e-b861-a2ab5083db77" d="M578.48,333.73c-4.92,0-8.91-3.99-8.91-8.9,0-4.92,3.99-8.91,8.9-8.91h0c4.92,0,8.91,3.99,8.91,8.9s-3.99,8.91-8.9,8.91h0Z"/><path id="uuid-1775dd6f-a803-453e-bcc3-20aa255e98e2" class="uuid-2792c35f-1a1b-4c5e-b861-a2ab5083db77" d="M618.51,344.29c-4.92,0-8.91-3.99-8.91-8.9,0-4.92,3.99-8.91,8.9-8.91h0c4.92,0,8.91,3.99,8.91,8.9s-3.99,8.91-8.9,8.91h0Z"/><path id="uuid-7bbc500c-de34-4b26-845e-f596273e9feb" class="uuid-2792c35f-1a1b-4c5e-b861-a2ab5083db77" d="M542.43,305.33c-4.92,0-8.91-3.99-8.91-8.9,0-4.92,3.99-8.91,8.9-8.91h0c4.92,0,8.91,3.99,8.91,8.9s-3.99,8.91-8.9,8.91h0Z"/><path id="uuid-96a55f27-fe6d-4f5a-bc8f-eab0b19c64c4" class="uuid-2792c35f-1a1b-4c5e-b861-a2ab5083db77" d="M728.56,74.24c-4.92,0-8.91-3.99-8.91-8.9,0-4.92,3.99-8.91,8.9-8.91h0c4.92,0,8.91,3.99,8.91,8.9s-3.99,8.91-8.9,8.91h0Z"/><path id="uuid-befff185-b38b-4f26-9264-4867f231cd43" class="uuid-2792c35f-1a1b-4c5e-b861-a2ab5083db77" d="M614.49,311.95c-4.92,0-8.91-3.99-8.91-8.9,0-4.92,3.99-8.91,8.9-8.91h0c4.92,0,8.91,3.99,8.91,8.9s-3.99,8.91-8.9,8.91h0Z"/><path id="uuid-9faeeb92-fefa-4151-855e-d203f80944c2" class="uuid-2792c35f-1a1b-4c5e-b861-a2ab5083db77" d="M656.5,332.13c-4.92,0-8.91-3.99-8.91-8.9,0-4.92,3.99-8.91,8.9-8.91h0c4.92,0,8.91,3.99,8.91,8.9s-3.99,8.91-8.9,8.91h0Z"/><path id="uuid-03a21110-1c56-4479-ba4c-cef3b9809638" class="uuid-2792c35f-1a1b-4c5e-b861-a2ab5083db77" d="M691.45,353.2c-4.92,0-8.91-3.99-8.91-8.9,0-4.92,3.99-8.91,8.9-8.91h0c4.92,0,8.91,3.99,8.91,8.9s-3.99,8.91-8.9,8.91h0Z"/><path id="uuid-913a326e-cf09-405b-816e-84c53552bebc" class="uuid-2792c35f-1a1b-4c5e-b861-a2ab5083db77" d="M722.93,326.48c-4.92,0-8.91-3.99-8.91-8.9,0-4.92,3.99-8.91,8.9-8.91h0c4.92,0,8.91,3.99,8.91,8.9s-3.99,8.91-8.9,8.91h0Z"/><path id="uuid-f625d42a-2057-4e42-8b2b-1fbf7754f636" class="uuid-2792c35f-1a1b-4c5e-b861-a2ab5083db77" d="M785.55,192.46c-4.92,0-8.91-3.99-8.91-8.9,0-4.92,3.99-8.91,8.9-8.91h0c4.92,0,8.91,3.99,8.91,8.9s-3.99,8.91-8.9,8.91h0Z"/><path id="uuid-a1127c63-2a6d-4777-ba48-2a828dbc8808" class="uuid-2792c35f-1a1b-4c5e-b861-a2ab5083db77" d="M588.44,92.05c-4.92,0-8.91-3.99-8.91-8.9,0-4.92,3.99-8.91,8.9-8.91h0c4.92,0,8.91,3.99,8.91,8.9s-3.99,8.91-8.9,8.91h0Z"/><path id="uuid-875b6351-90c9-4d33-b048-2bc8936865f0" class="uuid-2792c35f-1a1b-4c5e-b861-a2ab5083db77" d="M771.49,155.19c-4.92,0-8.91-3.99-8.91-8.9,0-4.92,3.99-8.91,8.9-8.91h0c4.92,0,8.91,3.99,8.91,8.9s-3.99,8.91-8.9,8.91h0Z"/><path id="uuid-8bdeaf58-7bb2-4c00-a1ab-c4f8f64d085b" class="uuid-2792c35f-1a1b-4c5e-b861-a2ab5083db77" d="M753.25,315.66c-4.92,0-8.91-3.99-8.91-8.9,0-4.92,3.99-8.91,8.9-8.91h0c4.92,0,8.91,3.99,8.91,8.9s-3.99,8.91-8.9,8.91h0Z"/><path id="uuid-9bc241a9-0f83-46e4-abe9-8ec0b3d54157" class="uuid-2792c35f-1a1b-4c5e-b861-a2ab5083db77" d="M548.12,218.93c-4.92,0-8.91-3.99-8.91-8.9,0-4.92,3.99-8.91,8.9-8.91h0c4.92,0,8.91,3.99,8.91,8.9s-3.99,8.91-8.9,8.91h0Z"/><path id="uuid-82c91218-3c8c-44a7-8bc8-4ff50a16f182" class="uuid-2792c35f-1a1b-4c5e-b861-a2ab5083db77" d="M785.55,307.49c-4.92,0-8.91-3.99-8.91-8.9,0-4.92,3.99-8.91,8.9-8.91h0c4.92,0,8.91,3.99,8.91,8.9s-3.99,8.91-8.9,8.91h0Z"/><path id="uuid-3c53a93f-49de-48eb-9749-50e79addfeb2" class="uuid-2792c35f-1a1b-4c5e-b861-a2ab5083db77" d="M825.53,249c-4.92,0-8.91-3.99-8.91-8.9,0-4.92,3.99-8.91,8.9-8.91h0c4.92,0,8.91,3.99,8.91,8.9s-3.99,8.91-8.9,8.91h0Z"/><text class="uuid-1e736adc-e4da-40d9-bb84-b29d74af4f4d" transform="translate(646.97 15.59)"><tspan class="uuid-3d725604-d1ab-4247-9837-bcb5039ce626" x="0" y="0">t</tspan><tspan x="6.96" y="0">ru</tspan><tspan class="uuid-5c7725d7-5366-4c13-8513-b8f8ba63fba9" x="24.9" y="0">s</tspan><tspan x="32.53" y="0">t</tspan></text></g></svg>