<?xml version="1.0" encoding="UTF-8"?><svg id="uuid-6610336d-dce0-4eb1-b268-5a8b11eb702e" xmlns="http://www.w3.org/2000/svg" viewBox="0 0 851.06 646.82"><defs><style>.uuid-d485cbf4-dfa5-4e34-8072-eb490931fb0f{fill:#ff7f0e;}.uuid-582bcd1e-5ba1-41ae-bbfe-b9980937fa16{fill:#f78d1e;stroke:#f7931e;}.uuid-582bcd1e-5ba1-41ae-bbfe-b9980937fa16,.uuid-49b3bfc5-c55f-419e-913b-5a735e03d170,.uuid-742b2cd3-a37b-4f0f-a312-c0d73f2323c6,.uuid-2ec9cb64-9d06-42c4-8846-40638a0ba67b,.uuid-98570b69-6842-492d-8e55-37c854eaaa35,.uuid-ee00cba5-89d9-4f2a-ab16-f681b9fd1673,.uuid-25b35fde-45cd-4711-ac29-e81ec174bc19,.uuid-15f7b409-67e1-4736-84c0-ace05986310b{opacity:.2;}.uuid-40dd0a8d-bf3a-41ef-941f-b0059f5f7917{fill:#fff;font-family:KumbhSans-Bold, 'Kumbh Sans';font-size:14px;font-variation-settings:'YOPQ' 300, 'wght' 700;font-weight:700;}.uuid-40dd0a8d-bf3a-41ef-941f-b0059f5f7917,.uuid-7873ef35-850b-4767-a372-608c101d0b98{isolation:isolate;}.uuid-ca612b41-8969-4f25-8f60-53090e28047e,.uuid-2ec9cb64-9d06-42c4-8846-40638a0ba67b{fill:#ffcd34;}.uuid-75a9fb43-fabe-47f8-829c-34e6637069c8,.uuid-49b3bfc5-c55f-419e-913b-5a735e03d170{fill:#e53598;}.uuid-c63a58d3-7e5d-4a56-9d98-2fdda6d5d910,.uuid-ee00cba5-89d9-4f2a-ab16-f681b9fd1673{fill:#00718b;stroke:#00718b;}.uuid-7873ef35-850b-4767-a372-608c101d0b98{font-family:KumbhSans-Medium, 'Kumbh Sans';font-size:18px;font-variation-settings:'YOPQ' 300, 'wght' 500;font-weight:500;}.uuid-742b2cd3-a37b-4f0f-a312-c0d73f2323c6,.uuid-bbb01d5c-a1ec-4964-9e7f-900dfb9fd140{fill:#06499a;}.uuid-2ec9cb64-9d06-42c4-8846-40638a0ba67b{stroke:#ffc831;}.uuid-545d3bab-3204-4fde-9029-7454e145b68b,.uuid-98570b69-6842-492d-8e55-37c854eaaa35{fill:#324a36;}.uuid-98570b69-6842-492d-8e55-37c854eaaa35{stroke:#324a36;stroke-width:3px;}.uuid-dd62cf4a-f173-4b0d-9a04-0b8eec25da5b,.uuid-25b35fde-45cd-4711-ac29-e81ec174bc19{fill:#2ca02c;}.uuid-270441ab-223d-4772-b520-97f4e2507bf9{fill:#f69175;}.uuid-fa85d7ab-271c-479b-a277-ccbdaea4304e{opacity:.28;}.uuid-ee00cba5-89d9-4f2a-ab16-f681b9fd1673{stroke-miterlimit:10;stroke-width:4px;}.uuid-25b35fde-45cd-4711-ac29-e81ec174bc19{stroke:#2ca02c;}.uuid-15f7b409-67e1-4736-84c0-ace05986310b{stroke:#9962d8;}.uuid-15f7b409-67e1-4736-84c0-ace05986310b,.uuid-1fe8cda6-662f-4a08-8294-66e635d68f75{fill:#9962d8;}.uuid-4b65f41c-69d7-4200-bfa2-7597c34a3881{letter-spacing:-.01em;}.uuid-5d39c489-bb62-4fc5-9038-e5396c4d798b{letter-spacing:-.03em;}.uuid-7aa4c3fc-8e3f-4121-96cd-32d3657da0cd{letter-spacing:0em;}.uuid-ef6ec06e-a308-4b64-b6fb-ef24bc957ca9{letter-spacing:0em;}</style></defs><g id="uuid-fe326eff-9c26-47c4-b648-580a08c039d1"><g class="uuid-fa85d7ab-271c-479b-a277-ccbdaea4304e"><path id="uuid-9d8808ec-8977-40a7-8906-897a9586398c" class="uuid-ee00cba5-89d9-4f2a-ab16-f681b9fd1673" d="M110.23,418.67c-37.06,0-67.1-30.03-67.11-67.09,0-37.06,30.03-67.1,67.09-67.11h.02c37.06,0,67.1,30.03,67.11,67.09,0,37.06-30.03,67.1-67.09,67.11h-.02Z"/><text class="uuid-7873ef35-850b-4767-a372-608c101d0b98" transform="translate(17.76 293.88)"><tspan x="0" y="0">anger</tspan></text><path id="uuid-52582a49-a952-4092-90d4-2fc035f129e6" class="uuid-c63a58d3-7e5d-4a56-9d98-2fdda6d5d910" d="M66.87,348.61c-5.02,0-9.09-4.07-9.09-9.09s4.07-9.09,9.09-9.09,9.09,4.07,9.09,9.09-4.07,9.09-9.09,9.09Z"/><path id="uuid-d2901b6b-6d9f-43cd-87fc-ab4bd8d211ce" class="uuid-c63a58d3-7e5d-4a56-9d98-2fdda6d5d910" d="M99.69,325.12c-5.02,0-9.09-4.07-9.09-9.09s4.07-9.09,9.09-9.09,9.09,4.07,9.09,9.09-4.07,9.09-9.09,9.09Z"/><path id="uuid-9f05b3e6-97f1-4177-bf8f-4b033e3adace" class="uuid-c63a58d3-7e5d-4a56-9d98-2fdda6d5d910" d="M75.96,391.74c-5.02,0-9.09-4.07-9.09-9.09s4.07-9.09,9.09-9.09,9.09,4.07,9.09,9.09-4.07,9.09-9.09,9.09Z"/><path id="uuid-6a168d2a-e460-4f48-93d1-870b58cc959f" class="uuid-c63a58d3-7e5d-4a56-9d98-2fdda6d5d910" d="M143.71,332.58c-5.02,0-9.09-4.07-9.09-9.09s4.07-9.09,9.09-9.09,9.09,4.07,9.09,9.09-4.07,9.09-9.09,9.09Z"/><path id="uuid-74f0f173-3950-4be6-b647-9887f77ed4ad" class="uuid-c63a58d3-7e5d-4a56-9d98-2fdda6d5d910" d="M103.07,358.94c-5.02,0-9.09-4.07-9.09-9.09s4.07-9.09,9.09-9.09,9.09,4.07,9.09,9.09-4.07,9.09-9.09,9.09Z"/><path id="uuid-2cdf3ca4-e7ab-438b-96b5-2901c6db2880" class="uuid-c63a58d3-7e5d-4a56-9d98-2fdda6d5d910" d="M151.04,367.92c-5.02,0-9.09-4.07-9.09-9.09s4.07-9.09,9.09-9.09,9.09,4.07,9.09,9.09-4.07,9.09-9.09,9.09Z"/><path id="uuid-b9547205-52db-4ccc-b05a-d53126bfc2cc" class="uuid-c63a58d3-7e5d-4a56-9d98-2fdda6d5d910" d="M122.31,401.46c-8.61,0-15.6-6.98-15.6-15.6s6.98-15.6,15.6-15.6,15.6,6.98,15.6,15.6-6.98,15.6-15.6,15.6Z"/></g><path id="uuid-30beb4da-ad72-4bf5-8b0b-a57cd46872be" class="uuid-582bcd1e-5ba1-41ae-bbfe-b9980937fa16" d="M316.29,399.12c-90.32,0-163.54-73.22-163.54-163.54s73.22-163.54,163.54-163.54,163.54,73.22,163.54,163.54-73.22,163.54-163.54,163.54Z"/><path id="uuid-ef23d21c-8352-48c3-9805-9eb491b47fe6" class="uuid-d485cbf4-dfa5-4e34-8072-eb490931fb0f" d="M205.85,163.66c-4.92,0-8.91-3.99-8.91-8.9s3.99-8.91,8.9-8.91h0c4.92,0,8.91,3.99,8.91,8.9s-3.99,8.91-8.9,8.91h0Z"/><path id="uuid-203d57c6-12ec-4713-a3dc-42b078a2d0bd" class="uuid-d485cbf4-dfa5-4e34-8072-eb490931fb0f" d="M373.57,231.76c-8.61,0-15.6-6.98-15.6-15.6s6.98-15.6,15.6-15.6,15.6,6.98,15.6,15.6-6.98,15.6-15.6,15.6Z"/><path id="uuid-fa186a4f-0c66-4bb7-9bd6-aabf76ab1316" class="uuid-d485cbf4-dfa5-4e34-8072-eb490931fb0f" d="M226.1,312.36c-16.1,0-29.16-13.05-29.16-29.16s13.05-29.16,29.16-29.16,29.16,13.05,29.16,29.16-13.05,29.16-29.16,29.16Z"/><path id="uuid-4ffb2693-6b02-4c2c-8a48-4ebc4304b8af" class="uuid-d485cbf4-dfa5-4e34-8072-eb490931fb0f" d="M297.62,376.87c-18.79,0-34.03-15.24-34.03-34.03s15.24-34.03,34.03-34.03,34.03,15.24,34.03,34.03-15.24,34.03-34.03,34.03Z"/><path id="uuid-ef7b0702-4433-4762-b2a2-e40094c91a9b" class="uuid-d485cbf4-dfa5-4e34-8072-eb490931fb0f" d="M378.1,327.41c-21.52,0-38.97-17.45-38.97-38.97s17.45-38.97,38.97-38.97,38.97,17.45,38.97,38.97-17.45,38.97-38.97,38.97Z"/><path id="uuid-13386898-bf80-46f4-8e30-670ff7fdaaa1" class="uuid-d485cbf4-dfa5-4e34-8072-eb490931fb0f" d="M270.76,249.46c-11.69,0-21.17-9.48-21.17-21.17s9.48-21.17,21.17-21.17,21.17,9.48,21.17,21.17-9.48,21.17-21.17,21.17Z"/><path id="uuid-ec81e76f-3360-4c6c-9e9b-c1c20b35fec7" class="uuid-d485cbf4-dfa5-4e34-8072-eb490931fb0f" d="M324.19,246.42c-11.69,0-21.17-9.48-21.17-21.17s9.48-21.17,21.17-21.17,21.17,9.48,21.17,21.17-9.48,21.17-21.17,21.17Z"/><path id="uuid-4ca2e543-2754-42ac-a00a-9a08c83ed0e0" class="uuid-d485cbf4-dfa5-4e34-8072-eb490931fb0f" d="M345.35,197.72c-8.61,0-15.6-6.98-15.6-15.6s6.98-15.6,15.6-15.6,15.6,6.98,15.6,15.6-6.98,15.6-15.6,15.6Z"/><path id="uuid-e94e54cb-6eaa-435c-82f0-b7fc9f17082f" class="uuid-d485cbf4-dfa5-4e34-8072-eb490931fb0f" d="M393.69,193.44c-8.61,0-15.6-6.98-15.6-15.6s6.98-15.6,15.6-15.6,15.6,6.98,15.6,15.6-6.98,15.6-15.6,15.6Z"/><path id="uuid-be6ffbba-b68c-458a-b89c-3cfd02605a11" class="uuid-d485cbf4-dfa5-4e34-8072-eb490931fb0f" d="M246.35,150.23c-4.92,0-8.91-3.99-8.91-8.9s3.99-8.91,8.9-8.91h0c4.92,0,8.91,3.99,8.91,8.9s-3.99,8.91-8.9,8.91h0Z"/><path id="uuid-0b55b160-5a6e-4829-a543-cf550ba2dcaa" class="uuid-d485cbf4-dfa5-4e34-8072-eb490931fb0f" d="M188.94,240.66c-4.92,0-8.91-3.99-8.91-8.9s3.99-8.91,8.9-8.91h0c4.92,0,8.91,3.99,8.91,8.9s-3.99,8.91-8.9,8.91h0Z"/><path id="uuid-29bdb8ae-5fa4-4da2-83f8-22623b447060" class="uuid-d485cbf4-dfa5-4e34-8072-eb490931fb0f" d="M288.71,122.95c-4.92,0-8.91-3.99-8.91-8.9s3.99-8.91,8.9-8.91h0c4.92,0,8.91,3.99,8.91,8.9s-3.99,8.91-8.9,8.91h0Z"/><path id="uuid-b5aad50d-1b9a-4b17-b560-d6d34264dec7" class="uuid-d485cbf4-dfa5-4e34-8072-eb490931fb0f" d="M218.83,351.75c-4.92,0-8.91-3.99-8.91-8.9s3.99-8.91,8.9-8.91h0c4.92,0,8.91,3.99,8.91,8.9s-3.99,8.91-8.9,8.91h0Z"/><path id="uuid-96afe573-5de7-4815-82f3-c47364916603" class="uuid-d485cbf4-dfa5-4e34-8072-eb490931fb0f" d="M283.02,302.65c-4.92,0-8.91-3.99-8.91-8.9s3.99-8.91,8.9-8.91h0c4.92,0,8.91,3.99,8.91,8.9s-3.99,8.91-8.9,8.91h0Z"/><path id="uuid-9046260e-7765-487f-bd3e-69ebd692cc6d" class="uuid-d485cbf4-dfa5-4e34-8072-eb490931fb0f" d="M354.26,376.87c-4.92,0-8.91-3.99-8.91-8.9s3.99-8.91,8.9-8.91h0c4.92,0,8.91,3.99,8.91,8.9s-3.99,8.91-8.9,8.91h0Z"/><path id="uuid-14fc7514-edf2-47a6-a3e6-47f5b7346498" class="uuid-d485cbf4-dfa5-4e34-8072-eb490931fb0f" d="M345.35,114.79c-4.92,0-8.91-3.99-8.91-8.9s3.99-8.91,8.9-8.91h0c4.92,0,8.91,3.99,8.91,8.9,0,4.92-3.99,8.91-8.9,8.91h0Z"/><path id="uuid-667b29f3-fb0b-4ded-b4fe-32e6a10cb973" class="uuid-d485cbf4-dfa5-4e34-8072-eb490931fb0f" d="M237.44,195.99c-4.92,0-8.91-3.99-8.91-8.9s3.99-8.91,8.9-8.91h0c4.92,0,8.91,3.99,8.91,8.9s-3.99,8.91-8.9,8.91h0Z"/><path id="uuid-9e61827f-b80d-42ab-a4b5-4ad8d7e0eb89" class="uuid-d485cbf4-dfa5-4e34-8072-eb490931fb0f" d="M438.44,240.66c-4.92,0-8.91-3.99-8.91-8.9,0-4.92,3.99-8.91,8.9-8.91h0c4.92,0,8.91,3.99,8.91,8.9s-3.99,8.91-8.9,8.91h0Z"/><path id="uuid-9b7d2cf2-1f0f-4222-ab69-ef7c18156553" class="uuid-d485cbf4-dfa5-4e34-8072-eb490931fb0f" d="M418.2,351.75c-4.92,0-8.91-3.99-8.91-8.9s3.99-8.91,8.9-8.91h0c4.92,0,8.91,3.99,8.91,8.9s-3.99,8.91-8.9,8.91h0Z"/><path id="uuid-6bfd3682-a3b0-4f3b-bf82-d73cb585c793" class="uuid-d485cbf4-dfa5-4e34-8072-eb490931fb0f" d="M291.93,191.03c-4.92,0-8.91-3.99-8.91-8.9,0-4.92,3.99-8.91,8.9-8.91h0c4.92,0,8.91,3.99,8.91,8.9s-3.99,8.91-8.9,8.91h0Z"/><path id="uuid-c4667e61-690b-4b47-b8da-de6b27b2a0f6" class="uuid-d485cbf4-dfa5-4e34-8072-eb490931fb0f" d="M331.65,154.57c-4.92,0-8.91-3.99-8.91-8.9,0-4.92,3.99-8.91,8.9-8.91h0c4.92,0,8.91,3.99,8.91,8.9s-3.99,8.91-8.9,8.91h0Z"/><path id="uuid-30200a6c-7a61-4fe0-952e-b335bc951e05" class="uuid-d485cbf4-dfa5-4e34-8072-eb490931fb0f" d="M402.6,132.05c-4.92,0-8.91-3.99-8.91-8.9s3.99-8.91,8.9-8.91h0c4.92,0,8.91,3.99,8.91,8.9,0,4.92-3.99,8.91-8.9,8.91h0Z"/><text class="uuid-7873ef35-850b-4767-a372-608c101d0b98" transform="translate(265.96 66.66)"><tspan x="0" y="0">a</tspan><tspan class="uuid-ef6ec06e-a308-4b64-b6fb-ef24bc957ca9" x="9.69" y="0">n</tspan><tspan class="uuid-4b65f41c-69d7-4200-bfa2-7597c34a3881" x="20.29" y="0">t</tspan><tspan x="27.25" y="0">icip</tspan><tspan class="uuid-4b65f41c-69d7-4200-bfa2-7597c34a3881" x="56.62" y="0">at</tspan><tspan x="73.01" y="0">ion</tspan></text><g class="uuid-fa85d7ab-271c-479b-a277-ccbdaea4304e"><path id="uuid-5622d0c7-fd39-432a-a235-73bbd7fed83b" class="uuid-25b35fde-45cd-4711-ac29-e81ec174bc19" d="M462.46,120.08c-25.71,0-46.55-20.84-46.55-46.55s20.84-46.55,46.55-46.55,46.55,20.84,46.55,46.55-20.84,46.55-46.55,46.55Z"/><path id="uuid-9eb94cb3-be26-457f-82c9-31edd875c2af" class="uuid-dd62cf4a-f173-4b0d-9a04-0b8eec25da5b" d="M439.52,73.53c-5.02,0-9.09-4.07-9.09-9.09s4.07-9.09,9.09-9.09,9.09,4.07,9.09,9.09-4.07,9.09-9.09,9.09Z"/><path id="uuid-e1d5f9d8-402a-4da6-b4c6-e038666e2e2f" class="uuid-dd62cf4a-f173-4b0d-9a04-0b8eec25da5b" d="M448.22,102.89c-5.02,0-9.09-4.07-9.09-9.09s4.07-9.09,9.09-9.09,9.09,4.07,9.09,9.09-4.07,9.09-9.09,9.09Z"/><path id="uuid-68944034-e320-464f-9c48-1207d3332e62" class="uuid-dd62cf4a-f173-4b0d-9a04-0b8eec25da5b" d="M464.95,59.5c-5.02,0-9.09-4.07-9.09-9.09s4.07-9.09,9.09-9.09,9.09,4.07,9.09,9.09-4.07,9.09-9.09,9.09Z"/><path id="uuid-32efbc83-82bb-4cf7-9f79-b71b41465150" class="uuid-dd62cf4a-f173-4b0d-9a04-0b8eec25da5b" d="M474.04,99.56c-5.02,0-9.09-4.07-9.09-9.09s4.07-9.09,9.09-9.09,9.09,4.07,9.09,9.09-4.07,9.09-9.09,9.09Z"/><path id="uuid-8f9a4a75-8961-403b-b97d-45951f2962b0" class="uuid-dd62cf4a-f173-4b0d-9a04-0b8eec25da5b" d="M492.87,82.44c-5.02,0-9.09-4.07-9.09-9.09s4.07-9.09,9.09-9.09,9.09,4.07,9.09,9.09-4.07,9.09-9.09,9.09Z"/><text class="uuid-7873ef35-850b-4767-a372-608c101d0b98" transform="translate(439.51 19.49)"><tspan x="0" y="0">disgu</tspan><tspan class="uuid-7aa4c3fc-8e3f-4121-96cd-32d3657da0cd" x="45.19" y="0">s</tspan><tspan x="52.82" y="0">t</tspan></text></g><g class="uuid-fa85d7ab-271c-479b-a277-ccbdaea4304e"><path id="uuid-6a3ceec2-a83f-4f72-8527-3526ccbe936d" class="uuid-742b2cd3-a37b-4f0f-a312-c0d73f2323c6" d="M226.1,578.08c-52.8,0-95.61-42.81-95.61-95.61s42.81-95.61,95.61-95.61,95.61,42.81,95.61,95.61-42.81,95.61-95.61,95.61Z"/><path id="uuid-2c08e986-7af8-4837-b9e7-ee67c27c7205" class="uuid-bbb01d5c-a1ec-4964-9e7f-900dfb9fd140" d="M229.29,521.48c-11.69,0-21.17-9.48-21.17-21.17s9.48-21.17,21.17-21.17,21.17,9.48,21.17,21.17-9.48,21.17-21.17,21.17Z"/><path id="uuid-c8006397-054c-41f8-87a2-2b2c370f2ada" class="uuid-bbb01d5c-a1ec-4964-9e7f-900dfb9fd140" d="M250.46,471.01c-8.61,0-15.6-6.98-15.6-15.6s6.98-15.6,15.6-15.6,15.6,6.98,15.6,15.6-6.98,15.6-15.6,15.6Z"/><path id="uuid-788aba8f-a0c8-4a71-8b7f-973fc2f4240e" class="uuid-bbb01d5c-a1ec-4964-9e7f-900dfb9fd140" d="M197.4,528.83c-4.92,0-8.91-3.99-8.91-8.9,0-4.92,3.99-8.91,8.9-8.91h0c4.92,0,8.91,3.99,8.91,8.9s-3.99,8.91-8.9,8.91h0Z"/><path id="uuid-3125ac39-83a4-44e0-ab57-779a5f5662af" class="uuid-bbb01d5c-a1ec-4964-9e7f-900dfb9fd140" d="M268.35,553.31c-4.92,0-8.91-3.99-8.91-8.9s3.99-8.91,8.9-8.91h0c4.92,0,8.91,3.99,8.91,8.9s-3.99,8.91-8.9,8.91h0Z"/><path id="uuid-af9afd8f-4eca-480b-b1cc-719cf87950f5" class="uuid-bbb01d5c-a1ec-4964-9e7f-900dfb9fd140" d="M157.68,518.12c-4.92,0-8.91-3.99-8.91-8.9s3.99-8.91,8.9-8.91h0c4.92,0,8.91,3.99,8.91,8.9,0,4.92-3.99,8.91-8.9,8.91h0Z"/><path id="uuid-29270452-3b85-4822-b2cc-d1394121e823" class="uuid-bbb01d5c-a1ec-4964-9e7f-900dfb9fd140" d="M206.31,455.41c-4.92,0-8.91-3.99-8.91-8.9s3.99-8.91,8.9-8.91h0c4.92,0,8.91,3.99,8.91,8.9,0,4.92-3.99,8.91-8.9,8.91h0Z"/><path id="uuid-b30aac32-0522-47a9-85be-b556afed90d8" class="uuid-bbb01d5c-a1ec-4964-9e7f-900dfb9fd140" d="M283.95,473.56c-4.92,0-8.91-3.99-8.91-8.9s3.99-8.91,8.9-8.91h0c4.92,0,8.91,3.99,8.91,8.9,0,4.92-3.99,8.91-8.9,8.91h0Z"/><path id="uuid-4a59dec1-fcc0-4cde-b02f-0d482876e86f" class="uuid-bbb01d5c-a1ec-4964-9e7f-900dfb9fd140" d="M283.95,512.16c-4.92,0-8.91-3.99-8.91-8.9s3.99-8.91,8.9-8.91h0c4.92,0,8.91,3.99,8.91,8.9s-3.99,8.91-8.9,8.91h0Z"/><path id="uuid-738f31f0-9aeb-460b-babe-a7d85f74f5ad" class="uuid-bbb01d5c-a1ec-4964-9e7f-900dfb9fd140" d="M168.77,464.32c-4.92,0-8.91-3.99-8.91-8.9s3.99-8.91,8.9-8.91h0c4.92,0,8.91,3.99,8.91,8.9s-3.99,8.91-8.9,8.91h0Z"/><path id="uuid-1fea29ee-b5de-43b5-bd14-280efadba920" class="uuid-bbb01d5c-a1ec-4964-9e7f-900dfb9fd140" d="M241.42,418.69c-4.92,0-8.91-3.99-8.91-8.9,0-4.92,3.99-8.91,8.9-8.91h0c4.92,0,8.91,3.99,8.91,8.9,0,4.92-3.99,8.91-8.9,8.91h0Z"/><path id="uuid-ab6c9ade-716d-4da9-9016-f58b2c6a3427" class="uuid-bbb01d5c-a1ec-4964-9e7f-900dfb9fd140" d="M234.86,563.02c-4.92,0-8.91-3.99-8.91-8.9s3.99-8.91,8.9-8.91h0c4.92,0,8.91,3.99,8.91,8.9,0,4.92-3.99,8.91-8.9,8.91h0Z"/><path id="uuid-e8a7b4b9-2b4e-4eae-979b-f3ddd7422e83" class="uuid-bbb01d5c-a1ec-4964-9e7f-900dfb9fd140" d="M195.51,422.22c-4.92,0-8.91-3.99-8.91-8.9s3.99-8.91,8.9-8.91h0c4.92,0,8.91,3.99,8.91,8.9s-3.99,8.91-8.9,8.91h0Z"/><text class="uuid-7873ef35-850b-4767-a372-608c101d0b98" transform="translate(182.19 382.22)"><tspan class="uuid-5d39c489-bb62-4fc5-9038-e5396c4d798b" x="0" y="0">f</tspan><tspan x="7" y="0">ear</tspan></text></g><g class="uuid-fa85d7ab-271c-479b-a277-ccbdaea4304e"><path id="uuid-5b1effdc-46db-447c-88bd-960305f5ccf1" class="uuid-49b3bfc5-c55f-419e-913b-5a735e03d170" d="M679.94,646.82c-68.89.01-124.75-55.82-124.76-124.71-.01-68.89,55.82-124.75,124.71-124.76h.04c68.89-.01,124.75,55.82,124.76,124.71.01,68.89-55.82,124.75-124.71,124.76h-.04Z"/><path id="uuid-da6ef679-7457-481a-82d1-c3b10a4aaf31" class="uuid-75a9fb43-fabe-47f8-829c-34e6637069c8" d="M669.58,517.55c-18.79,0-34.03-15.24-34.03-34.03s15.24-34.03,34.03-34.03,34.03,15.24,34.03,34.03-15.24,34.03-34.03,34.03Z"/><path id="uuid-a5cb3722-2b09-4afd-8be1-2a15023b1f9a" class="uuid-75a9fb43-fabe-47f8-829c-34e6637069c8" d="M604.03,565.83c-16.18,0-29.29-13.12-29.29-29.29s13.12-29.29,29.29-29.29,29.29,13.12,29.29,29.29-13.12,29.29-29.29,29.29Z"/><path id="uuid-b72801fb-0b77-4dc4-a5c3-ec3121840080" class="uuid-75a9fb43-fabe-47f8-829c-34e6637069c8" d="M747.54,578.09c-11.69,0-21.17-9.48-21.17-21.17s9.48-21.17,21.17-21.17,21.17,9.48,21.17,21.17-9.48,21.17-21.17,21.17Z"/><path id="uuid-6049ddad-b980-453b-9025-d50843890fe4" class="uuid-75a9fb43-fabe-47f8-829c-34e6637069c8" d="M735.73,467.75c-8.61,0-15.6-6.98-15.6-15.6s6.98-15.6,15.6-15.6,15.6,6.98,15.6,15.6-6.98,15.6-15.6,15.6Z"/><path id="uuid-b497bb63-2338-4d81-9534-91346654445c" class="uuid-75a9fb43-fabe-47f8-829c-34e6637069c8" d="M768.92,488.1c-8.61,0-15.6-6.98-15.6-15.6s6.98-15.6,15.6-15.6,15.6,6.98,15.6,15.6-6.98,15.6-15.6,15.6Z"/><path id="uuid-57a79d81-f738-46b8-9438-5d2a5621bce9" class="uuid-75a9fb43-fabe-47f8-829c-34e6637069c8" d="M739.76,505.91c-4.92,0-8.91-3.99-8.91-8.9s3.99-8.91,8.9-8.91h0c4.92,0,8.91,3.99,8.91,8.9s-3.99,8.91-8.9,8.91h0Z"/><path id="uuid-de9c5e34-6bf4-47fd-b00c-76f2f3429365" class="uuid-75a9fb43-fabe-47f8-829c-34e6637069c8" d="M633.32,614.32c-4.92,0-8.91-3.99-8.91-8.9s3.99-8.91,8.9-8.91h0c4.92,0,8.91,3.99,8.91,8.9s-3.99,8.91-8.9,8.91h0Z"/><path id="uuid-48e7a737-c650-4700-a9b8-bb12ff91f1ac" class="uuid-75a9fb43-fabe-47f8-829c-34e6637069c8" d="M673.69,605.42c-4.92,0-8.91-3.99-8.91-8.9s3.99-8.91,8.9-8.91h0c4.92,0,8.91,3.99,8.91,8.9s-3.99,8.91-8.9,8.91h0Z"/><path id="uuid-ec64c1e6-cbcb-42c0-8eb9-fe5b56f7025e" class="uuid-75a9fb43-fabe-47f8-829c-34e6637069c8" d="M612.94,481.41c-4.92,0-8.91-3.99-8.91-8.9s3.99-8.91,8.9-8.91h0c4.92,0,8.91,3.99,8.91,8.9s-3.99,8.91-8.9,8.91h0Z"/><path id="uuid-2fd03e18-a541-4844-b993-d0ed05a5d94c" class="uuid-75a9fb43-fabe-47f8-829c-34e6637069c8" d="M653.99,441.82c-4.92,0-8.91-3.99-8.91-8.9s3.99-8.91,8.9-8.91h0c4.92,0,8.91,3.99,8.91,8.9s-3.99,8.91-8.9,8.91h0Z"/><path id="uuid-6bbc86ff-bdb6-48b9-b470-5d65ec85c2c1" class="uuid-75a9fb43-fabe-47f8-829c-34e6637069c8" d="M612.94,601.14c-4.92,0-8.91-3.99-8.91-8.9s3.99-8.91,8.9-8.91h0c4.92,0,8.91,3.99,8.91,8.9s-3.99,8.91-8.9,8.91h0Z"/><path id="uuid-8fe7bada-6a37-4787-9a22-c3446593b10b" class="uuid-75a9fb43-fabe-47f8-829c-34e6637069c8" d="M671.03,556.92c-4.92,0-8.91-3.99-8.91-8.9s3.99-8.91,8.9-8.91h0c4.92,0,8.91,3.99,8.91,8.9s-3.99,8.91-8.9,8.91h0Z"/><path id="uuid-35705c02-6802-44f2-b165-9592c9b575a1" class="uuid-75a9fb43-fabe-47f8-829c-34e6637069c8" d="M697.8,432.91c-4.92,0-8.91-3.99-8.91-8.9s3.99-8.91,8.9-8.91h0c4.92,0,8.91,3.99,8.91,8.9s-3.99,8.91-8.9,8.91h0Z"/><path id="uuid-a5e1cd57-67a8-493d-9c2d-e6f615a517aa" class="uuid-75a9fb43-fabe-47f8-829c-34e6637069c8" d="M717.92,522.08c-4.92,0-8.91-3.99-8.91-8.9s3.99-8.91,8.9-8.91h0c4.92,0,8.91,3.99,8.91,8.9s-3.99,8.91-8.9,8.91h0Z"/><path id="uuid-8957ca9b-b4a1-4457-9e75-60ccf733f302" class="uuid-75a9fb43-fabe-47f8-829c-34e6637069c8" d="M775.37,526.46c-4.92,0-8.91-3.99-8.91-8.9s3.99-8.91,8.9-8.91h0c4.92,0,8.91,3.99,8.91,8.9s-3.99,8.91-8.9,8.91h0Z"/><path id="uuid-97241319-2015-4fa7-869b-4bf460ff083b" class="uuid-75a9fb43-fabe-47f8-829c-34e6637069c8" d="M715.62,610.67c-4.92,0-8.91-3.99-8.91-8.9s3.99-8.91,8.9-8.91h0c4.92,0,8.91,3.99,8.91,8.9s-3.99,8.91-8.9,8.91h0Z"/><path id="uuid-69e46f07-e049-4d9e-9abe-2be385c3b465" class="uuid-75a9fb43-fabe-47f8-829c-34e6637069c8" d="M702.32,565.83c-4.92,0-8.91-3.99-8.91-8.9s3.99-8.91,8.9-8.91h0c4.92,0,8.91,3.99,8.91,8.9s-3.99,8.91-8.9,8.91h0Z"/><path id="uuid-cbda2391-77e7-488d-8a89-dc9cc87602b7" class="uuid-75a9fb43-fabe-47f8-829c-34e6637069c8" d="M648.41,577.41c-4.92,0-8.91-3.99-8.91-8.9s3.99-8.91,8.9-8.91h0c4.92,0,8.91,3.99,8.91,8.9s-3.99,8.91-8.9,8.91h0Z"/><text class="uuid-7873ef35-850b-4767-a372-608c101d0b98" transform="translate(748.39 409.66)"><tspan x="0" y="0">j</tspan><tspan class="uuid-4b65f41c-69d7-4200-bfa2-7597c34a3881" x="4.46" y="0">o</tspan><tspan x="14.7" y="0">y</tspan></text></g><g class="uuid-fa85d7ab-271c-479b-a277-ccbdaea4304e"><path id="uuid-abd885a4-1009-4c99-b800-ee25472dc87a" class="uuid-98570b69-6842-492d-8e55-37c854eaaa35" d="M438.44,621.11c-59.81,0-108.3-48.49-108.3-108.3s48.49-108.3,108.3-108.3,108.3,48.49,108.3,108.3-48.49,108.3-108.3,108.3Z"/><path id="uuid-a48b1ace-516b-4d55-8958-10f112338ea2" class="uuid-270441ab-223d-4772-b520-97f4e2507bf9" d="M466.54,525.11c-21.52,0-38.97-17.45-38.97-38.97s17.45-38.97,38.97-38.97,38.97,17.45,38.97,38.97-17.45,38.97-38.97,38.97Z"/><path id="uuid-987dda7e-6474-4408-9266-e8ea3543272d" class="uuid-545d3bab-3204-4fde-9029-7454e145b68b" d="M382.07,537.94c-18.79,0-34.03-15.24-34.03-34.03s15.24-34.03,34.03-34.03,34.03,15.24,34.03,34.03-15.24,34.03-34.03,34.03Z"/><path id="uuid-f5e5ff32-10ab-44b8-b7c0-9a7f721bdb45" class="uuid-545d3bab-3204-4fde-9029-7454e145b68b" d="M403.24,587.94c-11.69,0-21.17-9.48-21.17-21.17s9.48-21.17,21.17-21.17,21.17,9.48,21.17,21.17-9.48,21.17-21.17,21.17Z"/><path id="uuid-04b748ac-8a5a-4897-b8fa-21e2ddce5bb0" class="uuid-545d3bab-3204-4fde-9029-7454e145b68b" d="M462.27,573.46c-8.61,0-15.6-6.98-15.6-15.6s6.98-15.6,15.6-15.6,15.6,6.98,15.6,15.6-6.98,15.6-15.6,15.6Z"/><path id="uuid-958898f2-b050-4871-9aaa-12da9ce352b3" class="uuid-545d3bab-3204-4fde-9029-7454e145b68b" d="M370.89,462.22c-4.92,0-8.91-3.99-8.91-8.9s3.99-8.91,8.9-8.91h0c4.92,0,8.91,3.99,8.91,8.9s-3.99,8.91-8.9,8.91h0Z"/><path id="uuid-412f9fdf-fcf8-4f01-ab4c-0989f59eddd1" class="uuid-545d3bab-3204-4fde-9029-7454e145b68b" d="M416.1,459.05c-4.92,0-8.91-3.99-8.91-8.9s3.99-8.91,8.9-8.91h0c4.92,0,8.91,3.99,8.91,8.9s-3.99,8.91-8.9,8.91h0Z"/><path id="uuid-feb3db00-0daa-4a3f-be4c-af080b281cb7" class="uuid-545d3bab-3204-4fde-9029-7454e145b68b" d="M444.45,437.18c-4.92,0-8.91-3.99-8.91-8.9s3.99-8.91,8.9-8.91h0c4.92,0,8.91,3.99,8.91,8.9,0,4.92-3.99,8.91-8.9,8.91h0Z"/><path id="uuid-86b67dfb-68b9-4662-9f1b-07d3ab85e3d6" class="uuid-545d3bab-3204-4fde-9029-7454e145b68b" d="M435.54,548.85c-4.92,0-8.91-3.99-8.91-8.9s3.99-8.91,8.9-8.91h0c4.92,0,8.91,3.99,8.91,8.9s-3.99,8.91-8.9,8.91h0Z"/><path id="uuid-c41ae272-14a5-4730-b5c4-4adeaf758f2b" class="uuid-545d3bab-3204-4fde-9029-7454e145b68b" d="M444.45,593.88c-4.92,0-8.91-3.99-8.91-8.9s3.99-8.91,8.9-8.91h0c4.92,0,8.91,3.99,8.91,8.9s-3.99,8.91-8.9,8.91h0Z"/><path id="uuid-e806b95e-8e2e-4954-bd82-7ff24817d458" class="uuid-545d3bab-3204-4fde-9029-7454e145b68b" d="M501.16,547.55c-4.92,0-8.91-3.99-8.91-8.9s3.99-8.91,8.9-8.91h0c4.92,0,8.91,3.99,8.91,8.9s-3.99,8.91-8.9,8.91h0Z"/><path id="uuid-18d46fee-1cb5-4cb5-92a3-dd002986f180" class="uuid-545d3bab-3204-4fde-9029-7454e145b68b" d="M523.67,512.82c-4.92,0-8.91-3.99-8.91-8.9s3.99-8.91,8.9-8.91h0c4.92,0,8.91,3.99,8.91,8.9s-3.99,8.91-8.9,8.91h0Z"/><path id="uuid-11495881-3160-4272-bf58-58b30b29699b" class="uuid-545d3bab-3204-4fde-9029-7454e145b68b" d="M492.25,593.88c-4.92,0-8.91-3.99-8.91-8.9s3.99-8.91,8.9-8.91h0c4.92,0,8.91,3.99,8.91,8.9s-3.99,8.91-8.9,8.91h0Z"/><text class="uuid-7873ef35-850b-4767-a372-608c101d0b98" transform="translate(387.71 395.1)"><tspan x="0" y="0">sadness</tspan></text></g><g class="uuid-fa85d7ab-271c-479b-a277-ccbdaea4304e"><path id="uuid-6c78bff8-19c9-42f0-a9f5-31337755fe47" class="uuid-15f7b409-67e1-4736-84c0-ace05986310b" d="M73.84,275.11C33.34,275.11.5,242.28.5,201.77s32.84-73.34,73.34-73.34,73.34,32.84,73.34,73.34-32.84,73.34-73.34,73.34Z"/><path id="uuid-6714923b-835c-4c2d-9625-45f01815151d" class="uuid-270441ab-223d-4772-b520-97f4e2507bf9" d="M77.66,261.51c-21.52,0-38.97-17.45-38.97-38.97s17.45-38.97,38.97-38.97,38.97,17.45,38.97,38.97-17.45,38.97-38.97,38.97Z"/><path id="uuid-f2472d61-c9b4-4f1e-ad13-474ec49fec5b" class="uuid-1fe8cda6-662f-4a08-8294-66e635d68f75" d="M27.7,199.56c-8.61,0-15.6-6.98-15.6-15.6s6.98-15.6,15.6-15.6,15.6,6.98,15.6,15.6-6.98,15.6-15.6,15.6Z"/><path id="uuid-958bb27f-84cd-4833-9fa3-c0ef3ae79767" class="uuid-1fe8cda6-662f-4a08-8294-66e635d68f75" d="M125.54,207.52c-4.92,0-8.91-3.99-8.91-8.9,0-4.92,3.99-8.91,8.9-8.91h0c4.92,0,8.91,3.99,8.91,8.9s-3.99,8.91-8.9,8.91h0Z"/><path id="uuid-1030f349-8e1f-4c57-a5e7-7f6a5f3a20f8" class="uuid-1fe8cda6-662f-4a08-8294-66e635d68f75" d="M52.2,157.22c-4.92,0-8.91-3.99-8.91-8.9,0-4.92,3.99-8.91,8.9-8.91h0c4.92,0,8.91,3.99,8.91,8.9s-3.99,8.91-8.9,8.91h0Z"/><path id="uuid-e17a6ffd-1d41-4507-ae34-71fea0b80b3e" class="uuid-1fe8cda6-662f-4a08-8294-66e635d68f75" d="M95.48,177.27c-4.92,0-8.91-3.99-8.91-8.9,0-4.92,3.99-8.91,8.9-8.91h0c4.92,0,8.91,3.99,8.91,8.9s-3.99,8.91-8.9,8.91h0Z"/><path id="uuid-c7f21d75-bca2-4a9e-9d70-628edc820552" class="uuid-1fe8cda6-662f-4a08-8294-66e635d68f75" d="M64.93,177.27c-4.92,0-8.91-3.99-8.91-8.9,0-4.92,3.99-8.91,8.9-8.91h0c4.92,0,8.91,3.99,8.91,8.9s-3.99,8.91-8.9,8.91h0Z"/><text class="uuid-7873ef35-850b-4767-a372-608c101d0b98" transform="translate(15.83 122.54)"><tspan x="0" y="0">surprise</tspan></text></g><path id="uuid-6242be10-5eee-4b62-8c16-d9beac67dbec" class="uuid-2ec9cb64-9d06-42c4-8846-40638a0ba67b" d="M667.98,391.88c-100.84,0-182.58-81.74-182.58-182.58S567.14,26.72,667.98,26.72s182.58,81.74,182.58,182.58-81.74,182.58-182.58,182.58Z"/><path id="uuid-3887235f-6e43-4da5-9bd8-8e7e817294ee" class="uuid-ca612b41-8969-4f25-8f60-53090e28047e" d="M588.44,287.97c-21.52,0-38.97-17.45-38.97-38.97s17.45-38.97,38.97-38.97,38.97,17.45,38.97,38.97-17.45,38.97-38.97,38.97Z"/><path id="uuid-997ec6a3-f71a-43bb-88c8-9e03f2afd7d2" class="uuid-ca612b41-8969-4f25-8f60-53090e28047e" d="M678.21,303.04c-21.52,0-38.97-17.45-38.97-38.97s17.45-38.97,38.97-38.97,38.97,17.45,38.97,38.97-17.45,38.97-38.97,38.97Z"/><path id="uuid-d9b179c0-0687-421d-9519-dc5027116f5d" class="uuid-ca612b41-8969-4f25-8f60-53090e28047e" d="M762.59,283.03c-18.79,0-34.03-15.24-34.03-34.03s15.24-34.03,34.03-34.03,34.03,15.24,34.03,34.03-15.24,34.03-34.03,34.03Z"/><path id="uuid-d988c83b-349c-4946-a6d1-307923e61f2d" class="uuid-ca612b41-8969-4f25-8f60-53090e28047e" d="M728.56,209.67c-16.1,0-29.16-13.05-29.16-29.16s13.05-29.16,29.16-29.16,29.16,13.05,29.16,29.16-13.05,29.16-29.16,29.16Z"/><path id="uuid-2af5801e-0908-4bf2-aede-f86e57ba67e2" class="uuid-ca612b41-8969-4f25-8f60-53090e28047e" d="M665.41,177.29c-14.38,0-26.04-11.66-26.04-26.04s11.66-26.04,26.04-26.04,26.04,11.66,26.04,26.04-11.66,26.04-26.04,26.04Z"/><path id="uuid-f6a13b6d-144f-43a4-9047-b824ad85a7d7" class="uuid-ca612b41-8969-4f25-8f60-53090e28047e" d="M614.49,150.59c-14.38,0-26.04-11.66-26.04-26.04s11.66-26.04,26.04-26.04,26.04,11.66,26.04,26.04-11.66,26.04-26.04,26.04Z"/><path id="uuid-f3437cf3-407d-4b2e-b586-745e2e6b2629" class="uuid-ca612b41-8969-4f25-8f60-53090e28047e" d="M707.39,142.95c-11.69,0-21.17-9.48-21.17-21.17s9.48-21.17,21.17-21.17,21.17,9.48,21.17,21.17-9.48,21.17-21.17,21.17Z"/><path id="uuid-a79b72e6-9ff5-4e48-9f4c-590e76dd841f" class="uuid-ca612b41-8969-4f25-8f60-53090e28047e" d="M693.81,98.74c-8.61,0-15.6-6.98-15.6-15.6s6.98-15.6,15.6-15.6,15.6,6.98,15.6,15.6-6.98,15.6-15.6,15.6Z"/><path id="uuid-441f0c49-447c-4b9f-9688-291ba6709b62" class="uuid-ca612b41-8969-4f25-8f60-53090e28047e" d="M618.05,192.89c-8.61,0-15.6-6.98-15.6-15.6s6.98-15.6,15.6-15.6,15.6,6.98,15.6,15.6-6.98,15.6-15.6,15.6Z"/><path id="uuid-0adc799f-0e33-4c68-baaf-8100fb15d8d2" class="uuid-ca612b41-8969-4f25-8f60-53090e28047e" d="M652.38,221.22c-8.61,0-15.6-6.98-15.6-15.6s6.98-15.6,15.6-15.6,15.6,6.98,15.6,15.6-6.98,15.6-15.6,15.6Z"/><path id="uuid-44479987-d8c0-49a6-8e54-02b8a3f1b065" class="uuid-ca612b41-8969-4f25-8f60-53090e28047e" d="M652.38,109.89c-8.61,0-15.6-6.98-15.6-15.6s6.98-15.6,15.6-15.6,15.6,6.98,15.6,15.6-6.98,15.6-15.6,15.6Z"/><path id="uuid-2399e708-d692-40ac-9d51-00c7ee917ed1" class="uuid-ca612b41-8969-4f25-8f60-53090e28047e" d="M753.25,125.61c-8.61,0-15.6-6.98-15.6-15.6s6.98-15.6,15.6-15.6,15.6,6.98,15.6,15.6-6.98,15.6-15.6,15.6Z"/><path id="uuid-c25a91e8-391d-4a10-b476-0a9cc78e7229" class="uuid-ca612b41-8969-4f25-8f60-53090e28047e" d="M568.47,185.39c-14.38,0-26.04-11.66-26.04-26.04s11.66-26.04,26.04-26.04,26.04,11.66,26.04,26.04-11.66,26.04-26.04,26.04Z"/><path id="uuid-9cb6ba98-a31c-4ab8-aff5-ae10cd15b273" class="uuid-ca612b41-8969-4f25-8f60-53090e28047e" d="M578.48,333.73c-4.92,0-8.91-3.99-8.91-8.9,0-4.92,3.99-8.91,8.9-8.91h0c4.92,0,8.91,3.99,8.91,8.9s-3.99,8.91-8.9,8.91h0Z"/><path id="uuid-b8bd68bc-0385-483d-8cda-2ddf38f30ccf" class="uuid-ca612b41-8969-4f25-8f60-53090e28047e" d="M618.51,344.29c-4.92,0-8.91-3.99-8.91-8.9,0-4.92,3.99-8.91,8.9-8.91h0c4.92,0,8.91,3.99,8.91,8.9s-3.99,8.91-8.9,8.91h0Z"/><path id="uuid-ce67c9da-19ec-40b5-a358-fb037374c54a" class="uuid-ca612b41-8969-4f25-8f60-53090e28047e" d="M542.43,305.33c-4.92,0-8.91-3.99-8.91-8.9,0-4.92,3.99-8.91,8.9-8.91h0c4.92,0,8.91,3.99,8.91,8.9s-3.99,8.91-8.9,8.91h0Z"/><path id="uuid-49edd271-3450-4eb7-afe9-dac66050ef3b" class="uuid-ca612b41-8969-4f25-8f60-53090e28047e" d="M728.56,74.24c-4.92,0-8.91-3.99-8.91-8.9,0-4.92,3.99-8.91,8.9-8.91h0c4.92,0,8.91,3.99,8.91,8.9s-3.99,8.91-8.9,8.91h0Z"/><path id="uuid-ae5c47a1-0885-4371-8022-ebc4d5498915" class="uuid-ca612b41-8969-4f25-8f60-53090e28047e" d="M614.49,311.95c-4.92,0-8.91-3.99-8.91-8.9,0-4.92,3.99-8.91,8.9-8.91h0c4.92,0,8.91,3.99,8.91,8.9s-3.99,8.91-8.9,8.91h0Z"/><path id="uuid-7ec48fdf-db92-4659-a068-0a3b31e6e519" class="uuid-ca612b41-8969-4f25-8f60-53090e28047e" d="M656.5,332.13c-4.92,0-8.91-3.99-8.91-8.9,0-4.92,3.99-8.91,8.9-8.91h0c4.92,0,8.91,3.99,8.91,8.9s-3.99,8.91-8.9,8.91h0Z"/><path id="uuid-c7eb0236-0ac8-4540-b79e-71437cf763bc" class="uuid-ca612b41-8969-4f25-8f60-53090e28047e" d="M691.45,353.2c-4.92,0-8.91-3.99-8.91-8.9,0-4.92,3.99-8.91,8.9-8.91h0c4.92,0,8.91,3.99,8.91,8.9s-3.99,8.91-8.9,8.91h0Z"/><path id="uuid-7a4e133e-e23d-4ab0-8ecd-beb00b499f69" class="uuid-ca612b41-8969-4f25-8f60-53090e28047e" d="M722.93,326.48c-4.92,0-8.91-3.99-8.91-8.9,0-4.92,3.99-8.91,8.9-8.91h0c4.92,0,8.91,3.99,8.91,8.9s-3.99,8.91-8.9,8.91h0Z"/><path id="uuid-59e1df2a-6bab-40f3-915c-9a52fbff0370" class="uuid-ca612b41-8969-4f25-8f60-53090e28047e" d="M785.55,192.46c-4.92,0-8.91-3.99-8.91-8.9,0-4.92,3.99-8.91,8.9-8.91h0c4.92,0,8.91,3.99,8.91,8.9s-3.99,8.91-8.9,8.91h0Z"/><path id="uuid-6822b283-2918-4d9e-b710-c43c5807ba6d" class="uuid-ca612b41-8969-4f25-8f60-53090e28047e" d="M588.44,92.05c-4.92,0-8.91-3.99-8.91-8.9,0-4.92,3.99-8.91,8.9-8.91h0c4.92,0,8.91,3.99,8.91,8.9s-3.99,8.91-8.9,8.91h0Z"/><path id="uuid-78745d85-688d-4982-b19f-6c5095600a03" class="uuid-ca612b41-8969-4f25-8f60-53090e28047e" d="M771.49,155.19c-4.92,0-8.91-3.99-8.91-8.9,0-4.92,3.99-8.91,8.9-8.91h0c4.92,0,8.91,3.99,8.91,8.9s-3.99,8.91-8.9,8.91h0Z"/><path id="uuid-da1efd5f-daf1-4d1b-b193-fff77d5446ca" class="uuid-ca612b41-8969-4f25-8f60-53090e28047e" d="M753.25,315.66c-4.92,0-8.91-3.99-8.91-8.9,0-4.92,3.99-8.91,8.9-8.91h0c4.92,0,8.91,3.99,8.91,8.9s-3.99,8.91-8.9,8.91h0Z"/><path id="uuid-23b4ab4b-970f-41e3-8770-2a97eebedab4" class="uuid-ca612b41-8969-4f25-8f60-53090e28047e" d="M548.12,218.93c-4.92,0-8.91-3.99-8.91-8.9,0-4.92,3.99-8.91,8.9-8.91h0c4.92,0,8.91,3.99,8.91,8.9s-3.99,8.91-8.9,8.91h0Z"/><path id="uuid-37cc12f5-ac08-442c-bcff-0e34e372527c" class="uuid-ca612b41-8969-4f25-8f60-53090e28047e" d="M785.55,307.49c-4.92,0-8.91-3.99-8.91-8.9,0-4.92,3.99-8.91,8.9-8.91h0c4.92,0,8.91,3.99,8.91,8.9s-3.99,8.91-8.9,8.91h0Z"/><path id="uuid-221c0795-05a7-46f2-bc26-38e2f835ff44" class="uuid-ca612b41-8969-4f25-8f60-53090e28047e" d="M825.53,249c-4.92,0-8.91-3.99-8.91-8.9,0-4.92,3.99-8.91,8.9-8.91h0c4.92,0,8.91,3.99,8.91,8.9s-3.99,8.91-8.9,8.91h0Z"/><text class="uuid-7873ef35-850b-4767-a372-608c101d0b98" transform="translate(646.97 15.59)"><tspan class="uuid-4b65f41c-69d7-4200-bfa2-7597c34a3881" x="0" y="0">t</tspan><tspan x="6.96" y="0">ru</tspan><tspan class="uuid-7aa4c3fc-8e3f-4121-96cd-32d3657da0cd" x="24.9" y="0">s</tspan><tspan x="32.53" y="0">t</tspan></text><text class="uuid-40dd0a8d-bf3a-41ef-941f-b0059f5f7917" transform="translate(59.65 219.25)"><tspan x="0" y="0">le</tspan><tspan class="uuid-4b65f41c-69d7-4200-bfa2-7597c34a3881" x="11.74" y="0">av</tspan><tspan x="27.01" y="0">e</tspan></text><text class="uuid-40dd0a8d-bf3a-41ef-941f-b0059f5f7917" transform="translate(72.91 237.11)"><tspan x="0" y="0">8</tspan></text><text class="uuid-40dd0a8d-bf3a-41ef-941f-b0059f5f7917" transform="translate(448.21 482.56)"><tspan x="0" y="0">le</tspan><tspan class="uuid-4b65f41c-69d7-4200-bfa2-7597c34a3881" x="11.74" y="0">av</tspan><tspan x="27.01" y="0">e</tspan></text><text class="uuid-40dd0a8d-bf3a-41ef-941f-b0059f5f7917" transform="translate(461.47 500.41)"><tspan x="0" y="0">8</tspan></text></g></svg>